<?xml version="1.0" encoding="UTF-8"?>
<svg xmlns="http://www.w3.org/2000/svg" width="1024" height="1024" viewBox="0 0 1024 1024" role="img" aria-labelledby="title desc">
  <title id="title">Local VTT icon master from confirmed reference v4</title>
  <desc id="desc">A refined true SVG master for Local VTT with a consistent-width monitor outline, aligned tactical grid, and stylized dragon head emblem.</desc>
  <defs>
    <linearGradient id="tileGrad" x1="0" y1="0" x2="1" y2="1">
      <stop offset="0%" stop-color="#000000"/>
      <stop offset="58%" stop-color="#031238"/>
      <stop offset="100%" stop-color="#020917"/>
    </linearGradient>
    <linearGradient id="frameGrad" x1="0.06" y1="0.10" x2="0.94" y2="0.90">
      <stop offset="0%" stop-color="#26E1F0"/>
      <stop offset="72%" stop-color="#4288FF"/>
      <stop offset="100%" stop-color="#6455FF"/>
    </linearGradient>
    <linearGradient id="dragonGrad" x1="0.33" y1="0.18" x2="0.68" y2="0.88">
      <stop offset="0%" stop-color="#29E5F3"/>
      <stop offset="52%" stop-color="#4586FF"/>
      <stop offset="100%" stop-color="#6C2EFF"/>
    </linearGradient>
    <linearGradient id="screenGrad" x1="0" y1="0" x2="0" y2="1">
      <stop offset="0%" stop-color="#06173E"/>
      <stop offset="100%" stop-color="#030A18"/>
    </linearGradient>
    <clipPath id="screenClip"><path d="M 178 174
H 846
C 900 174 944 218 944 272
V 744
C 944 798 900 842 846 842
H 666
C 636 842 620 850 602 869
L 584 888
C 567 906 542 916 512 916
C 482 916 457 906 440 888
L 422 869
C 404 850 388 842 358 842
H 178
C 124 842 80 798 80 744
V 272
C 80 218 124 174 178 174 Z"/></clipPath>
  </defs>

  <rect x="16" y="16" width="992" height="992" rx="180" fill="url(#tileGrad)"/>
  <rect x="16" y="16" width="992" height="992" rx="180" fill="none" stroke="#0A245F" stroke-width="4"/>

  <path d="M 178 174
H 846
C 900 174 944 218 944 272
V 744
C 944 798 900 842 846 842
H 666
C 636 842 620 850 602 869
L 584 888
C 567 906 542 916 512 916
C 482 916 457 906 440 888
L 422 869
C 404 850 388 842 358 842
H 178
C 124 842 80 798 80 744
V 272
C 80 218 124 174 178 174 Z" fill="url(#screenGrad)"/>
  <path d="M 178 174
H 846
C 900 174 944 218 944 272
V 744
C 944 798 900 842 846 842
H 666
C 636 842 620 850 602 869
L 584 888
C 567 906 542 916 512 916
C 482 916 457 906 440 888
L 422 869
C 404 850 388 842 358 842
H 178
C 124 842 80 798 80 744
V 272
C 80 218 124 174 178 174 Z" fill="none" stroke="url(#frameGrad)" stroke-width="48" stroke-linejoin="round" stroke-linecap="round"/>

  <g clip-path="url(#screenClip)">
    <g opacity="0.40" stroke="#103886" stroke-width="5" stroke-linecap="round">
      <line x1="244" y1="246" x2="780" y2="246"/>
      <line x1="244" y1="380" x2="780" y2="380"/>
      <line x1="244" y1="514" x2="780" y2="514"/>
      <line x1="244" y1="648" x2="780" y2="648"/>
      <line x1="244" y1="782" x2="780" y2="782"/>
      <line x1="244" y1="246" x2="244" y2="782"/>
      <line x1="378" y1="246" x2="378" y2="782"/>
      <line x1="512" y1="246" x2="512" y2="782"/>
      <line x1="646" y1="246" x2="646" y2="782"/>
      <line x1="780" y1="246" x2="780" y2="782"/>
    </g>
    <g fill="#14409A" opacity="0.70">
      <circle cx="244" cy="380" r="12"/>
      <circle cx="646" cy="246" r="12"/>
      <circle cx="780" cy="246" r="12"/>
      <circle cx="780" cy="380" r="12"/>
      <circle cx="780" cy="648" r="12"/>
    </g>
  </g>

  <path d="M 313.57,215.58 L 320.10,239.26 L 329.08,257.22 L 360.11,298.87 L 391.15,327.45 L 457.29,378.08 L 489.14,409.93 L 433.61,371.55 L 409.11,360.11 L 386.25,355.22 L 360.11,356.03 L 329.08,364.20 L 300.50,378.08 L 280.91,391.96 L 322.55,391.15 L 346.23,396.86 L 365.01,405.84 L 326.63,424.63 L 283.36,458.11 L 253.96,492.40 L 231.91,532.41 L 254.78,515.27 L 275.19,504.65 L 303.77,495.67 L 326.63,494.04 L 296.42,530.78 L 274.37,578.96 L 265.39,624.69 L 265.39,653.27 L 269.47,678.58 L 276.82,656.54 L 289.07,632.85 L 302.14,615.71 L 319.29,600.19 L 320.10,650.82 L 326.63,674.50 L 335.62,694.10 L 354.40,720.23 L 400.94,764.33 L 413.19,779.84 L 575.69,779.84 L 568.34,759.43 L 553.65,734.93 L 516.08,695.73 L 546.30,711.25 L 578.96,734.11 L 603.46,758.61 L 617.34,779.84 L 658.17,779.84 L 641.02,749.63 L 615.71,724.31 L 578.14,699.81 L 491.59,656.54 L 462.19,634.49 L 444.22,614.89 L 436.06,602.64 L 425.44,578.14 L 422.18,561.00 L 422.18,542.21 L 431.16,514.45 L 446.67,496.48 L 420.54,479.34 L 439.32,478.52 L 464.64,483.42 L 485.05,490.77 L 502.20,500.57 L 483.42,506.28 L 467.09,516.90 L 457.29,528.33 L 449.94,543.85 L 450.76,545.48 L 462.19,542.21 L 485.87,543.03 L 503.83,548.75 L 515.27,556.10 L 505.47,565.89 L 498.12,578.14 L 493.22,602.64 L 507.10,590.39 L 526.70,579.78 L 555.28,572.43 L 593.66,572.43 L 625.51,581.41 L 654.09,598.56 L 673.68,619.79 L 681.85,641.02 L 681.03,653.27 L 676.95,663.07 L 694.92,654.90 L 712.88,640.20 L 712.06,663.07 L 700.63,687.57 L 723.50,677.77 L 742.28,663.89 L 757.79,648.37 L 778.21,618.97 L 785.56,603.46 L 790.46,584.68 L 788.82,558.55 L 779.02,535.68 L 774.94,530.78 L 770.86,539.76 L 763.51,544.66 L 742.28,529.96 L 717.78,507.10 L 699.81,485.87 L 703.08,470.35 L 699.81,446.67 L 681.85,434.42 L 657.35,411.56 L 592.84,324.19 L 567.53,298.87 L 544.66,280.91 L 492.40,249.88 L 459.74,235.99 L 487.50,263.76 L 507.10,289.07 L 525.88,319.29 L 535.68,339.70 L 534.86,342.97 L 489.95,316.84 L 409.11,282.54 L 371.55,262.94 L 336.43,238.44 Z" fill="url(#dragonGrad)"/>
  <path d="M 735.74,565.89 L 749.63,568.34 L 756.98,574.06 L 759.43,578.14 L 761.06,584.68 L 759.43,595.29 L 752.89,584.68 L 734.93,567.53 Z" fill="url(#screenGrad)"/>
  <path d="M 577.33,428.71 L 581.41,428.71 L 596.11,435.24 L 623.87,453.21 L 635.30,463.00 L 684.30,513.63 L 682.67,514.45 L 662.25,505.47 L 634.49,501.38 L 622.24,495.67 L 615.71,489.14 L 609.99,478.52 L 606.72,459.74 Z" fill="url(#screenGrad)"/>
  <path d="M 626.32,469.54 L 628.77,483.42 L 634.49,489.95 L 654.09,494.85 L 628.77,470.35 Z" fill="#29E5F3"/>
  <rect x="458" y="816" width="108" height="18" rx="9" fill="#29E5F3"/>
</svg>
