<?xml version="1.0" encoding="UTF-8"?>
<svg id="Layer_2" data-name="Layer 2" xmlns="http://www.w3.org/2000/svg" viewBox="0 0 162.59 152.97">
  <defs>
    <style>
      .cls-1 {
        fill: #fff;
      }
    </style>
  </defs>
  <g id="Layer_1-2" data-name="Layer 1">
    <g>
      <path class="cls-1" d="M33.73,33.87l2.42,3.66c.82,1.21,1.58,2.47,2.46,3.64,1.74,2.35,3.36,4.79,5.19,7.07l2.69,3.47,2.82,3.36c.93,1.13,1.89,2.24,2.88,3.31l2.95,3.25,3.05,3.15c1.01,1.06,2.09,2.04,3.13,3.07,1.04,1.03,2.13,2.01,3.21,2.99,1.07,1,2.16,1.97,3.28,2.91,2.2,1.93,4.49,3.75,6.81,5.52,2.34,1.75,4.73,3.45,7.22,4.95l-.25.18c-1.26-6.96-2.33-13.96-3.29-20.97-.93-7.01-1.82-14.03-2.58-21.06-.37-3.52-.71-7.04-1-10.56-.16-1.76-.29-3.53-.4-5.29-.11-1.77-.26-3.53-.35-5.3-.15-3.53-.3-7.07-.33-10.61-.12-3.54,0-7.08.06-10.61h.12c.06,3.54,0,7.07.13,10.61.06,3.53.25,7.06.42,10.59.07,1.77.2,3.53.3,5.29.1,1.76.21,3.53.35,5.29.25,3.53.56,7.05.9,10.57.69,7.04,1.5,14.06,2.53,21.06,1.02,7,2.15,13.98,3.46,20.92l.07.36-.32-.19c-2.54-1.5-4.93-3.18-7.3-4.92-2.35-1.76-4.66-3.57-6.88-5.48-2.25-1.88-4.42-3.86-6.51-5.91-1.04-1.03-2.12-2.03-3.12-3.09l-3.04-3.18-2.94-3.27c-.99-1.08-1.94-2.19-2.86-3.33l-2.8-3.39-2.67-3.49c-1.83-2.29-3.44-4.75-5.13-7.14-.86-1.19-1.59-2.46-2.4-3.68l-2.36-3.7.06-.04Z"/>
      <path class="cls-1" d="M.03,85.53c3.26,1.23,6.61,2.25,9.99,3.11,1.68.45,3.4.8,5.09,1.22l5.13,1.01,5.17.78c1.73.22,3.47.37,5.2.56,1.73.22,3.48.21,5.22.33l2.61.12,2.61-.02c1.74-.05,3.49.05,5.22-.12l5.21-.36c1.73-.16,3.45-.45,5.18-.66l2.59-.35,2.56-.55c1.7-.37,3.41-.71,5.11-1.12l5-1.52c.83-.26,1.68-.48,2.49-.78l2.43-.98,4.85-1.95.36-.14-.2.32c-1.68,2.75-3.48,5.41-5.37,8.01-.92,1.32-1.91,2.59-2.87,3.87-.95,1.3-1.99,2.52-2.99,3.78-.98,1.27-2.04,2.48-3.07,3.72-1.02,1.24-2.09,2.44-3.18,3.62-1.08,1.19-2.14,2.4-3.29,3.53-1.13,1.14-2.24,2.31-3.39,3.43l-3.53,3.29c-1.17,1.11-2.45,2.09-3.67,3.13-1.22,1.05-2.47,2.06-3.79,2.99-1.3.95-2.57,1.94-3.92,2.82l-4.09,2.56c-1.33.91-2.83,1.54-4.23,2.31-1.43.74-2.83,1.53-4.35,2.08l-4.48,1.79-.04-.11,4.42-1.9c1.5-.58,2.9-1.36,4.31-2.12,1.4-.79,2.88-1.42,4.2-2.34l4.05-2.59c1.33-.9,2.59-1.89,3.9-2.81,1.32-.91,2.58-1.91,3.8-2.95,1.22-1.04,2.51-2,3.69-3.09l3.55-3.25c1.17-1.1,2.28-2.26,3.42-3.39,1.15-1.12,2.22-2.32,3.31-3.5,1.09-1.18,2.18-2.36,3.2-3.6,1.04-1.23,2.11-2.42,3.09-3.69.98-1.27,2.01-2.5,2.95-3.81.96-1.29,1.93-2.57,2.84-3.89,1.86-2.61,3.64-5.29,5.29-8.04l.16.18-4.85,2-2.43,1c-.82.3-1.67.53-2.5.8l-5.01,1.56c-1.7.42-3.41.77-5.12,1.16l-2.56.57-2.6.37c-1.73.23-3.46.54-5.2.7l-5.24.36c-1.74.16-3.5.05-5.25.09h-2.62s-2.62-.13-2.62-.13c-1.74-.13-3.5-.13-5.23-.36-1.74-.2-3.48-.35-5.21-.59l-5.18-.82-5.14-1.04c-1.7-.42-3.41-.79-5.09-1.27-3.37-.92-6.71-1.99-9.95-3.28l.03-.07Z"/>
      <path class="cls-1" d="M69.39,152.94c2.03-5.48,3.74-11.08,5.34-16.7.41-1.4.76-2.82,1.14-4.23.39-1.41.71-2.83,1.05-4.25.35-1.42.68-2.84.97-4.27.29-1.43.63-2.85.89-4.29.53-2.87,1.05-5.74,1.44-8.64.23-1.44.42-2.89.58-4.34.16-1.45.36-2.9.48-4.35l.32-4.37c.14-1.45.1-2.92.16-4.37.03-1.46.09-2.92,0-4.38l-.15-4.38-.02-.51.3.4c1.91,2.59,3.98,5.09,6.13,7.5,2.14,2.42,4.37,4.76,6.69,7.01,1.13,1.15,2.33,2.23,3.53,3.32,1.19,1.1,2.41,2.15,3.68,3.16,1.26,1.01,2.47,2.09,3.8,3.01l3.91,2.86,4.07,2.63c1.33.92,2.8,1.6,4.2,2.41,1.41.8,2.82,1.57,4.31,2.19,1.48.65,2.93,1.36,4.42,1.96l4.55,1.63c1.5.62,3.11.84,4.66,1.28,1.57.39,3.12.82,4.74.95l4.8.65v.12s-4.84-.52-4.84-.52c-1.62-.11-3.19-.53-4.77-.9-1.56-.42-3.19-.63-4.7-1.24l-4.59-1.6c-1.5-.6-2.95-1.34-4.43-2.01-1.49-.64-2.9-1.43-4.31-2.24-1.39-.83-2.86-1.52-4.19-2.46l-4.06-2.67-3.89-2.9c-1.32-.94-2.52-2.03-3.78-3.05-1.26-1.01-2.47-2.09-3.66-3.19-1.21-1.08-2.42-2.15-3.56-3.29-2.34-2.24-4.6-4.56-6.76-6.97-2.18-2.4-4.26-4.87-6.21-7.47l.28-.1.19,4.39c.1,1.46.05,2.93.03,4.39-.05,1.46,0,2.93-.12,4.39l-.29,4.38c-.11,1.46-.3,2.91-.45,4.37-.14,1.46-.33,2.91-.57,4.35-.41,2.9-.95,5.78-1.5,8.65-.27,1.44-.61,2.86-.92,4.29-.3,1.43-.64,2.85-1,4.27-.35,1.42-.69,2.84-1.08,4.25-.39,1.41-.74,2.83-1.17,4.23-1.61,5.63-3.45,11.18-5.58,16.64l-.07-.03Z"/>
      <path class="cls-1" d="M98.17,21.87c-3.47,10.22-6.78,20.5-9.74,30.89-.73,2.6-1.45,5.2-2.11,7.81-.35,1.3-.66,2.61-.98,3.93-.3,1.31-.66,2.62-.93,3.94-.61,2.63-1.13,5.27-1.6,7.92l-.56,4c-.15,1.34-.2,2.68-.3,4.02l-.09-.16c3.04,1.62,6.23,2.97,9.46,4.2,1.63.58,3.25,1.17,4.9,1.7,1.66.48,3.3,1.04,4.98,1.46,1.68.41,3.35.88,5.04,1.23l5.09,1,5.14.69c1.71.25,3.45.29,5.17.44l2.59.19,2.59.03c1.73,0,3.46.09,5.18,0l5.18-.31c1.73-.04,3.43-.38,5.15-.58,1.71-.27,3.44-.34,5.13-.73l5.08-1.03c1.71-.28,3.35-.82,5.02-1.29l5-1.39.04.11-4.97,1.53c-1.66.48-3.31,1.04-5.02,1.34l-5.09,1.08c-1.69.4-3.43.51-5.14.76-1.72.18-3.43.5-5.17.53l-5.19.26c-1.73.07-3.47-.04-5.2-.05l-2.6-.05-2.59-.21c-1.72-.17-3.46-.22-5.17-.49l-5.14-.73-5.1-.98c-1.7-.34-3.37-.8-5.06-1.19-1.68-.41-3.33-.95-5-1.42-1.65-.51-3.29-1.09-4.93-1.66-3.25-1.21-6.46-2.53-9.54-4.15l-.1-.05v-.11c.1-1.35.14-2.71.28-4.06l.54-4.02c.45-2.67.95-5.33,1.55-7.96.58-2.64,1.23-5.26,1.93-7.87.69-2.61,1.42-5.21,2.17-7.81,3.02-10.37,6.36-20.65,10.07-30.8l.07.02Z"/>
      <path class="cls-1" d="M93.6,35.14c-.72.35-1.43.72-2.16,1.06-.78.28-1.53.63-2.33.84l-1.19.33c-.4.12-.81.15-1.22.23-.81.17-1.64.18-2.46.24l-1.24-.05c-.41,0-.82-.1-1.23-.14-.82-.12-1.63-.31-2.41-.58-1.57-.53-3.06-1.3-4.31-2.4h.11c-3.53,4.38-7.54,8.38-11.93,11.9-1.13.84-2.23,1.72-3.42,2.48-1.15.82-2.38,1.5-3.6,2.22-1.26.62-2.5,1.32-3.83,1.8-.66.25-1.3.56-1.99.73l-2.03.59.1-.09c-.61,1.9-1.31,3.76-2.07,5.6-.75,1.84-1.57,3.66-2.45,5.44-.43.9-.88,1.79-1.36,2.66-.48.87-.92,1.76-1.45,2.61-.98,1.73-2.07,3.4-3.19,5.05-.56.83-1.18,1.6-1.77,2.41-.58.81-1.22,1.57-1.88,2.32-.67.74-1.26,1.55-2,2.23l-2.13,2.11c-.75.66-1.54,1.27-2.3,1.91-.75.67-1.6,1.19-2.44,1.74-.85.53-1.64,1.15-2.57,1.54l-2.7,1.32.14-.22c.12,1.8.39,3.61.77,5.39.37,1.78.86,3.54,1.42,5.27l.93,2.57,1.08,2.51c.37.83.82,1.62,1.23,2.44.39.82.9,1.58,1.37,2.36.48.77.94,1.56,1.51,2.27l1.64,2.18,1.82,2.03c.58.71,1.28,1.29,1.94,1.91.68.6,1.31,1.27,2.04,1.81l2.18,1.64c1.45,1.11,3.09,1.92,4.63,2.89l.05.03.03.04c1.69,2.4,3.73,4.58,5.93,6.54,1.12.96,2.27,1.88,3.49,2.73.59.45,1.24.8,1.86,1.21.61.41,1.27.76,1.92,1.1.66.33,1.29.72,1.98.98l2.04.87,2.1.69c.7.25,1.42.41,2.14.56.72.14,1.44.34,2.17.44l2.2.25c1.47.19,2.95.07,4.42.12h.04s.02,0,.02,0c2.63.88,5.38,1.48,8.14,1.9,1.38.21,2.77.33,4.16.47,1.4.05,2.79.15,4.19.15,1.4-.05,2.79-.05,4.19-.15l4.17-.45,4.11-.81c1.37-.27,2.69-.76,4.03-1.13,1.36-.35,2.65-.89,3.93-1.44,1.27-.57,2.63-.98,3.82-1.72l3.68-2.01c1.21-.7,2.3-1.58,3.46-2.36,1.14-.8,2.32-1.57,3.32-2.55l3.14-2.78c1.09-.88,1.92-2.03,2.89-3.04l2.81-3.12h0s0-.01,0-.01c1.28-.86,2.48-1.85,3.64-2.87,1.14-1.04,2.26-2.12,3.3-3.26.52-.57,1.05-1.13,1.54-1.74.49-.6,1.01-1.17,1.46-1.8.95-1.22,1.84-2.48,2.69-3.78.45-.63.81-1.32,1.22-1.97.4-.66.81-1.32,1.15-2.01.73-1.36,1.43-2.74,2.03-4.17.67-1.39,1.16-2.87,1.71-4.31.29-.72.47-1.47.71-2.21l.67-2.22.09.16c-3.43-1.06-6.74-2.43-9.98-3.94-1.62-.76-3.21-1.59-4.8-2.4-1.55-.89-3.13-1.73-4.66-2.66l-4.52-2.89-4.36-3.13c-1.41-1.1-2.79-2.25-4.17-3.38-1.42-1.09-2.65-2.41-3.97-3.61l-1.95-1.84c-.63-.63-1.22-1.31-1.83-1.96-1.19-1.33-2.45-2.61-3.59-3.98l-3.31-4.23c-1.16-1.37-2.05-2.93-3.05-4.41-.94-1.52-2.04-2.94-2.86-4.54l-2.53-4.73c-.91-1.55-1.54-3.22-2.25-4.87l-2.07-4.9ZM93.68,35.02l2.13,4.96c.71,1.64,1.35,3.31,2.27,4.84l2.55,4.71c.82,1.59,1.93,3,2.87,4.51,1.01,1.47,1.91,3.02,3.07,4.38l3.32,4.2c1.15,1.36,2.41,2.63,3.6,3.95.61.65,1.2,1.32,1.83,1.95l1.96,1.82c1.33,1.19,2.56,2.49,3.98,3.57,1.39,1.11,2.75,2.27,4.15,3.37l4.34,3.13,4.5,2.9c1.52.93,3.09,1.78,4.63,2.67,1.58.82,3.16,1.65,4.77,2.41,3.23,1.52,6.53,2.89,9.93,3.96l.13.04-.04.12-.68,2.23c-.24.74-.42,1.49-.72,2.21-.56,1.45-1.06,2.92-1.74,4.32-.61,1.43-1.31,2.81-2.06,4.18-.35.7-.76,1.35-1.16,2.02-.41.66-.78,1.35-1.23,1.98-.86,1.3-1.75,2.56-2.71,3.78-.45.63-.99,1.2-1.48,1.8-.49.6-1.02,1.17-1.55,1.74-1.05,1.14-2.17,2.22-3.32,3.26-1.17,1.02-2.37,2.01-3.66,2.87h.02s-2.82,3.1-2.82,3.1c-.98,1-1.8,2.16-2.9,3.03l-3.14,2.79c-1,.98-2.18,1.75-3.32,2.57-1.16.79-2.26,1.67-3.46,2.38l-3.68,2.03c-1.2.74-2.55,1.16-3.82,1.74-1.29.55-2.58,1.1-3.94,1.46-1.35.38-2.67.88-4.04,1.15l-4.12.83-4.18.47c-1.4.1-2.8.11-4.2.16-1.4,0-2.8-.09-4.2-.14-1.39-.14-2.79-.25-4.18-.46-2.78-.41-5.53-1-8.2-1.88h.06c-1.49-.04-2.99.09-4.47-.1l-2.22-.24c-.74-.1-1.46-.3-2.19-.44-.73-.15-1.46-.3-2.16-.56l-2.13-.69-2.06-.87c-.7-.26-1.34-.65-2-.99-.66-.34-1.32-.69-1.94-1.1-.62-.41-1.28-.76-1.88-1.21-1.23-.85-2.39-1.77-3.53-2.74-2.24-1.97-4.29-4.15-6.02-6.6l.07.07c-1.56-.98-3.22-1.79-4.68-2.91l-2.21-1.65c-.74-.54-1.38-1.22-2.07-1.82-.67-.63-1.38-1.22-1.97-1.93l-1.85-2.05-1.66-2.2c-.58-.72-1.05-1.51-1.53-2.29-.48-.78-1-1.55-1.4-2.38-.41-.82-.88-1.62-1.25-2.46l-1.1-2.53-.93-2.6c-.55-1.76-1.05-3.53-1.41-5.33-.37-1.8-.64-3.62-.76-5.47v-.14s.14-.07.14-.07l2.66-1.29c.92-.38,1.7-.99,2.54-1.51.83-.54,1.67-1.05,2.41-1.71.76-.63,1.54-1.23,2.29-1.88l2.12-2.08c.73-.67,1.32-1.47,1.99-2.2.66-.74,1.3-1.49,1.88-2.3.59-.8,1.22-1.57,1.77-2.39,1.12-1.64,2.21-3.29,3.19-5.01.53-.84.98-1.73,1.45-2.59.48-.87.93-1.75,1.36-2.64,1.75-3.56,3.32-7.22,4.55-10.98l.02-.07.08-.02,2.02-.58c.68-.16,1.32-.47,1.97-.71,1.32-.47,2.55-1.15,3.81-1.77,1.21-.71,2.44-1.39,3.59-2.2,1.18-.75,2.29-1.62,3.41-2.46,4.4-3.49,8.41-7.47,11.95-11.83l.05-.06.06.05c1.22,1.08,2.7,1.86,4.25,2.38.77.27,1.57.46,2.38.59.41.04.81.14,1.22.14l1.23.05c.82-.06,1.64-.06,2.45-.23.4-.08.82-.1,1.21-.22l1.19-.32c.8-.21,1.54-.56,2.32-.83.75-.34,1.48-.72,2.22-1.08l.05-.03Z"/>
      <path class="cls-1" d="M124.15,76.59c-3.07-3.7-5.89-7.6-8.57-11.59-2.68-3.99-5.17-8.11-7.49-12.32-1.2-2.09-2.26-4.24-3.37-6.38-1.04-2.17-2.13-4.31-3.07-6.53-1.01-2.19-1.91-4.41-2.79-6.65-.92-2.22-1.65-4.52-2.49-6.77l.26.15c-2.05.33-4.11.4-6.16.31-1.03-.06-2.05-.15-3.07-.31-1.02-.14-2.03-.37-3.02-.65-1-.26-1.97-.61-2.92-1.01-.49-.17-.93-.44-1.4-.66-.46-.23-.93-.45-1.36-.74l-1.31-.83-1.21-.96c-.84-.61-1.49-1.43-2.24-2.13h.3c-5.21,4.72-10.71,9.11-16.51,13.05-1.45.99-2.93,1.94-4.43,2.85-1.5.92-3.02,1.78-4.58,2.59-.76.43-1.57.79-2.36,1.17-.79.38-1.58.76-2.41,1.06-.82.31-1.62.68-2.46.94l-2.52.77.06-.06c-1.68,4.34-3.5,8.62-5.42,12.85-1.92,4.23-3.94,8.42-6.12,12.53l-1.68,3.06c-.55,1.03-1.18,2.01-1.76,3.01-.59,1-1.19,2-1.85,2.96-.65.96-1.25,1.96-1.95,2.89l-2.09,2.8-2.3,2.63c-.79.86-1.71,1.59-2.56,2.4-.89.75-1.94,1.31-2.91,1.97l.09-.19c.8,3.02,1.95,5.96,3.25,8.8.67,1.42,1.36,2.82,2.15,4.18.37.69.78,1.36,1.2,2.02.42.66.82,1.34,1.29,1.96l1.37,1.91,1.49,1.81c.48.62,1.05,1.16,1.59,1.73.55.56,1.06,1.15,1.67,1.65l1.76,1.56c.61.49,1.25.94,1.88,1.41.62.48,1.26.93,1.95,1.3l2.02,1.2-.05.11-2.05-1.17c-.7-.37-1.36-.8-1.99-1.27-.64-.46-1.3-.9-1.92-1.38l-1.79-1.55c-.62-.5-1.14-1.09-1.69-1.65-.54-.57-1.12-1.11-1.61-1.73l-1.52-1.82-1.39-1.91c-.48-.63-.88-1.31-1.31-1.97-.43-.66-.85-1.33-1.22-2.02-.8-1.36-1.51-2.77-2.19-4.19-1.32-2.86-2.43-5.82-3.23-8.88l-.03-.11.12-.08c.95-.65,1.98-1.18,2.86-1.92.84-.79,1.75-1.51,2.54-2.35l2.3-2.6,2.1-2.77c.7-.92,1.31-1.92,1.96-2.87.66-.95,1.27-1.94,1.86-2.94.59-1,1.23-1.97,1.78-2.99l1.7-3.04c4.4-8.18,8.2-16.69,11.51-25.37l.02-.04.05-.02,2.5-.78c.83-.26,1.63-.64,2.44-.95.82-.31,1.6-.69,2.39-1.07.79-.38,1.59-.74,2.34-1.17,1.55-.82,3.06-1.69,4.55-2.61,1.49-.92,2.96-1.87,4.4-2.87,5.77-3.97,11.24-8.38,16.4-13.09l.14-.13.16.15c.74.68,1.38,1.49,2.2,2.08l1.19.94,1.29.8c.42.29.88.5,1.33.72.46.21.89.48,1.37.64.94.38,1.89.72,2.87.97.97.26,1.97.48,2.97.62,1,.17,2.01.26,3.02.32,2.02.1,4.07.04,6.05-.28l.19-.03.07.18c.82,2.25,1.54,4.54,2.45,6.76.87,2.23,1.76,4.46,2.76,6.65.93,2.21,2.01,4.35,3.04,6.52,1.1,2.13,2.15,4.29,3.34,6.38,2.29,4.22,4.78,8.32,7.41,12.34,2.63,4.02,5.39,7.95,8.42,11.68l-.06.05Z"/>
      <path class="cls-1" d="M15.43,84.84c2.8-2.67,5.52-5.42,8.15-8.25,2.64-2.83,5.21-5.71,7.63-8.73.62-.74,1.19-1.52,1.79-2.28.6-.76,1.18-1.53,1.74-2.32,1.15-1.55,2.23-3.15,3.29-4.76.54-.8,1.01-1.65,1.51-2.47.51-.82.99-1.66,1.42-2.52.43-.86.94-1.69,1.31-2.58l1.18-2.64.05-.1.1-.04c2.98-1.1,5.91-2.38,8.79-3.76,2.87-1.38,5.69-2.89,8.39-4.58,1.37-.81,2.67-1.75,3.98-2.65l1.9-1.45c.64-.48,1.21-1.04,1.82-1.55.62-.51,1.18-1.07,1.72-1.65.54-.58,1.14-1.12,1.6-1.77.48-.64,1.01-1.23,1.44-1.9l1.21-2.05.05-.08.08.05c3.04,1.87,6.34,3.36,9.81,4.26.87.19,1.74.41,2.63.52.88.16,1.78.18,2.67.24.89-.04,1.79-.01,2.66-.18.89-.08,1.74-.37,2.6-.6l.1-.02.04.08c2.52,6.07,5.23,12.07,8.15,17.96,1.44,2.95,2.92,5.89,4.52,8.76.79,1.44,1.62,2.86,2.48,4.26.84,1.41,1.75,2.78,2.68,4.13l-.1.07c-.97-1.33-1.92-2.68-2.8-4.07-.88-1.39-1.72-2.81-2.53-4.24-1.64-2.86-3.14-5.79-4.61-8.73-2.87-5.93-5.51-11.95-7.98-18.05l.13.06c-.88.22-1.74.51-2.64.58-.89.16-1.8.13-2.69.16-.9-.07-1.8-.1-2.68-.26-.89-.11-1.76-.34-2.64-.54-3.47-.94-6.8-2.36-9.87-4.23l.13-.03-1.21,2.08c-.42.68-.96,1.28-1.43,1.93-.46.66-1.06,1.2-1.6,1.8-.54.59-1.1,1.16-1.72,1.68-.61.52-1.18,1.09-1.81,1.58l-1.9,1.48c-1.31.92-2.6,1.87-3.97,2.7-2.7,1.72-5.52,3.26-8.39,4.67-2.88,1.41-5.8,2.72-8.8,3.85l.14-.14-1.19,2.66c-.38.9-.89,1.72-1.33,2.59-.44.87-.92,1.71-1.44,2.53-.51.82-.99,1.67-1.54,2.47-1.07,1.62-2.17,3.22-3.33,4.76-.56.79-1.16,1.55-1.76,2.31-.6.76-1.18,1.54-1.81,2.27-4.9,6-10.3,11.58-16.01,16.81l-.05-.05Z"/>
      <path class="cls-1" d="M128.5,79.72c1.1.78,2.15,1.65,3.32,2.33,1.12.75,2.32,1.39,3.51,2.02.59.33,1.21.59,1.82.9.61.29,1.22.59,1.84.84,1.24.54,2.5,1.03,3.77,1.48,5.1,1.78,10.4,3.03,15.75,3.64l.28.03-.06.26c-.72,3.3-1.77,6.5-2.98,9.64-.3.79-.61,1.57-.96,2.33-.34.77-.66,1.55-1.04,2.3-.71,1.52-1.52,3-2.36,4.45-.42.73-.9,1.42-1.35,2.13-.44.72-.94,1.39-1.46,2.06-.52.66-.98,1.37-1.57,1.97l-1.69,1.87-1.86,1.7c-.6.6-1.3,1.06-1.98,1.55-.69.48-1.34,1.02-2.1,1.39l-2.21,1.22.03-.03c-1.56,2.52-3.72,4.58-5.97,6.46-1.15.92-2.33,1.8-3.55,2.62-.6.43-1.24.79-1.86,1.18-.62.4-1.26.77-1.91,1.11-1.28.73-2.59,1.4-3.93,2-1.32.65-2.71,1.14-4.06,1.71-1.38.52-2.77.99-4.15,1.48l-4.23,1.22-.03-.11,4.18-1.36c1.37-.51,2.76-.99,4.12-1.53,1.34-.59,2.72-1.1,4.02-1.76,1.32-.63,2.64-1.25,3.92-1.97.65-.33,1.29-.69,1.91-1.08.62-.39,1.27-.74,1.87-1.15,1.23-.8,2.41-1.65,3.57-2.55,2.25-1.84,4.43-3.88,6-6.34v-.02s.03-.01.03-.01l2.21-1.19c.77-.35,1.4-.9,2.08-1.39.67-.5,1.37-.97,1.95-1.57l1.83-1.72,1.66-1.88c.58-.61,1.02-1.32,1.53-1.98.5-.67,1-1.34,1.42-2.06.44-.71.91-1.4,1.32-2.13.82-1.46,1.61-2.93,2.3-4.45.38-.75.68-1.53,1.01-2.29.34-.77.64-1.54.93-2.33,1.17-3.13,2.16-6.34,2.87-9.59l.22.29c-5.41-.67-10.71-1.97-15.82-3.8-1.28-.47-2.54-.96-3.78-1.52-.63-.26-1.24-.56-1.85-.86-.6-.31-1.23-.57-1.82-.92-1.18-.67-2.36-1.34-3.48-2.12-1.16-.71-2.18-1.61-3.27-2.42l.04-.06Z"/>
      <path class="cls-1" d="M101.17,143.33c-.91.84-1.99,1.48-3.11,2-.55.28-1.15.47-1.73.68-.58.21-1.2.32-1.8.49-1.22.25-2.45.4-3.69.45-.62.06-1.24,0-1.86,0-.62,0-1.24-.05-1.85-.14-.61-.08-1.24-.12-1.85-.24l-1.81-.41c-1.21-.26-2.37-.71-3.56-1.06-1.15-.45-2.3-.91-3.44-1.39l-3.32-1.64h.08c-1.97.49-3.99.63-6,.67-1.01,0-2.02-.03-3.02-.16-1-.1-2-.29-2.98-.55-.99-.24-1.93-.6-2.87-.98-.47-.19-.9-.46-1.36-.68-.46-.22-.88-.5-1.29-.81-.41-.3-.83-.59-1.22-.91l-1.1-1.04c-.77-.67-1.3-1.55-1.94-2.32l.1-.07c.7.72,1.29,1.53,2.05,2.19l1.11,1c.39.31.81.57,1.22.86.4.3.83.55,1.27.78.44.23.85.51,1.31.71.91.4,1.83.78,2.8,1.04.95.28,1.94.49,2.93.62.99.15,1.99.21,2.99.23,2,.02,4.01-.25,5.94-.75h.04s.04,0,.04,0l3.34,1.55c1.14.45,2.29.88,3.44,1.3,1.18.32,2.34.74,3.54.97,1.2.25,2.39.5,3.61.63.6.09,1.21.16,1.82.17.61,0,1.22.09,1.83.04,1.22-.03,2.44-.16,3.64-.38.59-.15,1.2-.25,1.77-.45.58-.19,1.16-.38,1.72-.62,1.13-.46,2.22-1.04,3.17-1.82l.05.05Z"/>
      <path class="cls-1" d="M25.01,91.77c.47,1.6.88,3.23,1.43,4.8.49,1.6,1.11,3.15,1.7,4.71.66,1.53,1.31,3.07,2.08,4.55.75,1.49,1.55,2.96,2.45,4.36.43.71.88,1.41,1.38,2.08.47.69.96,1.36,1.5,2,1.02,1.32,2.16,2.53,3.38,3.67.58.6,1.27,1.08,1.89,1.62.67.49,1.34.98,2.05,1.41.72.42,1.43.84,2.2,1.16.74.38,1.54.6,2.32.88l.07.03.03.06c.72,1.14,1.54,2.24,2.4,3.3.85,1.06,1.77,2.07,2.73,3.03.95.97,1.97,1.88,3.04,2.71.55.4,1.05.86,1.63,1.22l1.71,1.11,1.8.94c.59.33,1.25.52,1.87.78.62.28,1.27.47,1.93.61.66.14,1.3.4,1.98.44l2.01.22c.67.04,1.35-.03,2.02-.05l1.01-.04,1-.19,1.99-.39.1-.02.08.04c1.08.55,2.26.96,3.45,1.32,1.19.33,2.39.65,3.62.82,1.22.24,2.46.33,3.7.43,1.24.12,2.48.04,3.73.07,1.24-.04,2.48-.19,3.72-.28,1.24-.14,2.46-.4,3.69-.59,1.24-.17,2.42-.59,3.63-.87l1.81-.48,1.76-.63c1.17-.44,2.36-.79,3.51-1.29l3.41-1.54c1.15-.48,2.24-1.1,3.33-1.71l3.28-1.81c2.1-1.34,4.19-2.72,6.26-4.11l5.95-4.55h.01s.02-.02.02-.02c1.34-.6,2.59-1.43,3.77-2.32,1.19-.88,2.29-1.89,3.36-2.93,1.04-1.06,2.04-2.16,2.97-3.33.49-.56.9-1.18,1.35-1.78.44-.6.88-1.2,1.27-1.83l1.21-1.88,1.09-1.95c.77-1.28,1.34-2.66,2.02-3.98.34-.67.58-1.37.88-2.05l.85-2.07,1.47-4.22.05.09c-3.21-1.03-6.36-2.25-9.44-3.61-1.56-.65-3.07-1.39-4.59-2.12-1.54-.7-3-1.53-4.5-2.31-1.51-.76-2.94-1.65-4.4-2.5-1.47-.83-2.88-1.74-4.28-2.69-1.41-.93-2.83-1.83-4.16-2.88-1.34-1.03-2.73-1.99-4.02-3.07l-3.84-3.3c-1.27-1.11-2.4-2.38-3.6-3.56-.59-.61-1.2-1.19-1.76-1.82l-1.61-1.95c-1.04-1.33-2.23-2.54-3.14-3.97l-2.82-4.21c-.94-1.4-1.6-2.97-2.42-4.44l-1.16-2.25c-.36-.76-.61-1.57-.91-2.36l-1.76-4.74.11-.04,1.83,4.7c.32.78.58,1.58.95,2.33l1.18,2.23c.82,1.46,1.49,3.02,2.43,4.41l2.83,4.17c.91,1.41,2.11,2.61,3.15,3.93l1.61,1.93c.56.62,1.18,1.2,1.76,1.8,1.2,1.17,2.33,2.42,3.59,3.54l3.8,3.31c1.28,1.09,2.66,2.05,3.99,3.08,1.32,1.05,2.73,1.96,4.13,2.89,1.39.95,2.79,1.87,4.26,2.71,1.45.85,2.87,1.75,4.37,2.52,1.49.78,2.95,1.62,4.48,2.33,1.51.73,3.02,1.48,4.57,2.14,3.07,1.38,6.21,2.61,9.41,3.65l.07.02-.02.07-1.49,4.22c-.58,1.37-1.13,2.76-1.75,4.12-.67,1.33-1.24,2.72-2,4l-1.09,1.96-1.2,1.89c-.39.64-.83,1.24-1.27,1.84-.44.6-.86,1.22-1.35,1.79-.92,1.17-1.92,2.29-2.97,3.36-1.07,1.05-2.16,2.07-3.36,2.96-1.19.91-2.43,1.74-3.81,2.37l.03-.02-5.94,4.59c-1.02.72-2.08,1.39-3.12,2.09-1.05.68-2.08,1.4-3.14,2.06l-3.28,1.83c-1.09.61-2.18,1.24-3.33,1.73l-3.42,1.57c-1.15.51-2.35.87-3.52,1.32l-1.77.64-1.82.49c-1.22.29-2.41.72-3.65.89-1.24.2-2.47.47-3.72.62-1.25.1-2.5.25-3.76.3-1.26-.02-2.52.06-3.77-.05-1.25-.1-2.51-.18-3.75-.42-1.25-.17-2.47-.49-3.69-.82-1.21-.37-2.39-.78-3.54-1.38l.18.02-2.04.39-1.02.19-1.04.04c-.69,0-1.39.08-2.07.04l-2.06-.24c-.69-.04-1.35-.31-2.02-.45-.68-.15-1.34-.35-1.97-.64-.63-.27-1.3-.47-1.91-.81l-1.83-.97-1.73-1.13c-.59-.36-1.1-.83-1.65-1.24-1.08-.85-2.11-1.77-3.07-2.76-.97-.97-1.89-2-2.75-3.07-.87-1.07-1.68-2.17-2.41-3.35l.1.08c-.79-.29-1.61-.51-2.36-.9-.78-.33-1.5-.76-2.23-1.19-.72-.44-1.4-.94-2.07-1.44-.63-.55-1.33-1.04-1.91-1.65-1.22-1.15-2.37-2.38-3.4-3.71-.54-.65-1.03-1.32-1.5-2.02-.49-.68-.95-1.38-1.38-2.1-.9-1.42-1.68-2.9-2.42-4.4-.75-1.5-1.39-3.05-2.03-4.59-.58-1.57-1.18-3.13-1.66-4.74-.54-1.59-.93-3.21-1.38-4.82l.07-.02Z"/>
      <path class="cls-1" d="M90.51,45.04c-2.53.12-5.07.07-7.59-.27-1.26-.17-2.51-.39-3.73-.77-.61-.17-1.21-.4-1.79-.67-.59-.26-1.13-.6-1.66-.96l.17-.02c-3.05,3.77-6.35,7.34-9.87,10.67-1.78,1.65-3.64,3.22-5.62,4.63l-1.52,1.01-1.61.88c-.55.27-1.14.47-1.7.7-.58.19-1.21.27-1.81.41l.16-.11c-2.93,5.76-6.06,11.42-9.44,16.93-1.69,2.75-3.46,5.46-5.38,8.07-.96,1.31-1.97,2.57-3.03,3.8-.53.61-1.12,1.18-1.67,1.77-.58.57-1.23,1.07-1.85,1.61l.08-.22c.64,2.75,1.58,5.46,2.68,8.08.26.66.59,1.29.88,1.94.29.65.63,1.27.96,1.9.32.63.66,1.26,1.04,1.86.38.6.7,1.24,1.12,1.81l1.21,1.76,1.32,1.67c.42.57.92,1.08,1.4,1.6.5.5.94,1.07,1.49,1.52l1.59,1.42c.54.46,1.14.85,1.7,1.28.56.43,1.15.84,1.78,1.17l1.84,1.07h.03s.02.03.02.03c1.53,1.72,3.31,3.25,5.19,4.59.95.67,1.93,1.29,2.93,1.87,1.02.55,2.04,1.11,3.12,1.55,1.05.5,2.16.84,3.26,1.23,1.12.28,2.23.65,3.38.81,1.14.24,2.29.34,3.45.43,1.16.12,2.32.02,3.48.04h0c2.05.15,4.1.19,6.15.16,2.05-.01,4.1-.09,6.15-.23,2.05-.15,4.09-.31,6.12-.6,2.04-.24,4.05-.62,6.07-.98l3-.68c1.01-.2,1.98-.54,2.97-.8,1.99-.51,3.89-1.28,5.82-1.97l2.81-1.24c.95-.38,1.82-.93,2.72-1.41.89-.5,1.81-.95,2.63-1.57l2.53-1.73h.02s.02-.02.02-.02c2.41-1.22,4.64-2.86,6.69-4.65,1.03-.89,2.02-1.84,2.95-2.84.46-.51.95-.98,1.38-1.52l1.31-1.57c.81-1.1,1.67-2.16,2.39-3.33.78-1.13,1.47-2.3,2.14-3.5.72-1.17,1.26-2.43,1.9-3.64.58-1.24,1.09-2.51,1.64-3.77l.11.04c-.53,1.27-1.01,2.55-1.57,3.81-.62,1.22-1.13,2.51-1.84,3.69-.66,1.21-1.35,2.39-2.13,3.53-.72,1.17-1.58,2.25-2.39,3.36l-1.31,1.59c-.42.54-.92,1.02-1.38,1.54-.93,1.01-1.92,1.98-2.95,2.88-2.07,1.81-4.27,3.5-6.77,4.73l.04-.02-2.56,1.73c-.83.61-1.76,1.07-2.66,1.56-.91.47-1.79,1.03-2.75,1.4l-2.83,1.23c-1.94.68-3.86,1.44-5.86,1.94-.99.26-1.97.59-2.98.79l-3.01.66c-2.03.35-4.05.73-6.09.95-2.04.28-4.09.44-6.14.57-2.05.13-4.11.2-6.16.2-2.06.01-4.11-.05-6.16-.19h0c-1.16-.01-2.33.09-3.49-.02-1.16-.08-2.33-.18-3.47-.41-1.16-.15-2.27-.51-3.41-.79-1.1-.39-2.22-.72-3.28-1.21-1.08-.44-2.11-.99-3.14-1.54-1.02-.58-2-1.2-2.96-1.86-1.91-1.35-3.69-2.86-5.27-4.61l.04.03-1.87-1.07c-.64-.33-1.23-.74-1.8-1.17-.57-.43-1.18-.82-1.73-1.28l-1.61-1.43c-.56-.45-1-1.02-1.51-1.53-.49-.52-.99-1.03-1.42-1.61l-1.34-1.68-1.22-1.77c-.42-.58-.76-1.22-1.14-1.82-.38-.61-.73-1.23-1.06-1.87-.34-.63-.68-1.26-.98-1.91-.3-.65-.63-1.29-.89-1.95-1.13-2.63-2.08-5.34-2.75-8.14l-.03-.12.11-.1c.59-.53,1.23-1.01,1.79-1.58.55-.59,1.12-1.15,1.64-1.76,1.04-1.22,2.04-2.48,2.98-3.79,1.88-2.61,3.67-5.29,5.37-8.04,3.39-5.49,6.54-11.13,9.49-16.86l.04-.08.12-.03c.57-.14,1.16-.2,1.73-.39.55-.23,1.12-.41,1.66-.68l1.58-.86,1.51-.99c1.97-1.39,3.83-2.94,5.6-4.58,3.53-3.3,6.82-6.87,9.9-10.59l.07-.09.1.07c.51.35,1.03.69,1.61.95.57.26,1.15.5,1.75.68,1.2.39,2.44.63,3.69.81,2.5.36,5.04.45,7.56.36v.07Z"/>
      <path class="cls-1" d="M89.41,48.73c1.41,2.51,2.95,4.95,4.55,7.34,1.6,2.4,3.26,4.75,4.99,7.04.85,1.16,1.73,2.3,2.64,3.41.9,1.12,1.79,2.25,2.75,3.33.95,1.08,1.86,2.2,2.85,3.24l2.97,3.13c1.01,1.02,2.08,1.99,3.11,2.98,1.02,1.02,2.13,1.93,3.23,2.85,1.11.91,2.16,1.9,3.35,2.71l3.48,2.54,3.65,2.28c1.19.81,2.5,1.4,3.79,2.04,1.3.61,2.54,1.34,3.92,1.77l4.05,1.47.2.07-.08.18c-1.08,2.33-2.31,4.58-3.63,6.77-.66,1.1-1.37,2.16-2.09,3.22-.75,1.04-1.48,2.09-2.31,3.07-.78,1.01-1.68,1.94-2.54,2.88l-1.4,1.32c-.45.46-.99.81-1.49,1.22-.49.41-1.02.78-1.58,1.1-.56.32-1.07.72-1.68.94-.6.24-1.17.55-1.78.72l-1.87.45h.03c-3.08,1.84-6.31,3.4-9.61,4.82-1.66.68-3.33,1.34-5.03,1.91-1.7.58-3.41,1.12-5.15,1.56-1.73.48-3.49.84-5.25,1.17-.88.2-1.77.27-2.66.41-.89.12-1.78.27-2.68.31l-2.69.19c-.9.03-1.8,0-2.7,0-.9.02-1.8-.01-2.69-.11l-2.69-.23h.09c-1.74.49-3.52.72-5.31.81-1.79.08-3.58.03-5.35-.21-.88-.12-1.77-.26-2.64-.46-.87-.19-1.74-.4-2.59-.69-.86-.24-1.68-.59-2.52-.91-.83-.33-1.62-.74-2.43-1.1l.05-.11c.82.34,1.62.73,2.45,1.04.84.29,1.66.62,2.52.84.85.26,1.71.47,2.57.65.86.19,1.74.32,2.62.43,1.76.23,3.53.26,5.29.17,1.76-.1,3.53-.35,5.2-.85h.04s.05,0,.05,0l2.67.24c.89.11,1.78.14,2.67.13.89,0,1.79.03,2.68.02l2.67-.17c.89-.03,1.78-.17,2.66-.28.88-.13,1.78-.19,2.65-.38,1.76-.31,3.51-.67,5.24-1.13,1.74-.43,3.45-.95,5.15-1.52,1.7-.56,3.37-1.2,5.03-1.87,3.31-1.36,6.54-2.94,9.59-4.82h0s.02-.01.02-.01l1.85-.46c.61-.18,1.17-.49,1.76-.73.6-.22,1.11-.62,1.65-.94.55-.32,1.07-.68,1.55-1.1.49-.41,1.02-.76,1.46-1.22l1.38-1.32c.85-.95,1.73-1.87,2.5-2.88.82-.98,1.54-2.03,2.27-3.07.71-1.06,1.4-2.13,2.06-3.22,1.3-2.19,2.52-4.44,3.56-6.75l.12.25-4.09-1.45c-1.39-.42-2.65-1.14-3.96-1.75-1.3-.64-2.63-1.22-3.83-2.02l-3.7-2.27-3.49-2.57c-1.19-.82-2.24-1.82-3.35-2.74-1.1-.93-2.21-1.86-3.23-2.88-1.03-1.01-2.1-1.99-3.11-3.01l-2.96-3.16c-.99-1.05-1.89-2.18-2.84-3.26-.96-1.08-1.84-2.22-2.74-3.35-.9-1.12-1.79-2.26-2.63-3.43-1.73-2.31-3.37-4.68-4.92-7.11-1.57-2.42-3.06-4.89-4.44-7.42l.06-.04Z"/>
      <path class="cls-1" d="M56.26,115.66c-3.46.07-6.97-.51-10.19-1.88-.8-.35-1.58-.74-2.33-1.2-.39-.2-.73-.47-1.09-.72-.35-.26-.73-.49-1.04-.8l-.98-.87c-.31-.31-.59-.65-.88-.98-.62-.62-1.02-1.42-1.55-2.13h0s0-.03,0-.03c-.82-2.29-1.38-4.66-1.62-7.09-.11-1.21-.12-2.44.02-3.65.1-.6.16-1.22.35-1.8.13-.6.39-1.17.62-1.74l.02-.04.04-.04c2.26-1.89,4.41-3.94,6.46-6.07,2.06-2.13,4.01-4.35,5.79-6.72.46-.58.9-1.18,1.31-1.79.41-.62.86-1.21,1.24-1.84l1.15-1.9c.37-.64.67-1.32,1-1.98.35-.65.6-1.35.86-2.04.26-.69.55-1.37.71-2.1.16-.72.42-1.42.51-2.15l.26-2.19v-.07s.07-.03.07-.03c3.52-1.75,6.7-4.2,9.34-7.09.68-.71,1.29-1.48,1.88-2.26.31-.38.55-.81.83-1.21.28-.41.55-.82.77-1.26l.71-1.29.58-1.35c.44-.88.65-1.85.99-2.78l.11.03c-.3.94-.47,1.93-.88,2.84l-.56,1.38-.69,1.32c-.22.45-.49.87-.76,1.28-.28.41-.52.85-.83,1.24-.59.8-1.2,1.59-1.88,2.32-.65.75-1.38,1.43-2.12,2.1-.74.66-1.52,1.28-2.31,1.88-1.6,1.17-3.29,2.22-5.1,3.07l.07-.1-.29,2.22c-.1.74-.37,1.44-.54,2.16-.16.73-.47,1.41-.74,2.1-.27.69-.54,1.39-.9,2.04-.64,1.34-1.36,2.64-2.13,3.91-.37.64-.81,1.24-1.22,1.86-.4.62-.83,1.23-1.28,1.82-1.75,2.4-3.68,4.66-5.72,6.82-2.04,2.16-4.16,4.24-6.42,6.18l.06-.07c-.21.55-.45,1.09-.57,1.67-.17.56-.23,1.16-.31,1.74-.12,1.18-.08,2.37,0,3.56.21,2.37.74,4.73,1.52,6.98v-.03c.49.69.87,1.47,1.47,2.08.28.32.55.65.85.96l.95.86c.3.3.67.53,1.01.79.35.25.68.52,1.06.72.73.46,1.49.85,2.28,1.2,1.58.68,3.23,1.19,4.92,1.55,1.69.34,3.41.55,5.14.55v.07Z"/>
      <path class="cls-1" d="M87.59,55.04c-1.48.97-3.18,1.61-4.93,1.86-1.75.28-3.57.1-5.26-.45l.13-.05c-1.82,2.84-3.88,5.53-6.28,7.92-1.2,1.19-2.46,2.33-3.87,3.27-.69.48-1.44.91-2.21,1.27-.76.38-1.59.62-2.42.84l.12-.09c-2.26,4.29-4.71,8.47-7.39,12.52-.67,1.01-1.36,2.01-2.08,2.99-.71.99-1.45,1.95-2.22,2.89-.76.95-1.59,1.84-2.44,2.71l-1.36,1.23c-.48.39-1.01.72-1.51,1.07l.11-.28c.59,1.99,1.42,3.94,2.38,5.8.47.93,1.02,1.83,1.59,2.71.58.87,1.21,1.71,1.89,2.5.32.42.72.75,1.08,1.13.35.38.75.73,1.16,1.04.42.31.79.69,1.25.93l1.34.8,1.44.6c.47.24,1,.28,1.5.42.51.12,1.01.25,1.53.24l1.56.08h.09s.05.06.05.06c1.02,1.16,2.21,2.21,3.47,3.12.64.45,1.3.87,1.97,1.27.69.37,1.37.75,2.1,1.04.71.34,1.46.56,2.2.82.76.19,1.51.43,2.28.54.77.16,1.55.22,2.33.28.78.07,1.56,0,2.35.01h.02s0,0,0,0c2.35.33,4.74.4,7.12.31,1.19-.05,2.38-.13,3.56-.3,1.18-.13,2.35-.38,3.51-.62l1.72-.47c.58-.14,1.13-.38,1.69-.57.56-.19,1.12-.41,1.65-.68.53-.26,1.09-.49,1.6-.79l1.52-.93c.52-.29.95-.71,1.43-1.06.47-.36.94-.72,1.34-1.17l1.25-1.27.03-.03h.04c.81-.04,1.63-.31,2.39-.65.76-.35,1.49-.76,2.16-1.25.34-.25.69-.48,1-.76.31-.28.65-.52.95-.82.61-.57,1.19-1.17,1.74-1.81,1.11-1.26,2.08-2.63,2.99-4.04.9-1.42,1.71-2.89,2.48-4.38l.12.22c-3.12-.46-6.13-1.43-8.99-2.73-1.43-.64-2.8-1.41-4.15-2.22l-1.95-1.33c-.65-.44-1.23-.97-1.85-1.45-.63-.47-1.2-1.01-1.76-1.56-.55-.56-1.17-1.05-1.66-1.66l-1.54-1.78c-.52-.59-.93-1.26-1.4-1.89-.44-.65-.94-1.26-1.3-1.96l-1.15-2.05c-.42-.67-.67-1.41-1-2.12l-.94-2.15.11-.04.98,2.12c.34.7.61,1.43,1.04,2.09l1.18,2.01c.36.69.86,1.29,1.31,1.93.47.62.88,1.29,1.4,1.87l1.54,1.75c.49.6,1.11,1.09,1.66,1.64.56.54,1.13,1.07,1.75,1.54.62.47,1.2.99,1.84,1.42l1.93,1.3c1.34.78,2.7,1.54,4.11,2.2,2.81,1.3,5.81,2.29,8.86,2.76l.22.03-.1.19c-.79,1.49-1.62,2.96-2.53,4.38-.93,1.41-1.92,2.78-3.04,4.04-.55.64-1.14,1.24-1.77,1.82-.3.3-.64.55-.96.83-.32.28-.67.52-1.01.76-.69.49-1.43.9-2.21,1.26-.78.33-1.59.6-2.47.64l.07-.03-1.27,1.27c-.4.45-.88.81-1.36,1.17-.48.35-.92.77-1.45,1.06l-1.54.92c-.52.3-1.08.52-1.61.78-.53.27-1.09.48-1.66.68-.57.19-1.11.44-1.69.58l-1.73.48c-1.17.24-2.34.5-3.52.64-1.18.18-2.37.27-3.57.32-2.39.1-4.78.05-7.16-.26h.02c-.79,0-1.58.07-2.37,0-.79-.05-1.58-.11-2.36-.27-.79-.1-1.55-.34-2.32-.53-.75-.26-1.51-.48-2.23-.82-.74-.3-1.44-.67-2.13-1.04-.69-.39-1.36-.81-2.01-1.27-1.29-.92-2.5-1.96-3.56-3.16l.14.06-1.6-.08c-.54.01-1.06-.12-1.58-.24-.51-.14-1.06-.18-1.54-.42l-1.49-.61-1.38-.82c-.48-.25-.86-.63-1.29-.95-.43-.32-.83-.67-1.2-1.06-.37-.39-.78-.73-1.11-1.15-.71-.8-1.35-1.65-1.94-2.53-.58-.89-1.14-1.79-1.63-2.74-.99-1.88-1.83-3.83-2.45-5.88l-.05-.16.16-.12c.48-.35.98-.66,1.45-1.03l1.34-1.19c.84-.85,1.66-1.73,2.42-2.67.77-.93,1.51-1.88,2.22-2.85.72-.97,1.4-1.96,2.08-2.96,2.68-4.01,5.15-8.18,7.43-12.44l.04-.07.09-.02c.8-.21,1.59-.43,2.34-.81.75-.34,1.48-.76,2.16-1.23,1.4-.92,2.65-2.04,3.84-3.21,2.38-2.36,4.45-5.02,6.31-7.81l.05-.07.08.03c1.65.56,3.43.76,5.17.51,1.73-.23,3.43-.84,4.91-1.78l.04.06Z"/>
      <path class="cls-1" d="M101.52,66.69l2.81,4.74,1.52,2.29c.52.76.99,1.54,1.57,2.26l1.67,2.18c.54.75,1.17,1.41,1.77,2.1.61.68,1.19,1.4,1.84,2.04l1.93,1.95c.62.67,1.35,1.24,2.02,1.86.67.63,1.37,1.21,2.11,1.76.73.56,1.43,1.15,2.2,1.64.77.5,1.5,1.06,2.3,1.5,1.57.94,3.18,1.83,4.87,2.54.83.38,1.7.69,2.57.98.87.29,1.76.54,2.66.68h.06s-.01.07-.01.07c-.65,3.69-1.77,7.29-3.3,10.72-.77,1.71-1.74,3.34-2.83,4.87-.58.74-1.14,1.5-1.81,2.17-.61.72-1.38,1.28-2.08,1.89l-.07-.09c.67-.65,1.37-1.27,1.96-1.99.64-.67,1.18-1.43,1.74-2.17.5-.78,1.04-1.54,1.47-2.37.47-.8.89-1.63,1.31-2.46,1.59-3.36,2.78-6.93,3.49-10.59l.05.07c-1.81-.37-3.57-.92-5.28-1.62-1.72-.68-3.35-1.54-4.95-2.46-.82-.43-1.56-.98-2.34-1.47-.79-.48-1.51-1.06-2.25-1.61-.75-.54-1.47-1.12-2.15-1.74-.69-.62-1.43-1.18-2.07-1.84l-1.96-1.96c-.65-.66-1.21-1.39-1.82-2.08-.59-.71-1.22-1.38-1.75-2.14l-1.65-2.22c-.57-.72-1.04-1.52-1.55-2.29l-1.5-2.32c-.9-1.6-1.75-3.23-2.63-4.85l.06-.04Z"/>
      <path class="cls-1" d="M129.62,95.45c-.4,2.11-.96,4.2-1.72,6.22-.75,2.02-1.66,3.99-2.8,5.83-.27.47-.56.92-.9,1.35-.33.43-.61.9-.99,1.29l-1.1,1.2-1.26,1.05c-.4.38-.91.6-1.37.9l-.7.42-.76.3c-.52.17-1,.46-1.55.51l-1.61.29.1-.05c-1.8,1.72-3.79,3.2-5.86,4.55-1.03.68-2.11,1.29-3.16,1.93-1.08.59-2.16,1.2-3.29,1.71-1.1.56-2.26,1-3.4,1.48-1.17.41-2.32.86-3.52,1.17-1.19.35-2.41.58-3.63.81-1.21.26-2.46.32-3.68.46v-.12c1.2-.24,2.42-.37,3.63-.64,1.2-.26,2.4-.52,3.58-.89,1.2-.28,2.35-.7,3.52-1.08,1.14-.45,2.31-.85,3.42-1.38,2.25-1,4.44-2.16,6.46-3.58,2.03-1.39,3.98-2.92,5.71-4.65l.04-.03h.07s1.55-.33,1.55-.33c.53-.06.99-.35,1.49-.52l.73-.3.67-.42c.43-.3.92-.52,1.3-.9l1.19-1.04,1.08-1.17c.37-.38.66-.83.99-1.25.33-.41.63-.86.9-1.31,1.16-1.79,2.09-3.72,2.87-5.72.76-2,1.46-4.03,1.95-6.12h.07Z"/>
      <path class="cls-1" d="M57.75,114.23c.88,1.77,2.33,3.15,3.82,4.41.75.62,1.56,1.18,2.39,1.69.84.51,1.7.97,2.59,1.36.89.41,1.8.76,2.74,1.04.47.13.93.31,1.41.4l1.42.34c.96.16,1.92.36,2.9.42.97.13,1.95.09,2.93.13h.02s0,0,0,0c2.52.24,5.08.22,7.62.03,2.54-.18,5.06-.63,7.51-1.33,1.22-.36,2.43-.75,3.6-1.25.6-.21,1.17-.49,1.74-.78.56-.29,1.16-.52,1.69-.87l1.65-.95c.55-.32,1.04-.72,1.56-1.08,1.07-.69,1.94-1.62,2.94-2.42l.09.08-1.36,1.35c-.45.46-.96.85-1.48,1.23-.52.37-1.01.8-1.56,1.13l-1.65.99c-.55.34-1.16.55-1.73.83-.58.27-1.16.54-1.78.74-1.2.47-2.42.83-3.66,1.17-.61.18-1.25.28-1.87.43-.62.15-1.25.25-1.88.35-1.26.24-2.52.41-3.79.54-2.55.25-5.11.34-7.67.15h.02c-.99-.01-1.99.04-2.98-.07-.99-.04-1.97-.22-2.96-.36-.97-.21-1.94-.44-2.88-.77-.95-.3-1.87-.68-2.77-1.11-.9-.42-1.77-.9-2.61-1.43-.84-.53-1.65-1.11-2.4-1.76-1.51-1.27-2.88-2.8-3.68-4.61l.07-.03Z"/>
      <path class="cls-1" d="M61.28,110.69c1.16,1.23,2.48,2.31,3.81,3.34,1.35,1.02,2.77,1.94,4.28,2.69.77.34,1.53.71,2.33.96.78.3,1.61.45,2.42.64l1.24.16c.41.08.83.04,1.25.05.84.06,1.66-.13,2.49-.22h.05s.02,0,.02,0c2.54.23,5.12.22,7.68.06,1.28-.07,2.56-.21,3.83-.39,1.28-.15,2.52-.48,3.77-.77,1.23-.37,2.47-.69,3.66-1.18,1.21-.41,2.34-1.02,3.5-1.57.54-.34,1.1-.65,1.65-.97.57-.29,1.06-.71,1.58-1.07.51-.38,1.05-.73,1.49-1.19l1.43-1.28.09.08-1.34,1.4c-.44.48-.97.85-1.48,1.25-.52.38-1.01.82-1.58,1.13-.55.34-1.11.67-1.67.99-1.18.52-2.34,1.11-3.58,1.49-1.21.46-2.47.76-3.71,1.09-1.26.28-2.52.51-3.8.72-1.27.22-2.55.38-3.83.49-2.57.22-5.15.3-7.74.12h.06c-.85.11-1.7.33-2.57.29-.43,0-.87.05-1.29-.03l-1.29-.16c-.84-.21-1.68-.38-2.48-.7-.82-.26-1.59-.66-2.36-1.02-3.03-1.6-5.74-3.76-7.97-6.33l.06-.05Z"/>
      <path class="cls-1" d="M111.81,93.94c-.23,1.34-.67,2.64-1.23,3.87-.29.61-.61,1.22-.98,1.79-.36.57-.77,1.12-1.23,1.62-.44.52-.96.97-1.48,1.4-.26.22-.56.39-.84.58-.28.2-.57.37-.88.51-.6.33-1.24.56-1.89.76-.64.23-1.33.29-1.99.44h.02c-3.28,1.85-6.65,3.53-10.14,4.94-1.74.71-3.52,1.34-5.35,1.83-.91.26-1.84.44-2.77.6l-1.41.16h-1.42s.01,0,.01,0c-2.68-.03-5.24-1-7.48-2.38-.54-.38-1.11-.73-1.6-1.16-.52-.4-1.01-.86-1.48-1.32-.95-.92-1.76-1.97-2.54-3.04l.05.05c-2.91-1.32-5.71-2.89-8.3-4.78-.65-.47-1.27-.97-1.87-1.5-.31-.25-.59-.55-.88-.82-.29-.28-.57-.56-.82-.88-.25-.32-.55-.59-.75-.94-.22-.34-.46-.67-.65-1.02l-.5-1.11-.28-1.2-.02-.08.08-.06c3-2.56,5.86-5.32,8.48-8.27,1.3-1.48,2.52-3.04,3.6-4.68l.76-1.26.64-1.32c.19-.45.32-.92.48-1.37.12-.47.15-.95.23-1.42l.02-.14.1-.04c2.25-.96,4.44-2.13,6.41-3.59.98-.73,1.92-1.52,2.7-2.45.21-.22.39-.46.56-.71.17-.25.37-.48.49-.76.31-.52.5-1.08.67-1.65l.1-.32.27.2c1.05.77,2.46,1.24,3.72.87.62-.19,1.2-.53,1.67-1,.48-.46.86-1.03,1.2-1.61l.21-.35.21.35c1.17,1.92,2.45,3.79,3.8,5.61,1.33,1.83,2.75,3.6,4.22,5.32.71.88,1.49,1.7,2.25,2.54.75.85,1.54,1.66,2.35,2.45.8.8,1.58,1.62,2.44,2.35.85.75,1.67,1.53,2.53,2.26l2.65,2.12c.88.72,1.84,1.31,2.76,1.97.92.67,1.86,1.28,2.86,1.82.98.55,1.93,1.18,2.95,1.67l3.07,1.45c1.01.52,2.11.79,3.17,1.2,1.06.39,2.12.78,3.24.99l3.3.77.18.04-.03.17c-.21,1.05-.51,2.06-.86,3.06-.34,1-.74,1.98-1.2,2.93-.46.95-.95,1.89-1.55,2.77-.29.45-.57.89-.91,1.3-.34.41-.63.86-1,1.23l-1.1,1.15-1.22,1.03c-.39.37-.86.61-1.3.91-.45.29-.88.59-1.38.79l-1.45.67-1.52.46c-1.01.35-2.09.36-3.13.56l.09-.04c-1.07,1.01-2.25,1.87-3.46,2.68-1.22.81-2.48,1.54-3.78,2.2-1.3.66-2.62,1.28-3.98,1.8-1.34.57-2.74.99-4.12,1.45-1.41.37-2.8.8-4.24,1.06-1.42.33-2.86.54-4.3.74-1.44.24-2.9.28-4.34.43-1.45.08-2.91.09-4.36.13h0s-.01,0-.01,0c-3.56-.87-7.06-2-10.44-3.43-1.68-.73-3.32-1.57-4.86-2.58l-1.12-.81-1.02-.92c-.31-.33-.59-.71-.89-1.06-.25-.39-.43-.82-.65-1.22l.03.03c-2.19-.73-4.26-1.75-6.21-2.96-.5-.28-.95-.64-1.43-.96-.48-.31-.92-.69-1.37-1.05-.46-.35-.89-.73-1.3-1.14-.41-.4-.85-.77-1.22-1.22-.38-.44-.77-.85-1.13-1.3l-1.01-1.4c-.35-.46-.58-.99-.87-1.49-.29-.5-.56-1.01-.75-1.55-.21-.54-.44-1.06-.64-1.61l-.44-1.67c-.33-1.11-.34-2.28-.52-3.41l.09.08c-.21-.15-.05-.14-.08-.18l.04-.06.08-.1.16-.2.32-.38.66-.75,1.31-1.49,2.59-3c1.71-2.02,3.36-4.08,4.93-6.21,1.56-2.13,3.04-4.33,4.32-6.64,1.25-2.31,2.39-4.75,2.7-7.36v-.11s.12-.02.12-.02c.96-.16,1.91-.49,2.82-.86.92-.37,1.79-.84,2.65-1.34.85-.51,1.67-1.07,2.44-1.69.4-.3.78-.61,1.14-.95.36-.34.75-.64,1.09-1.01.69-.71,1.38-1.42,2-2.2.66-.74,1.21-1.57,1.8-2.37.58-.81,1.06-1.68,1.6-2.51l1.4-2.63.14-.26.18.23c.64.83,1.48,1.56,2.41,2.06.47.25.97.45,1.48.6.51.15,1.04.21,1.57.24.53-.02,1.07-.01,1.59-.14.26-.06.53-.08.78-.18l.76-.26c.51-.18.97-.45,1.46-.67l1.37-.86.24-.15.05.28c.37,2.03,1,4.03,1.68,5.98.39.96.73,1.95,1.17,2.89.45.94.83,1.91,1.34,2.82.5.91.93,1.86,1.5,2.73.55.88,1.05,1.79,1.65,2.65l1.8,2.55,1.97,2.42c.63.83,1.4,1.54,2.1,2.31.72.75,1.41,1.53,2.22,2.2l2.33,2.08c.8.66,1.65,1.26,2.48,1.9.83.63,1.65,1.28,2.55,1.8l2.65,1.66c.86.59,1.83.99,2.75,1.49l2.78,1.43-.05.11-2.79-1.42c-.92-.5-1.89-.89-2.76-1.48l-2.66-1.65c-.91-.52-1.73-1.17-2.57-1.79-.83-.63-1.69-1.23-2.5-1.89l-2.35-2.07c-.81-.67-1.51-1.45-2.24-2.19-.71-.76-1.48-1.47-2.12-2.3l-1.99-2.42-1.82-2.55c-.6-.85-1.11-1.77-1.67-2.65-.58-.87-1.01-1.83-1.52-2.74-.52-.91-.91-1.88-1.36-2.83-.44-.95-.79-1.94-1.19-2.9-.7-1.97-1.34-3.97-1.73-6.04l.3.12-1.4.89c-.5.23-.99.52-1.51.7l-.79.27c-.26.11-.55.12-.82.19-.55.13-1.11.13-1.67.15-.56-.04-1.12-.11-1.66-.26-.54-.15-1.06-.37-1.56-.63-.99-.54-1.85-1.27-2.54-2.18l.32-.02-1.42,2.65c-.54.84-1.04,1.72-1.62,2.53-.6.81-1.15,1.64-1.82,2.39-.63.78-1.32,1.5-2.03,2.22-.34.37-.74.68-1.11,1.02-.37.34-.75.66-1.16.96-.78.63-1.62,1.19-2.48,1.7-.86.51-1.75.98-2.69,1.35-.93.38-1.88.7-2.89.87l.12-.13c-.33,2.68-1.49,5.13-2.75,7.45-1.29,2.32-2.78,4.52-4.36,6.65-1.58,2.13-3.24,4.19-4.96,6.21l-2.61,3-1.32,1.48-.66.74-.32.38-.15.19-.07.1c-.06,0,.04.14-.11-.03l.09.08c.18,1.13.18,2.29.51,3.39l.43,1.66c.19.54.42,1.06.63,1.59.19.54.45,1.05.74,1.54.29.49.52,1.02.86,1.48l.99,1.4c.35.45.75.87,1.12,1.3.36.45.8.82,1.21,1.22.41.4.83.79,1.29,1.13.45.36.88.74,1.36,1.05.48.32.92.68,1.42.96,1.94,1.21,4.01,2.25,6.18,2.96h.02s.01.03.01.03c.22.4.4.82.64,1.2.29.35.56.71.88,1.04l1.02.91,1.11.8c1.53,1,3.16,1.83,4.84,2.55,3.37,1.42,6.87,2.53,10.43,3.39h-.02c1.45-.05,2.9-.06,4.35-.15,1.44-.15,2.9-.2,4.33-.44,1.44-.2,2.87-.42,4.29-.75,1.43-.26,2.82-.69,4.22-1.06,1.38-.46,2.76-.89,4.1-1.45,1.35-.52,2.67-1.14,3.95-1.8,2.56-1.34,5.05-2.9,7.16-4.86l.03-.03h.06c1.02-.21,2.08-.22,3.07-.57l1.5-.45,1.42-.66c.49-.19.91-.49,1.35-.78.43-.29.9-.54,1.28-.9l1.19-1.01,1.07-1.14c.37-.37.65-.81.98-1.22.33-.4.61-.84.89-1.28.58-.86,1.07-1.8,1.52-2.73.45-.94.85-1.91,1.18-2.9.34-.98.63-2,.83-3.01l.15.21-3.33-.77c-1.12-.21-2.19-.6-3.27-.99-1.06-.41-2.18-.69-3.2-1.2l-3.09-1.45c-1.02-.5-1.98-1.12-2.97-1.68-1-.55-1.96-1.16-2.88-1.83-.93-.66-1.9-1.26-2.78-1.97l-2.67-2.12c-.87-.73-1.7-1.51-2.55-2.26-.87-.74-1.65-1.56-2.46-2.36-.82-.79-1.61-1.6-2.37-2.45-.77-.84-1.55-1.66-2.27-2.54-1.48-1.72-2.91-3.5-4.25-5.33-1.36-1.82-2.64-3.7-3.82-5.66h.42c-.37.61-.77,1.21-1.3,1.71-.51.52-1.17.9-1.88,1.11-1.46.41-2.97-.11-4.13-.97l.37-.13c-.19.62-.39,1.22-.73,1.77-.13.29-.34.53-.52.8-.18.26-.37.51-.59.74-.81.96-1.78,1.78-2.78,2.51-2.02,1.48-4.22,2.65-6.52,3.62l.13-.18c-.08.5-.12,1.02-.25,1.51-.17.47-.31.97-.5,1.43l-.66,1.35-.78,1.28c-1.1,1.67-2.34,3.23-3.65,4.72-2.65,2.96-5.51,5.71-8.54,8.28l.06-.14.26,1.13.48,1.07c.18.34.42.66.63.99.2.34.49.61.73.92.24.31.52.59.81.87.28.27.55.57.86.82.59.53,1.21,1.02,1.85,1.49,2.56,1.88,5.34,3.45,8.23,4.78l.03.02.02.03c.76,1.06,1.57,2.09,2.5,3.01.46.46.94.91,1.45,1.31.49.43,1.05.78,1.58,1.15,2.2,1.37,4.75,2.33,7.35,2.37h0s0,0,0,0h1.4s1.39-.16,1.39-.16c.92-.16,1.84-.33,2.75-.58,1.81-.48,3.59-1.1,5.33-1.8,3.49-1.4,6.87-3.07,10.14-4.91h0s.02,0,.02,0c.66-.15,1.34-.2,1.97-.43.65-.2,1.28-.42,1.87-.75.31-.14.6-.3.88-.5.28-.19.57-.36.83-.57.52-.43,1.03-.87,1.47-1.39.45-.5.87-1.04,1.23-1.61.37-.56.69-1.16.98-1.77.57-1.23,1-2.52,1.24-3.85h.07Z"/>
      <path class="cls-1" d="M84.09,68.8c-1.41.85-2.98,1.6-4.7,1.59l.06-.02c-1.49,1.07-3.01,2.09-4.57,3.05-1.56.96-3.14,1.9-4.84,2.63l.1-.09c-1.46,3.02-3.07,5.96-4.88,8.79-.93,1.4-1.88,2.79-3,4.06-.58.62-1.16,1.24-1.84,1.77-.31.3-.71.49-1.07.72-.35.25-.83.31-1.24.46l.16-.31c1.25,2.35,2.92,4.54,5.03,6.2.54.39,1.08.79,1.68,1.08.58.34,1.21.55,1.84.77l.98.22c.32.09.66.06.99.1.67.1,1.33-.07,1.99-.11h.1s.03.08.03.08c.86,2.1,2.15,4.05,3.8,5.62.42.39.86.75,1.33,1.08.46.33.96.62,1.47.86.51.25,1.05.45,1.6.59.54.19,1.12.2,1.68.31h-.01c3.12-.42,6.22-1.07,9.24-1.96,3-.91,5.98-2.05,8.53-3.85h.01s.01-.02.01-.02c1.98-1.07,3.88-2.31,5.58-3.79.84-.75,1.66-1.53,2.33-2.43.34-.44.68-.9.94-1.39.29-.48.48-1.01.68-1.54l.11.03c-.17.55-.35,1.09-.62,1.6-.25.52-.57,1-.9,1.46-.68.93-1.5,1.74-2.34,2.5-1.71,1.52-3.6,2.81-5.61,3.91l.03-.02c-2.64,1.81-5.66,2.91-8.69,3.78-3.05.85-6.16,1.46-9.29,1.84h0s0,0,0,0c-.56-.12-1.15-.13-1.7-.34-.56-.14-1.09-.36-1.62-.6-.52-.24-1.03-.53-1.5-.85-.48-.32-.93-.68-1.36-1.07-1.69-1.57-3.02-3.51-3.93-5.65l.13.08c-.68.05-1.36.23-2.05.14-.34-.03-.69,0-1.03-.09l-1.01-.21c-.65-.22-1.31-.43-1.91-.77-.62-.29-1.18-.7-1.74-1.09-2.18-1.68-3.89-3.87-5.21-6.28l-.11-.2.27-.12c.36-.16.76-.18,1.09-.43.34-.22.7-.4,1-.69.64-.51,1.2-1.12,1.75-1.73,1.09-1.25,2.06-2.61,2.98-3.99,1.83-2.79,3.46-5.71,4.94-8.7l.03-.06.06-.03c1.67-.69,3.26-1.62,4.82-2.56,1.56-.95,3.09-1.94,4.61-2.96l.03-.02h.03c1.64.06,3.23-.64,4.65-1.45l.04.06Z"/>
      <path class="cls-1" d="M83.48,71.69l.84,1.68c.29.55.66,1.06.98,1.59.31.54.72,1.02,1.09,1.52.37.5.75,1,1.17,1.46.8.96,1.67,1.86,2.53,2.76.89.88,1.77,1.76,2.71,2.59,3.71,3.35,7.74,6.35,11.94,9.05l.18.11-.11.17c-1.04,1.7-2.25,3.28-3.67,4.68-1.42,1.38-3.1,2.63-5.13,3.04l.08-.03c-2.27,1.26-4.65,2.27-7.12,3.01-2.47.72-5.08,1.15-7.68.79h-.02s-.02-.01-.02-.01c-1.7-.72-3.3-1.64-4.78-2.71-1.48-1.08-2.83-2.36-3.9-3.87l.06.05c-1.77-.74-3.41-1.75-4.9-2.94-1.5-1.18-2.8-2.61-3.86-4.19l-.04-.06.06-.04c2.15-1.49,4.16-3.2,5.88-5.17.44-.49.83-1.01,1.22-1.53.36-.54.74-1.08,1.01-1.67.15-.29.3-.58.4-.89.09-.31.25-.6.3-.92.05-.32.14-.63.16-.95v-.96s0-.09,0-.09l.08-.02c1.38-.39,2.74-.95,3.97-1.7,1.22-.74,2.34-1.74,2.86-3.06l.05-.14.14.05,3.02,1.05.06.02.03.06c1.87,3.35,4.19,6.47,6.8,9.29,1.3,1.42,2.72,2.73,4.21,3.94.75.61,1.51,1.19,2.31,1.74.77.58,1.62,1.04,2.43,1.56l-.06.1c-.83-.5-1.7-.93-2.49-1.49-.82-.52-1.61-1.08-2.36-1.7-1.52-1.2-2.96-2.51-4.29-3.92-2.68-2.8-5.02-5.93-6.86-9.37l.09.08-3.01-1.08.19-.09c-.58,1.42-1.76,2.43-3.01,3.17-1.26.75-2.63,1.3-4.05,1.68l.08-.11v1c-.03.33-.12.65-.18.98-.05.33-.21.63-.31.94-.1.32-.26.61-.41.9-.28.6-.67,1.14-1.04,1.68-.4.53-.8,1.05-1.24,1.53-1.76,1.95-3.76,3.67-5.9,5.19l.02-.09c2.14,3.12,5.27,5.53,8.73,6.97l.04.02.02.03c2.14,2.93,5.3,4.99,8.6,6.4h-.04c2.52.31,5.07-.13,7.51-.85,2.43-.75,4.79-1.78,6.99-3.03l.04-.02h.04c1.86-.41,3.5-1.56,4.89-2.91,1.39-1.35,2.6-2.91,3.63-4.56l.07.29c-4.21-2.75-8.22-5.78-11.93-9.18-1.84-1.7-3.64-3.47-5.2-5.44-.41-.47-.78-.98-1.15-1.49-.36-.51-.76-1-1.06-1.55-.32-.54-.68-1.06-.96-1.62l-.8-1.7.07-.03Z"/>
      <path class="cls-1" d="M76.06,80.57c-.11.48-.16.96-.32,1.43-.14.47-.3.94-.51,1.39-.4.9-.95,1.74-1.6,2.48-1.3,1.5-2.91,2.69-4.74,3.5l.11-.3c.68,1.17,1.58,2.22,2.52,3.21.93,1,1.92,1.96,2.95,2.86h.01s.01.03.01.03c1.15,1.28,2.59,2.35,4.16,3.12.79.38,1.61.68,2.46.9.85.19,1.73.39,2.58.61,1.7.47,3.5.55,5.22.12,1.71-.41,3.34-1.12,4.88-1.95h.02s.03-.02.03-.02c.83-.13,1.65-.41,2.42-.78.77-.37,1.51-.8,2.17-1.34,1.35-1.06,2.34-2.5,3.07-4.06l.11.04c-.32.81-.66,1.63-1.19,2.34-.49.73-1.1,1.38-1.77,1.95-1.34,1.16-3.03,1.88-4.78,2.14l.05-.02c-1.58.8-3.24,1.48-4.99,1.85-1.74.37-3.56.28-5.29-.13-.86-.21-1.72-.37-2.6-.55-.87-.2-1.72-.48-2.53-.85-1.62-.75-3.11-1.79-4.35-3.12l.03.03c-2.12-1.78-4.16-3.72-5.57-6.18l-.12-.2.23-.1c1.75-.74,3.37-1.89,4.65-3.32.65-.71,1.19-1.52,1.64-2.37.23-.43.41-.87.57-1.33.18-.45.26-.94.39-1.41l.07.02Z"/>
      <path class="cls-1" d="M94.18,89.59c-.59.87-1.29,1.71-2.14,2.37-.86.65-1.81,1.19-2.92,1.39l.12-.06c-.96.91-2.07,1.65-3.38,2.02-.66.15-1.35.16-2.02,0-.67-.15-1.25-.54-1.76-.96l.14.05c-1.07.05-2.14-.03-3.17-.3-1.02-.27-2.03-.77-2.69-1.63l.02.02c-.78-.59-1.48-1.28-1.97-2.13-.5-.85-.71-1.87-.57-2.86v-.05s.05-.04.05-.04c.87-.77,1.69-1.6,2.54-2.38l1.22-1.23c.38-.43.8-.85,1.04-1.36l.11.03c-.19.58-.55,1.06-.92,1.52-.37.46-.77.89-1.19,1.3-.82.84-1.72,1.59-2.62,2.34l.05-.09c-.16.92-.01,1.89.44,2.73.44.83,1.09,1.59,1.89,2.1h0s0,.02,0,.02c.66.8,1.64,1.24,2.64,1.47,1,.22,2.06.27,3.07.18h.07s.07.05.07.05c.49.37,1.01.7,1.61.81.59.12,1.21.08,1.8-.07,1.19-.29,2.3-.98,3.22-1.81l.05-.05h.07c.98-.16,1.95-.65,2.78-1.25.84-.62,1.6-1.34,2.26-2.17l.06.04Z"/>
      <path class="cls-1" d="M140.24,89.57s-.86-.34-2.37-.93c-.75-.3-1.67-.66-2.72-1.08-1.02-.49-2.17-1.04-3.42-1.65-1.27-.58-2.58-1.31-3.98-2.08-1.41-.75-2.87-1.58-4.33-2.52-1.48-.92-2.98-1.91-4.46-2.98-1.51-1.03-2.99-2.14-4.46-3.27-1.49-1.1-2.9-2.31-4.32-3.45-1.39-1.18-2.76-2.34-4.08-3.46-1.29-1.16-2.58-2.24-3.73-3.34-1.17-1.08-2.27-2.11-3.25-3.1-1.01-.95-1.85-1.92-2.63-2.73-.75-.84-1.41-1.58-1.95-2.18-1.06-1.23-1.61-1.98-1.61-1.98l.09-.07s.63.68,1.72,1.87c1.08,1.2,2.7,2.86,4.64,4.84.96,1,2.03,2.06,3.17,3.17,1.12,1.13,2.39,2.23,3.65,3.42,1.3,1.15,2.65,2.33,4.08,3.45,1.44,1.11,2.87,2.29,4.38,3.36,1.49,1.1,2.99,2.18,4.51,3.17,1.5,1.04,3.01,2,4.5,2.88,1.46.94,2.89,1.81,4.28,2.57,1.38.79,2.68,1.54,3.93,2.14,1.24.62,2.37,1.19,3.38,1.69,1.03.46,1.93.85,2.67,1.18,1.48.66,2.33,1.04,2.33,1.04l-.03.07Z"/>
      <path class="cls-1" d="M31.08,83.53c3.09-5.17,6.09-10.4,8.71-15.82,1.3-2.71,2.58-5.43,3.64-8.25l.75-2.12.62-2.16c.18-.73.29-1.47.44-2.2.11-.74.1-1.49.15-2.23v-.09s.08-.02.08-.02c2.31-.47,4.61-1.05,6.84-1.82,2.24-.76,4.44-1.62,6.59-2.59,1.08-.48,2.13-1,3.18-1.54.53-.26,1.03-.56,1.55-.84.52-.28,1.05-.54,1.55-.85,1.02-.58,2.03-1.19,3.01-1.85,1-.63,1.93-1.35,2.91-2.02l.07.09c-.93.72-1.81,1.53-2.82,2.16-.97.69-1.97,1.32-2.99,1.93-2.03,1.23-4.18,2.25-6.36,3.17-2.18.92-4.4,1.75-6.66,2.47-2.26.69-4.52,1.4-6.84,1.89l.08-.1c-.04.76-.01,1.52-.11,2.27-.14.74-.23,1.5-.4,2.24l-.58,2.2-.72,2.15c-.23.72-.54,1.41-.8,2.12-.27.71-.55,1.41-.86,2.1-.58,1.39-1.23,2.76-1.9,4.11-2.74,5.38-5.71,10.64-9.08,15.65l-.06-.04Z"/>
      <path class="cls-1" d="M14.97,89.96s2.12-1.19,5.13-3.21c1.51-1,3.2-2.29,4.98-3.68,1.78-1.4,3.66-2.93,5.41-4.6.89-.82,1.76-1.67,2.57-2.54.85-.84,1.61-1.73,2.31-2.63.73-.87,1.37-1.76,1.97-2.61.61-.84,1.17-1.65,1.63-2.43.46-.78.95-1.46,1.33-2.08.37-.64.69-1.19.96-1.65.55-.9.87-1.42.87-1.42l.11.05s-.27.55-.73,1.5c-.46.96-1.18,2.31-2.23,3.8-.49.77-1.08,1.56-1.73,2.38-.63.83-1.3,1.71-2.06,2.55-1.49,1.71-3.05,3.59-4.8,5.27-1.7,1.74-3.55,3.32-5.3,4.79-1.82,1.38-3.55,2.62-5.09,3.59-3.05,2.01-5.29,2.98-5.29,2.98l-.03-.07Z"/>
    </g>
  </g>
</svg>