<?xml version="1.0" encoding="UTF-8"?>
<svg id="Layer_2" data-name="Layer 2" xmlns="http://www.w3.org/2000/svg" viewBox="0 0 124.56 103.23">
  <defs>
    <style>
      .cls-1 {
        fill: #fff;
      }
    </style>
  </defs>
  <g id="Layer_1-2" data-name="Layer 1">
    <g>
      <g>
        <path class="cls-1" d="M8.64,103.15l11.44-5.4-.04.02,11.18-10.32,11.25-10.23,11.28-10.21,11.2-10.29c.05-.05.13-.04.18,0h0s15.74,19.99,15.74,19.99l15.66,20.05-.16-.09,28.15,3.34s.02.01.02.03c0,.01-.01.02-.03.02l-28.2-2.93c-.06,0-.12-.04-.16-.09l-15.66-20.05-15.58-20.11.18.02-11.25,10.24-11.17,10.32-11.19,10.3-11.27,10.21-.04.02-11.54,5.19s-.03,0-.03-.01c0-.01,0-.03.01-.03Z"/>
        <path class="cls-1" d="M80.72.03c-1.2,4.76-2.49,9.5-3.76,14.24-1.25,4.75-2.58,9.47-3.93,14.19-1.33,4.73-2.7,9.44-3.99,14.17l-3.82,14.22c-.03.1-.13.16-.23.13-.04,0-.07-.03-.09-.06l-15.71-17.41-7.77-8.78-7.73-8.82s0-.03,0-.04c.01,0,.03,0,.03,0l7.94,8.63,7.89,8.67,15.62,17.49-.32.08,4.01-14.17c1.32-4.73,2.55-9.48,3.83-14.22,1.26-4.74,2.54-9.48,3.9-14.2,1.34-4.72,2.66-9.45,4.06-14.15,0-.01.02-.02.03-.02.01,0,.02.02.02.03Z"/>
        <path class="cls-1" d="M.03,50.37c5.43.42,10.85.95,16.27,1.44,5.42.47,10.83,1.08,16.25,1.64,5.41.57,10.83,1.17,16.25,1.65l16.27,1.49-.16.04,17.21-12.77c5.79-4.19,11.53-8.43,17.36-12.57.01,0,.03,0,.03,0,0,.01,0,.03,0,.03-5.66,4.36-11.4,8.62-17.09,12.93l-17.24,12.73s-.1.05-.16.04l-16.24-1.72c-5.41-.6-10.84-1.06-16.26-1.56-5.42-.51-10.85-.96-16.26-1.57-5.41-.58-10.83-1.12-16.24-1.77-.01,0-.02-.01-.02-.03,0-.01.01-.02.03-.02Z"/>
        <path class="cls-1" d="M14.83,73.22c4.16-1.45,8.33-2.85,12.51-4.24,4.18-1.38,8.34-2.82,12.54-4.15,8.37-2.72,16.79-5.31,25.13-8.12.05-.02.11.01.13.07v.02s2.12,18.47,2.12,18.47l2.02,18.48-.22-.22,21.04,2.49,21.03,2.56s.02.01.02.03c0,.01-.01.02-.03.02l-21.07-2.27-21.06-2.34c-.12-.01-.2-.11-.22-.22l-1.98-18.48-1.88-18.49.14.09c-8.39,2.66-16.71,5.56-25.07,8.31-4.17,1.41-8.38,2.71-12.56,4.07-4.19,1.35-8.38,2.69-12.59,3.98-.01,0-.03,0-.03-.02,0-.01,0-.03.02-.03Z"/>
        <path class="cls-1" d="M115.35,73.27c-4.22-1.29-8.42-2.63-12.62-3.98l-12.6-4.06-12.56-4.18c-4.19-1.39-8.36-2.82-12.57-4.15l.12-.05-8.33,19.06-8.43,19.02c-.04.08-.11.14-.2.15l-14.01,1.45-14.01,1.38s-.03,0-.03-.02c0-.01,0-.03.02-.03l13.98-1.67,13.99-1.6-.2.14,8.47-19,8.57-18.95s.07-.07.12-.05c4.18,1.41,8.39,2.72,12.59,4.07l12.6,4.03,12.56,4.16c4.19,1.38,8.37,2.79,12.54,4.24.01,0,.02.02.02.03,0,.01-.02.02-.03.02Z"/>
      </g>
      <path class="cls-1" d="M26.1,92.42c-1.37-3.36-2.72-6.72-4.02-10.11-.65-1.69-1.29-3.39-1.9-5.1-.59-1.72-1.23-3.41-1.58-5.23v.05c-1.68-3.37-3.35-6.76-4.96-10.17-.81-1.71-1.6-3.42-2.36-5.15-.38-.86-.75-1.74-1.11-2.61-.32-.9-.73-1.73-.85-2.76,0-.08.04-.15.11-.17h.03c3.02-1.02,5.93-2.4,8.7-3.98,1.39-.79,2.73-1.65,4.06-2.54l1.94-1.41c.66-.45,1.25-.99,1.88-1.49,1.26-.98,2.4-2.11,3.58-3.19,1.1-1.16,2.25-2.27,3.24-3.52.5-.62,1.05-1.21,1.52-1.85l1.41-1.93c.96-1.28,1.71-2.69,2.58-4.03h0c.04-.08.11-.11.19-.12,3.63-.23,7.26-.84,10.83-1.65,1.78-.43,3.55-.88,5.29-1.45.88-.25,1.74-.55,2.6-.88.86-.32,1.73-.6,2.56-.98l2.52-1.07,2.45-1.23c.83-.38,1.6-.88,2.39-1.34.78-.48,1.6-.89,2.33-1.45l2.25-1.57c.73-.55,1.41-1.16,2.12-1.74.71-.57,1.4-1.18,2.02-1.85l1.92-1.95c.05-.05.13-.06.18,0,.02.02.03.04.04.07.53,2.48,1.33,4.92,2.29,7.28.49,1.18,1.02,2.34,1.6,3.47.27.58.61,1.12.91,1.68.3.57.63,1.11.97,1.65.65,1.1,1.41,2.12,2.14,3.17.81.98,1.55,2.03,2.45,2.93.85.96,1.76,1.84,2.72,2.69.92.89,1.99,1.6,2.98,2.4l.02.02c2.12,6.08,4.33,12.13,6.65,18.14,1.17,3,2.35,6,3.62,8.95.64,1.48,1.28,2.95,1.99,4.39.69,1.45,1.44,2.88,2.36,4.17.04.05.04.12.01.17-2.21,3.81-4.65,7.48-7.41,10.92-1.37,1.72-2.85,3.37-4.48,4.86-.41.37-.81.76-1.25,1.09-.44.33-.85.71-1.32,1.01l-1.4.9-1.5.73s-.05.01-.07.01l-22.73-.85s-.06-.03-.06-.06c0-.03.03-.06.06-.06l22.74.63h-.07s1.46-.71,1.46-.71l1.37-.89c.46-.3.86-.67,1.29-1,.44-.33.83-.71,1.23-1.08.82-.72,1.55-1.54,2.31-2.33.72-.82,1.46-1.63,2.14-2.49,2.76-3.4,5.22-7.05,7.44-10.83v.17c-.93-1.34-1.67-2.78-2.35-4.24-.71-1.45-1.34-2.94-1.97-4.42-1.26-2.97-2.43-5.97-3.58-8.98-2.29-6.02-4.46-12.09-6.56-18.18l.02.02c-.99-.8-2.07-1.51-3-2.4-.96-.84-1.89-1.73-2.74-2.68-.91-.9-1.66-1.95-2.48-2.93-.74-1.04-1.51-2.07-2.17-3.17-.35-.54-.69-1.08-.99-1.65-.3-.56-.64-1.11-.92-1.69-.59-1.14-1.12-2.3-1.62-3.48-.98-2.37-1.8-4.8-2.34-7.31l.22.06-1.93,1.98c-.62.68-1.31,1.29-2.02,1.87-.71.59-1.39,1.21-2.12,1.76l-2.25,1.6c-.73.56-1.55.98-2.34,1.47-.79.47-1.57.97-2.4,1.36l-2.46,1.25-2.53,1.09c-.84.39-1.71.67-2.57.99-.86.33-1.73.63-2.61.89-1.75.57-3.53,1.04-5.31,1.48-3.58.84-7.21,1.46-10.9,1.71l.19-.12c-.87,1.36-1.62,2.79-2.58,4.08-.93,1.32-1.88,2.62-2.96,3.82-1,1.26-2.18,2.38-3.29,3.54-1.19,1.08-2.34,2.22-3.62,3.2-.63.5-1.23,1.04-1.9,1.49l-1.96,1.41c-1.34.89-2.7,1.76-4.1,2.55-2.8,1.58-5.72,2.96-8.8,3.98l.14-.18c.1.85.5,1.76.81,2.63.35.87.71,1.74,1.09,2.6.75,1.73,1.54,3.44,2.34,5.15,1.6,3.42,3.25,6.81,4.93,10.18v.05c.16.87.43,1.74.69,2.6l.85,2.58c.59,1.71,1.21,3.41,1.84,5.11,1.26,3.4,2.57,6.78,3.91,10.15,0,.02,0,.04-.02.05-.02,0-.04,0-.05-.02Z"/>
      <path class="cls-1" d="M56.45,75.89s-2.62,6.99-5.9,13.69c-.8,1.68-1.59,3.37-2.26,4.98-.68,1.61-1.24,3.14-1.8,4.42-1.09,2.57-1.99,4.21-1.99,4.21-.02.03-.05.04-.08.02-.03-.01-.04-.04-.03-.07,0,0,.59-1.77,1.75-4.32.56-1.28,1.31-2.73,2.04-4.32.73-1.59,1.44-3.31,2.13-5.04,2.71-6.95,6.08-13.61,6.08-13.61,0-.02.03-.03.05-.02.02,0,.02.03.02.05Z"/>
      <path class="cls-1" d="M67.79,82.05s.8,3.94.88,7.95c.04,1,.1,2,.22,2.93.12.93.31,1.79.38,2.54.19,1.49.12,2.5.12,2.5,0,.03-.03.06-.06.06-.03,0-.05-.02-.05-.04,0,0-.27-.98-.38-2.47-.07-.75-.06-1.63-.12-2.56-.06-.94-.2-1.93-.36-2.91-.7-3.95-.69-7.97-.69-7.97,0-.02.02-.04.04-.04.02,0,.03.01.04.03Z"/>
      <path class="cls-1" d="M51.85,86.54c-1.48.35-3.03.35-4.54.35-1.52-.02-3.04-.09-4.56-.19-3.03-.23-6.05-.55-9.07-.94-.06,0-.1-.04-.13-.09l-9.4-15.42s-.02-.04-.03-.07l-4.11-17.53c-.02-.07.02-.14.09-.16,2.45-.89,4.86-1.93,7.23-3.03,2.37-1.11,4.69-2.32,6.93-3.68,1.13-.67,2.2-1.42,3.28-2.16,1.05-.78,2.1-1.56,3.07-2.43.51-.41.98-.86,1.43-1.33.45-.47.95-.9,1.34-1.42.4-.51.85-.99,1.21-1.53l1.03-1.65s.07-.07.12-.08c3.84-.25,7.67-.68,11.49-1.14,1.91-.24,3.81-.52,5.7-.88.95-.17,1.88-.39,2.82-.6.94-.22,1.86-.49,2.77-.8.03-.01.06,0,.08.03.01.03,0,.06-.03.08-3.62,1.39-7.48,1.96-11.29,2.53-3.82.56-7.67.84-11.52,1.07l.12-.08-1.07,1.67c-.38.54-.83,1.02-1.24,1.53-.4.53-.91.95-1.37,1.42-.46.47-.94.92-1.46,1.33-.99.87-2.05,1.64-3.11,2.41-1.09.73-2.17,1.47-3.31,2.12-4.47,2.75-9.23,5-14.12,6.89l.09-.16,4.29,17.49-.03-.07,9.31,15.48-.13-.09c3,.41,6.02.76,9.04,1.01,1.51.12,3.02.24,4.54.3,1.51.03,3.03.07,4.52-.24.02,0,.04,0,.04.03,0,.02,0,.04-.03.04Z"/>
      <path class="cls-1" d="M67.99,84.39c3.03.52,6.12.14,9.12-.44,1.5-.31,2.99-.67,4.46-1.08.74-.2,1.47-.43,2.2-.67.74-.21,1.4-.53,2.06-.94,2.51-1.67,4.54-4.06,6.47-6.4,1.91-2.39,3.7-4.88,5.36-7.45v.26c-2.82-3.84-5.12-8.01-7.33-12.2-2.21-4.2-4.28-8.46-6.27-12.77l.11.09c-.66-.19-1.29-.45-1.89-.75-.59-.33-1.18-.66-1.73-1.04-1.12-.75-2.18-1.56-3.2-2.43-2.04-1.73-3.97-3.59-5.8-5.54h.15c-.38.33-.69.75-1.13,1.01-.43.25-.83.59-1.3.77-.9.46-1.84.8-2.79,1.13-1.91.6-3.87,1.01-5.83,1.4-3.93.72-7.91,1.18-11.9,1.43l.07-.03c-3.03,2.96-6.4,5.52-9.87,7.93-3.47,2.4-7.07,4.62-10.78,6.65l.08-.17c.69,4.05,1.38,8.11,2.02,12.17,0,.03-.02.06-.05.07-.03,0-.06-.02-.07-.05-.78-4.04-1.5-8.09-2.23-12.13-.01-.07.03-.14.08-.17,3.66-2.07,7.24-4.3,10.75-6.64,3.48-2.37,6.87-4.89,9.91-7.8.02-.02.05-.03.07-.03,3.98-.21,7.96-.64,11.89-1.32,1.96-.35,3.91-.82,5.81-1.42.94-.34,1.87-.68,2.75-1.14.46-.19.84-.52,1.27-.77.42-.26.71-.67,1.08-.99h.01s.1-.04.13,0c1.84,1.93,3.78,3.77,5.83,5.47,1.02.85,2.09,1.66,3.19,2.38.55.37,1.13.69,1.71,1.01.59.29,1.2.54,1.83.71.05.01.09.05.11.09,2.02,4.28,4.13,8.52,6.37,12.7,1.12,2.09,2.26,4.16,3.47,6.19,1.2,2.04,2.43,4.06,3.83,5.95.06.08.06.18,0,.26-1.69,2.58-3.5,5.06-5.44,7.45-1.97,2.35-3.98,4.72-6.62,6.45-.65.4-1.38.74-2.12.95-.73.23-1.47.45-2.21.66-1.48.41-2.98.76-4.5,1.03-3.02.53-6.14.86-9.17.28-.02,0-.03-.02-.03-.04,0-.02.02-.03.04-.03Z"/>
      <path class="cls-1" d="M53.82,82.09l-15.52-.67c-.05,0-.09-.03-.12-.07l-8.45-12.92s-.04-.09-.03-.13l1.51-14.83c0-.09.07-.17.15-.2,3.6-1.5,7.18-3.11,10.66-4.88,1.74-.9,3.46-1.81,5.12-2.85.82-.53,1.64-1.05,2.4-1.66.4-.28.74-.62,1.1-.94.39-.3.62-.72.93-1.08l.02-.02s.06-.05.1-.05c6.16-.74,12.33-1.61,18.33-3.23.03,0,.06,0,.08.02,3.05,2.68,6.26,5.27,9.89,7.12l.02.02,12.3,19.86s.03.11,0,.16c-2.57,4.85-6.2,9.14-10.68,12.33l.06-.09c-.36,1-1.02,1.78-1.72,2.49-.71.7-1.51,1.32-2.36,1.84-1.69,1.07-3.54,1.83-5.42,2.45-.03.01-.06,0-.07-.04-.01-.03,0-.06.04-.07,1.86-.67,3.67-1.49,5.32-2.56.83-.52,1.61-1.13,2.3-1.82.68-.69,1.31-1.49,1.62-2.36h0s.03-.07.06-.09c2.19-1.6,4.2-3.46,5.94-5.54,1.77-2.05,3.36-4.29,4.63-6.67v.16s-12.12-19.97-12.12-19.97l.02.02c-3.62-1.91-6.88-4.41-9.96-7.09l.08.02c-6,1.67-12.17,2.59-18.34,3.38l.12-.08c-.32.38-.59.84-.98,1.15-.36.34-.72.69-1.12.97-.77.62-1.6,1.16-2.42,1.7-1.66,1.05-3.39,1.99-5.12,2.9-3.49,1.79-7.04,3.45-10.67,4.96l.15-.2-1.6,14.82-.03-.13,8.37,12.97-.12-.07,15.51.9s.04.02.03.04c0,.02-.02.04-.04.03Z"/>
      <path class="cls-1" d="M67.35,78.12c2.2-.04,4.4-.33,6.53-.87,2.12-.55,4.19-1.39,5.87-2.8,3.41-2.7,6.54-6.08,7.87-10.26l.04.19c-2.06-2.53-4.07-5.11-6.03-7.72-.97-1.32-1.94-2.63-2.84-4-.89-1.37-1.79-2.74-2.45-4.28l.08.1c-1.33-.97-2.64-1.97-3.91-3-1.26-1.06-2.55-2.08-3.61-3.4l.24.04c-2.12,1.29-4.35,2.38-6.71,3.16-1.18.37-2.38.7-3.62.82-.62.06-1.24.11-1.86.06-.63-.01-1.24-.15-1.85-.28l.1-.02c-2.37,1.82-4.83,3.52-7.41,5.03-1.29.76-2.61,1.45-3.97,2.07-.67.32-1.37.59-2.08.84-.71.25-1.43.43-2.17.59l.06-.05c-.76,2.15-1.56,4.29-2.39,6.42-.42,1.06-.84,2.12-1.3,3.17-.47,1.04-.91,2.1-1.57,3.07v-.17c2.5,3.75,5.04,7.47,7.49,11.25l-.14-.08c4.48.33,8.96.63,13.44,1.02.03,0,.06.03.05.06,0,.03-.03.06-.06.05-4.49-.21-8.97-.51-13.45-.78-.06,0-.11-.04-.14-.08-2.52-3.73-4.96-7.52-7.43-11.28-.03-.05-.03-.12,0-.17.63-.91,1.1-1.97,1.57-3,.47-1.04.9-2.09,1.33-3.15.85-2.11,1.67-4.25,2.45-6.39,0-.03.03-.04.06-.05.73-.14,1.45-.31,2.15-.56.7-.24,1.4-.5,2.07-.82,1.37-.59,2.66-1.33,3.94-2.09,2.56-1.53,5-3.25,7.34-5.08.03-.02.07-.03.1-.02.59.12,1.19.25,1.8.26.61.04,1.22-.01,1.82-.08,1.21-.13,2.4-.47,3.56-.84,2.32-.78,4.54-1.89,6.61-3.18.08-.05.19-.03.24.04,1,1.24,2.31,2.27,3.57,3.3,1.28,1.02,2.59,2,3.92,2.95.03.02.06.07.08.1.64,1.46,1.55,2.83,2.44,4.17.92,1.34,1.85,2.67,2.82,3.99,1.93,2.62,3.92,5.21,5.96,7.75.04.05.05.13.04.19-.68,2.14-1.87,4.07-3.27,5.79-1.41,1.72-3.05,3.23-4.8,4.59-.86.69-1.83,1.29-2.85,1.73-1.02.45-2.08.78-3.16,1.03-2.16.5-4.37.74-6.58.74-.02,0-.04-.02-.04-.04s.02-.04.04-.04Z"/>
      <path class="cls-1" d="M57.73,73.28l-9.22-1.22s-.08-.03-.1-.06l-5.75-7.8c-.05-.06-.05-.14-.02-.21l4.25-9.06c.03-.06.08-.1.13-.12,1.92-.78,3.81-1.65,5.64-2.62.92-.49,1.81-1.01,2.67-1.59.85-.57,1.69-1.21,2.27-2.02.04-.06.11-.08.17-.07,1.7.3,3.47.42,5.2.24,1.72-.17,3.48-.68,4.73-1.89.04-.04.1-.04.14,0v.02c1.29,1.96,3.55,3.18,5.87,3.47.02,0,.04.02.04.03.82,2.11,1.78,4.17,2.91,6.13,1.13,1.95,2.42,3.85,4.13,5.3.05.04.07.11.05.17-.55,1.58-1.24,3.1-2.13,4.53-.45.71-.98,1.38-1.63,1.94-.32.28-.7.51-1.09.69l-.64.18-.67.02.11-.03c-1.23.77-2.53,1.4-3.88,1.89-1.35.5-2.79.78-4.23.77-.03,0-.06-.03-.06-.06,0-.03.03-.06.06-.06,1.43-.04,2.81-.43,4.14-.91,1.32-.51,2.6-1.15,3.79-1.92.03-.02.05-.03.08-.03h.03s.57-.03.57-.03l.55-.17c.35-.17.69-.38.99-.65.6-.53,1.1-1.18,1.56-1.85.89-1.37,1.6-2.88,2.16-4.42l.05.16c-1.74-1.52-3-3.46-4.11-5.43-1.1-1.99-2.04-4.06-2.83-6.19l.04.03c-1.18-.16-2.34-.5-3.38-1.09-1.03-.59-1.97-1.37-2.63-2.39l.15.02c-1.29,1.28-3.09,1.82-4.84,2.02-1.76.2-3.54.11-5.29-.18l.17-.07c-.63.89-1.48,1.55-2.34,2.14-.87.59-1.77,1.14-2.68,1.64-1.84,1-3.72,1.9-5.65,2.72l.13-.12-4.33,9.03-.02-.21,5.67,7.86-.1-.06,9.19,1.45s.03.02.03.04c0,.02-.02.03-.04.03Z"/>
      <path class="cls-1" d="M59.92,68.36c-2.49.04-4.98.12-7.47.12-.05,0-.09-.02-.12-.06l-4.96-5.74c-.05-.06-.06-.15-.04-.22.95-2.39,1.87-4.8,2.87-7.18.02-.06.07-.1.12-.12l9.53-4.21h.04s6.98-.96,6.98-.96c.02,0,.04,0,.05.01,1.25.88,2.51,1.73,3.79,2.57l.02.02,4.71,7.5s.03.08.02.12c-.25,1.1-.61,2.17-1.16,3.16-.27.5-.62.96-1.06,1.35-.43.39-.97.69-1.56.77h.04c-1.84.71-3.67,1.43-5.53,2.1-.03.01-.06,0-.08-.04-.01-.03,0-.06.03-.07,1.8-.81,3.62-1.56,5.45-2.31h.04c.51-.09.97-.36,1.36-.72.39-.35.69-.81.97-1.27.55-.93.93-1.98,1.19-3.03l.02.12-4.56-7.59.02.02c-1.25-.88-2.51-1.73-3.79-2.57h.05s-6.97,1.09-6.97,1.09h.04s-9.46,4.37-9.46,4.37l.12-.12c-.92,2.41-1.93,4.78-2.91,7.16l-.04-.22,4.88,5.81-.12-.06c2.49,0,4.98.08,7.47.12.02,0,.04.02.04.04,0,.02-.02.04-.04.04Z"/>
      <path class="cls-1" d="M60.88,66.19c-1.89-.03-3.78-.11-5.67-.22-.04,0-.08-.02-.11-.05-1.61-1.38-3.26-2.72-4.82-4.17h0c-.07-.07-.08-.18-.04-.26l3.07-5.88s.03-.04.05-.05c2.71-.73,5.35-1.72,8.02-2.58,0,0,.04,0,.04,0,1.72-.21,3.44-.36,5.18-.42.03,0,.06.02.06.06,0,.03-.02.06-.05.06-1.71.31-3.43.51-5.15.66h.03c-2.69.8-5.42,1.47-8.07,2.4l.05-.05-2.85,5.99-.05-.26c1.64,1.35,3.2,2.8,4.78,4.21l-.11-.05c1.89.14,3.77.3,5.65.52.02,0,.03.02.03.04,0,.02-.02.03-.04.03Z"/>
      <path class="cls-1" d="M61.75,64.24c-1.37-.12-2.74-.28-4.1-.48-.05,0-.1-.04-.13-.07-.99-1.1-1.97-2.22-2.89-3.38h-.01c-.04-.07-.05-.14-.03-.2.61-1.49,1.24-2.98,1.78-4.5,0-.02.03-.03.05-.04,1.14-.12,2.27-.37,3.41-.52,1.14-.16,2.28-.27,3.44-.27.03,0,.06.03.06.06,0,.03-.02.05-.05.06-1.13.26-2.27.42-3.41.52-1.14.11-2.3.13-3.44.26l.04-.04c-.56,1.51-1.02,3.06-1.5,4.6l-.04-.2c1.02,1.08,1.97,2.21,2.92,3.36l-.13-.07c1.35.24,2.7.53,4.04.85.02,0,.03.02.03.04,0,.02-.02.03-.04.03Z"/>
      <path class="cls-1" d="M95.13,63.55c-1.48-3.78-2.89-7.58-4.3-11.39-1.42-3.8-2.84-7.6-4.16-11.44l.06.09-7.02-5.89c-2.35-1.95-4.65-3.97-7.05-5.86h.09c-2.74,1.99-5.57,3.85-8.51,5.54-1.46.87-3,1.59-4.56,2.26-.78.34-1.59.61-2.39.88-.82.24-1.66.39-2.51.46-.03,0-.06-.02-.06-.05,0-.03.02-.06.05-.06l1.23-.24,1.21-.36c.79-.28,1.58-.57,2.34-.92,1.54-.68,3.02-1.48,4.51-2.27,2.96-1.61,5.83-3.41,8.6-5.34.03-.02.06-.02.09,0,2.32,1.99,4.74,3.86,7.11,5.79l7.13,5.76s.05.06.06.09c1.44,3.79,2.79,7.62,4.14,11.45,1.36,3.82,2.72,7.65,4,11.5,0,.02,0,.04-.02.05-.02,0-.04,0-.05-.02Z"/>
      <path class="cls-1" d="M52.17,29.77c4.23-1.94,8.36-4.05,12.38-6.36,4.01-2.32,7.91-4.86,11.6-7.65.1-.08.25-.06.33.04.03.03.04.08.05.12.26,2.35.72,4.71,1.34,7,.64,2.29,1.44,4.55,2.58,6.63.28.53.58,1.03.92,1.53.29.53.73.9,1.16,1.32.88.8,1.85,1.49,2.88,2.08,1.03.59,2.13,1.07,3.26,1.45,1.14.37,2.31.57,3.49.72.03,0,.06.03.06.05,1.16,4.27,2.39,8.53,3.71,12.75,1.32,4.23,2.6,8.46,4.26,12.56.01.03,0,.06-.03.08-.03.01-.06,0-.08-.03-.97-2-1.73-4.09-2.46-6.18-.72-2.1-1.44-4.2-2.04-6.33-1.25-4.25-2.41-8.53-3.5-12.82l.06.05c-2.38-.32-4.71-1.02-6.81-2.18-1.05-.58-2.05-1.26-2.95-2.06-.43-.4-.92-.82-1.22-1.34-.35-.49-.67-1-.95-1.53-1.19-2.09-2.03-4.36-2.71-6.66-.66-2.31-1.16-4.66-1.45-7.05l.38.16c-1.83,1.46-3.77,2.74-5.73,4.01-1.96,1.25-3.95,2.46-5.98,3.6-4.05,2.29-8.24,4.34-12.54,6.11-.02,0-.04,0-.05-.02,0-.02,0-.04.02-.05Z"/>
      <path class="cls-1" d="M50.22,90.05c-3.25.38-6.54.16-9.78-.19-3.25-.37-6.47-.89-9.67-1.58-.04,0-.08-.04-.1-.08l-8.81-17.21-.02-.04-6.26-18.73c-.04-.12.02-.24.13-.29,2.65-1.05,5.24-2.29,7.77-3.61,2.53-1.33,5.01-2.76,7.36-4.38.6-.39,1.18-.8,1.75-1.24.57-.43,1.15-.84,1.7-1.3,1.1-.91,2.18-1.84,3.17-2.87.53-.48.99-1.03,1.44-1.57.45-.55.94-1.07,1.31-1.68.38-.6.83-1.16,1.14-1.79l.92-1.91h0c.03-.07.08-.11.15-.12,5.59-.87,11.16-2.02,16.62-3.53,2.73-.76,5.44-1.6,8.07-2.64.67-.24,1.32-.52,1.96-.81.64-.29,1.31-.54,1.93-.88,1.28-.61,2.49-1.33,3.69-2.09.05-.03.11-.02.14.03h0c1.96,3.25,4.1,6.4,6.47,9.36,1.19,1.48,2.43,2.92,3.8,4.24.33.34.68.67,1.04.97.36.3.7.64,1.09.91.74.6,1.54,1.1,2.36,1.58.01,0,.02.02.03.03l14.01,30.67c.02.05.02.11,0,.15-2.04,3.27-4.36,6.36-6.93,9.22-2.57,2.86-5.35,5.54-8.35,7.96-.02.02-.05.03-.07.03-3.3.52-6.62.85-9.95,1.02-3.33.16-6.68.11-9.98-.32-.03,0-.06-.03-.05-.07,0-.03.03-.05.07-.05,3.31.38,6.64.34,9.96.17,3.32-.19,6.63-.54,9.9-1.08l-.07.03c2.96-2.42,5.71-5.12,8.26-7.96,2.58-2.83,4.91-5.89,6.95-9.13v.15s-13.84-30.75-13.84-30.75l.03.03c-.82-.48-1.62-1-2.36-1.6-.39-.27-.73-.62-1.09-.92-.36-.31-.71-.63-1.05-.97-1.38-1.31-2.63-2.75-3.83-4.23-2.4-2.95-4.56-6.09-6.54-9.34l.14.03c-1.2.77-2.42,1.5-3.7,2.12-.62.35-1.29.6-1.93.9-.65.3-1.3.58-1.97.82-2.64,1.06-5.35,1.91-8.08,2.69-5.47,1.55-11.03,2.72-16.64,3.63l.15-.12-.93,1.97c-.32.65-.77,1.22-1.16,1.84-.37.63-.87,1.15-1.32,1.71-.46.56-.92,1.11-1.45,1.61-.99,1.05-2.09,1.99-3.19,2.92-.55.46-1.14.88-1.71,1.32-.57.45-1.16.86-1.75,1.26-2.36,1.64-4.84,3.11-7.4,4.43-2.55,1.32-5.15,2.55-7.84,3.6l.13-.29,6.19,18.77-.02-.03,8.75,17.26-.1-.08c3.18.7,6.39,1.28,9.63,1.68,3.23.38,6.5.65,9.75.31.02,0,.04.01.04.03,0,.02-.01.04-.03.04Z"/>
      <path class="cls-1" d="M52.76,84.46c-2.87-.01-5.74-.08-8.61-.17-2.87-.1-5.74-.11-8.61-.28-.08,0-.15-.05-.19-.11l-4.25-7.29c-1.42-2.43-2.79-4.88-4.3-7.26h0c-2.04-4.55-4.23-9.04-5.99-13.7-.01-.03,0-.06.03-.08.03-.01.06,0,.07.03,2.24,4.46,4.07,9.09,6.04,13.67h0c1.38,2.44,2.9,4.81,4.37,7.21l4.42,7.19-.19-.11c2.87.05,5.74.24,8.61.36,2.87.12,5.74.27,8.6.47.02,0,.04.02.03.04,0,.02-.02.03-.04.03Z"/>
    </g>
  </g>
</svg>