<?xml version="1.0" encoding="UTF-8"?>
<svg id="Layer_2" data-name="Layer 2" xmlns="http://www.w3.org/2000/svg" viewBox="0 0 157.22 167.6">
  <defs>
    <style>
      .cls-1 {
        fill: #fff;
      }
    </style>
  </defs>
  <g id="Layer_1-2" data-name="Layer 1">
    <g>
      <g>
        <path class="cls-1" d="M121.27,114.58l-15.34-19.63,12.72,8.49c4.55,3.05,9.05,6.19,13.59,9.28,3.94,2.71,7.9,5.39,11.87,8.04-.21-.29-4.77-3.67-6.85-5.07-1.62-1.09-3.24-2.18-4.86-3.26-4.55-3.05-9.14-6.05-13.66-9.14l-13.57-9.3c-.08-.06-.2-.03-.25.06-.04.07-.03.16.01.23l15.98,20.62,8.07,10.24,9.38,11.81s.02.01.03,0c0,0,.01-.02,0-.03l-9.18-11.99-7.95-10.35Z"/>
        <path class="cls-1" d="M157.2,63.18l-12.22-.56s-.06,0-.08.03c-6.66,5.21-13.37,10.36-19.98,15.65l-19.89,15.78.11.12,26.34-41.14.03-.06c4.15-13.71,8.04-27.51,12.06-41.26,0-.01,0-.03-.02-.03-.01,0-.03,0-.03.02-4.15,13.71-8.42,27.37-12.45,41.12l.03-.06-26.1,41.32s-.01.09.02.12c.03.02.07.02.09,0l20.01-15.61c6.69-5.17,13.28-10.49,19.92-15.74l-.08.03,12.23.33s.02-.01.02-.02c0-.01,0-.03-.02-.03Z"/>
        <path class="cls-1" d="M126.97,141.34c-3.55-4.2-7.21-8.3-10.82-12.45l.04.08c-.87-2.92-1.84-5.81-2.76-8.71l-2.8-8.7c-1.88-5.8-3.61-11.64-5.4-17.47-.03-.1-.13-.15-.22-.12-.07.02-.11.09-.12.16-.45,7.23-.78,14.47-1.18,21.71l-.49,10.86-.43,10.87s0,.03.02.03c.01,0,.02,0,.02-.02l.7-10.85.63-10.85c.35-7.24.76-14.48,1.06-21.72l-.33.04c1.86,5.8,3.77,11.59,5.54,17.42l2.67,8.74c.9,2.91,1.76,5.84,2.71,8.73,0,.03.03.06.04.08,3.68,4.07,7.32,8.18,11.06,12.2,0,0,.02,0,.03,0,0,0,0-.02,0-.03Z"/>
        <path class="cls-1" d="M138.84,27.49c-5.07,2.69-10.1,5.44-15.14,8.19-.04.02-.06.06-.08.1-1.57,4.86-3.19,9.69-4.71,14.57l-4.61,14.61c-3.03,9.75-6.23,19.44-9.39,29.15l.32.06.31-33.71.05-16.86-.02-16.86s-.01-.03-.02-.03c-.01,0-.02.01-.02.02l-.26,16.85-.19,16.85-.17,33.71c0,.1.07.18.16.18.07,0,.14-.05.16-.12,3.07-9.74,6.11-19.49,9.31-29.18l4.74-14.55c1.6-4.84,3.1-9.73,4.64-14.59l-.08.09c5.01-2.79,10.03-5.59,15.01-8.45.01,0,.02-.02,0-.03,0-.01-.02-.02-.03-.01Z"/>
        <path class="cls-1" d="M86.09,138.66c3.27-7.36,6.44-14.78,9.65-22.17,3.23-7.38,6.3-14.85,9.46-22.27.03-.07,0-.15-.06-.19-.05-.02-.11-.01-.14.02-5.74,5.57-11.51,11.1-17.33,16.58l-17.41,16.48c-.05.05-.08.12-.07.19l1.12,12.29.08-.21c-10.37,9.29-20.58,18.78-30.87,28.18,0,0-.01.02,0,.04,0,.01.02.01.03,0,10.38-9.28,20.84-18.46,31.13-27.85.06-.05.08-.13.08-.21l-1.14-12.29-.07.19,17.28-16.64c5.74-5.57,11.53-11.08,17.36-16.55l-.21-.17c-3.18,7.41-6.45,14.78-9.55,22.22-3.13,7.44-6.3,14.85-9.36,22.32,0,.01,0,.03.01.03.01,0,.03,0,.03-.01Z"/>
        <path class="cls-1" d="M116,129.02c-4.49,2.67-8.92,5.47-13.23,8.46l.05-.02c-5.21.46-10.45.54-15.67.86-5.22.29-10.44.71-15.64,1.22-.01,0-.02.01-.02.03,0,.01.01.02.02.02,5.23-.15,10.46-.4,15.67-.76,5.22-.34,10.42-.92,15.65-1.12.02,0,.04,0,.05-.02,4.48-2.7,8.84-5.6,13.13-8.63.01,0,.01-.02,0-.03,0-.01-.02-.01-.03,0Z"/>
        <path class="cls-1" d="M138.71,117.04c-.28,2.54-1.63,18.21-1.63,18.21h-.01c-1.68,1.04-3.4,1.99-5.1,2.99l-5.12,2.94s-.06.05-.08.08l-5.73,10.78c-1.85,3.63-3.73,7.24-5.52,10.91,0,.01,0,.03.01.03.01,0,.02,0,.03,0,2.02-3.53,3.93-7.12,5.89-10.69l5.67-10.82-.08.08,5.04-3.09c1.69-1.01,3.35-2.07,5.07-3.05h-.01s2.09-15.83,1.58-18.33c.01,0-.01-.03-.02-.05,0-.01.01,0,0,0Z"/>
        <path class="cls-1" d="M102.82,137.61s1.22.8,3.13,1.82c.95.53,2.08,1.08,3.31,1.63,1.23.55,2.52,1.21,3.77,1.95,2.51,1.45,5.07,2.79,7.02,3.72,1.95.94,3.28,1.48,3.28,1.48.01,0,.03,0,.03-.01,0-.01,0-.02-.01-.03,0,0-1.23-.78-3.13-1.83-1.89-1.06-4.46-2.37-7.09-3.57-1.31-.59-2.6-1.26-3.77-1.94-1.17-.69-2.28-1.3-3.26-1.76-1.94-.97-3.28-1.49-3.28-1.49-.01,0-.03,0-.03.02,0,.01,0,.02.01.03Z"/>
        <path class="cls-1" d="M27.34,141.03c9.23-7.07,18.38-14.25,27.57-21.38l-.03.02c8.4-4.18,16.74-8.48,25.12-12.72,8.37-4.26,16.72-8.53,25.13-12.7.05-.03.07-.09.05-.14-.02-.05-.08-.07-.12-.06l-55.84,18.14h.15s-19.1-7.63-19.1-7.63h-.04S.54,100.15.54,100.15c-.01,0-.02,0-.03.02,0,.01,0,.03.02.03l29.62,4.73h-.04s19.07,7.72,19.07,7.72c.05.02.1.02.15,0l55.77-18.4-.07-.2c-8.36,4.27-16.76,8.44-25.16,12.63-8.39,4.21-16.8,8.35-25.17,12.61l-.03.02c-9.12,7.22-18.29,14.39-27.36,21.67-.01,0-.01.02,0,.04,0,.01.02.01.03,0Z"/>
        <path class="cls-1" d="M121.2,4.08l-15.77,22.55.2-.05-13.58-7.39c-.1-.05-.22-.01-.27.09-.02.04-.03.09-.02.14l6.65,37.37c2.25,12.45,4.38,24.92,6.54,37.39l.24-.1-21.24-37.94c-7.1-12.64-14.19-25.28-21.37-37.86-.01-.02-.03-.04-.04-.05L39.42.38s-.03,0-.03,0c0,.01,0,.03,0,.03l22.96,18.08-.04-.05c7.02,12.68,14.15,25.3,21.26,37.93l21.39,37.84c.04.07.12.09.18.05.05-.03.07-.09.06-.15-2.21-12.46-4.46-24.9-6.58-37.38l-6.47-37.4-.29.23,13.62,7.3c.07.04.15.01.2-.05l15.56-22.72s0-.03,0-.04c-.01,0-.02,0-.03,0Z"/>
        <path class="cls-1" d="M127.56.87l-35.67,18.37h.03s-8.57,2.18-8.57,2.18h.07s-20.95-3.25-20.95-3.25h-.02s-20.39-1.12-20.39-1.12c-.07,0-.14.06-.14.14v.04s4.21,21.15,4.21,21.15c0,.02.01.04.03.05l58.77,55.9.24-.38-44.4-23.86-44.47-23.7s-.03,0-.03.01c0,.01,0,.03.01.03l44.31,24.05,44.39,23.89c.11.06.24.01.29-.1.04-.1.02-.21-.05-.28l-58.95-55.69.03.05-4.11-21.17-.14.17,20.38,1.22h-.02s20.95,3.24,20.95,3.24c.02,0,.05,0,.07,0l8.55-2.25h.03S127.58.91,127.58.91c.01,0,.02-.02.01-.03,0-.01-.02-.02-.03-.01Z"/>
        <path class="cls-1" d="M18.51,86.2l21.63,2.14c7.21.71,14.42,1.39,21.64,2l21.65,1.9,21.64,2.05c.08,0,.14-.05.15-.14,0-.07-.04-.14-.1-.16l-39.85-11.62c-6.64-1.95-13.3-3.8-19.96-5.68l-19.97-5.63s-.03,0-.03.02c0,.01,0,.03.02.03l19.91,5.9c6.64,1.96,13.27,3.95,19.92,5.84l39.9,11.43.05-.29-21.64-1.93-21.63-2.09c-7.21-.72-14.42-1.36-21.64-1.98l-21.65-1.84s-.02,0-.03.02c0,.01,0,.03.02.03Z"/>
        <path class="cls-1" d="M.03,94.57c3.12-1.31,6.21-2.68,9.3-4.05,3.09-1.36,6.19-2.72,9.25-4.16.04-.02.07-.05.09-.09,2.25-5.04,4.4-10.12,6.73-15.12.01-.03.01-.06,0-.08-2.71-7.58-5.38-15.17-8.16-22.72-1.37-3.78-2.75-7.56-4.18-11.32-1.42-3.76-2.83-7.53-4.29-11.27,0-.01-.02-.02-.03-.01-.01,0-.02.02-.01.03,1.3,3.81,2.65,7.6,3.99,11.39,1.33,3.8,2.71,7.58,4.1,11.35,2.74,7.56,5.59,15.08,8.41,22.62v-.08c-2.21,5.06-4.59,10.02-6.88,15.04l.09-.09c-3.1,1.34-6.17,2.78-9.24,4.2-3.07,1.42-6.14,2.84-9.19,4.32-.01,0-.02.02-.01.03,0,.01.02.02.03.01Z"/>
        <path class="cls-1" d="M30.19,104.76c6.25-.78,12.5-1.64,18.74-2.5,6.25-.84,12.49-1.7,18.72-2.64l18.71-2.74,18.73-2.58c.08-.01.13-.09.12-.17v-.03s-13.86-46.67-13.86-46.67c-2.3-7.78-4.68-15.53-7.04-23.29L77.22.87s-.02-.02-.03-.02c-.01,0-.02.02-.02.03l6.85,23.36c2.29,7.79,4.55,15.58,6.89,23.34l14.02,46.61.11-.19-18.71,2.71-18.74,2.55c-6.25.83-12.49,1.73-18.72,2.66-6.24.91-12.47,1.82-18.7,2.8-.01,0-.02.01-.02.03,0,.01.01.02.03.02Z"/>
        <path class="cls-1" d="M49.25,112.44c1.74,2.44,3.59,4.79,5.39,7.18.02.02.05.04.07.06,1.28.69,2.6,1.29,3.91,1.93l3.92,1.89c2.63,1.23,5.2,2.6,7.78,3.93l-.07-.21c-1.81,3.73-3.51,7.52-5.25,11.29-.88,1.88-1.69,3.79-2.53,5.69-.83,1.9-1.66,3.81-2.46,5.73,0,.01,0,.03.01.03.01,0,.02,0,.03-.01.93-1.85,1.82-3.72,2.71-5.6.89-1.87,1.8-3.73,2.64-5.63,1.71-3.78,3.45-7.55,5.09-11.37.04-.08,0-.17-.06-.21h0c-2.61-1.27-5.24-2.49-7.81-3.87l-3.87-2.01c-1.29-.66-2.57-1.36-3.89-1.97l.07.06c-1.88-2.32-3.71-4.68-5.65-6.94,0-.01-.02-.01-.03,0,0,0,0,.02,0,.03Z"/>
        <path class="cls-1" d="M12.3,35.5c2.82.32,5.65.6,8.47.86,2.83.25,5.65.56,8.48.77,5.65.46,11.32.79,16.97,1.33.05,0,.1-.04.1-.09v-.03s-1.99-10.6-1.99-10.6l-2.05-10.59s-.03-.09-.06-.12c-2.7-2.86-5.38-5.75-8.12-8.56C31.36,5.64,28.65,2.8,25.88,0c0,0-.02,0-.03,0,0,0,0,.02,0,.03,2.63,2.93,5.31,5.82,7.98,8.71,2.65,2.91,5.37,5.75,8.07,8.61l-.06-.12,2.11,10.57,2.17,10.56.1-.12c-5.66-.42-11.3-1.05-16.95-1.55-2.82-.27-5.66-.44-8.48-.67-2.83-.22-5.66-.43-8.49-.58-.01,0-.02,0-.02.02,0,.01,0,.02.02.03Z"/>
        <path class="cls-1" d="M144.99,62.74c-2.22-1.73-4.5-3.38-6.76-5.05-2.25-1.69-4.55-3.29-6.85-4.9l.05.07c-1.48-3.27-2.99-6.53-4.38-9.85l-2.11-4.96c-.73-1.65-1.36-3.3-1.99-5.01-1.27-3.37-2.51-6.75-3.81-10.11-1.33-3.35-2.61-6.71-3.99-10.04,0-.01-.02-.02-.03-.01-.01,0-.02.02-.01.03,1.16,3.42,2.42,6.79,3.63,10.19,1.24,3.38,2.54,6.74,3.81,10.11l.96,2.53,1.11,2.47,2.23,4.91c1.51,3.26,2.89,6.58,4.3,9.89.01.03.03.05.05.07,2.26,1.67,4.52,3.35,6.83,4.94,2.3,1.61,4.59,3.24,6.92,4.79.01,0,.03,0,.03,0,0-.01,0-.03,0-.03Z"/>
      </g>
      <path class="cls-1" d="M134.37,113.93c-3.23,1.69-6.23,3.86-9.05,6.23l.06-.03c-1.89.55-3.76,1.2-5.57,2-.91.4-1.8.84-2.66,1.36-.85.52-1.7,1.09-2.4,1.88l.1-.06c-2.01.63-3.99,1.33-5.96,2.1-1.96.79-3.94,1.53-5.77,2.69l.09-.03c-2.44.09-4.88.27-7.31.55-1.21.14-2.42.32-3.63.55-1.2.24-2.4.52-3.52,1.07h.06c-2.56-1.39-5.09-2.84-7.68-4.19-1.29-.67-2.58-1.34-3.9-1.97-.66-.31-1.32-.62-1.99-.9-.67-.29-1.35-.54-2.08-.7l.08.04c-1.76-1.72-3.61-3.32-5.55-4.8-1.94-1.44-3.93-2.96-6.26-3.63-.03,0-.06.01-.07.04,0,.03.01.06.04.07.56.19,1.1.44,1.63.72.52.3,1.04.6,1.54.94,1.01.66,1.99,1.37,2.93,2.13,1.9,1.52,3.73,3.13,5.52,4.79.02.02.06.04.08.04.68.14,1.36.38,2.03.65.67.26,1.33.56,1.99.85,1.32.6,2.62,1.25,3.92,1.9,2.59,1.33,5.18,2.66,7.7,4.13.02.01.04,0,.06,0,1.1-.52,2.3-.78,3.5-1,1.2-.21,2.41-.37,3.62-.49,2.42-.24,4.86-.38,7.29-.44.03,0,.06-.01.09-.03,1.77-1.1,3.77-1.82,5.73-2.57,1.97-.73,3.96-1.4,5.95-2.07.04-.01.07-.04.1-.06.64-.73,1.45-1.3,2.28-1.82.83-.52,1.71-.96,2.6-1.37,1.78-.81,3.63-1.48,5.5-2.05.02,0,.04-.02.06-.03,2.8-2.37,5.72-4.63,8.88-6.43.02,0,.02-.03.02-.05,0-.02-.03-.03-.05-.02Z"/>
      <path class="cls-1" d="M118,102.87c.4-2.38.94-4.74,1.5-7.08.56-2.34,1.2-4.66,1.96-6.94.75-2.27,1.6-4.52,2.67-6.63.25-.54.52-1.06.83-1.57.3-.5.56-1.04.91-1.51.33-.48.64-.98,1-1.44l1.13-1.31h.01c.07-.1.07-.23,0-.31l-6.68-7.43h0c-1.05-1.32-2.1-2.64-3.19-3.94-.54-.65-1.09-1.29-1.67-1.9-.3-.3-.56-.62-.95-.86-.43-.11-.76-.23-1.16-.38-3.04-1.18-6.01-2.61-8.99-3.96h-.04s-6.91-.48-6.91-.48c-.02,0-.04,0-.06,0-1.39.45-2.77.92-4.15,1.41h-.02c-2.37,1.22-4.75,2.39-7.09,3.66-.03.01-.04.05-.02.08.01.03.05.04.07.03,2.42-1.1,4.8-2.28,7.19-3.43h-.02c1.39-.44,2.77-.91,4.15-1.4h-.06s6.91.34,6.91.34h-.04c3,1.32,6.01,2.61,9.03,3.86.36.15.8.3,1.15.4.31.21.6.54.88.84.56.62,1.1,1.27,1.63,1.92,1.06,1.31,2.1,2.64,3.12,3.99h0s6.58,7.54,6.58,7.54v-.31s-1.18,1.33-1.18,1.33c-.37.46-.69.97-1.04,1.46-.37.47-.61,1.03-.92,1.54-.31.52-.58,1.05-.82,1.6-1.06,2.16-1.88,4.43-2.62,6.73-1.47,4.59-2.51,9.34-3.2,14.14,0,.02.01.04.03.04.02,0,.04-.01.04-.03Z"/>
      <path class="cls-1" d="M122.95,80.05s-.82,1.15-1.82,3.02c-.5.94-1.05,2.05-1.59,3.27-.54,1.22-1.01,2.57-1.45,3.93-.42,1.37-.81,2.74-1.16,4.04-.36,1.29-.69,2.51-.86,3.58-.15,1.07-.23,1.98-.2,2.61,0,.64.03,1,.03,1,0,.03.03.06.06.06.03,0,.05-.03.05-.05,0,0,.05-.36.12-.98.04-.63.17-1.5.3-2.57.17-1.05.3-2.3.62-3.61.3-1.31.77-2.65,1.28-3.97,1.09-2.61,2.22-5.2,3.13-7.11.91-1.91,1.55-3.17,1.55-3.17,0-.02,0-.04-.01-.05-.02,0-.03,0-.04.01Z"/>
      <path class="cls-1" d="M119.81,82.52s-.76.84-1.72,2.24c-.48.7-1.02,1.54-1.55,2.47-.53.93-1.03,1.96-1.49,3.01-.45,1.06-.89,2.11-1.31,3.11-.42.99-.83,1.91-1.08,2.75-.24.84-.4,1.55-.44,2.06-.06.51-.07.8-.07.8,0,.03.02.06.05.06.03,0,.05-.02.06-.04,0,0,.09-.28.22-.76.11-.49.32-1.17.52-2.01.25-.82.47-1.81.84-2.81.37-1.01.88-2.03,1.42-3.03,1.14-1.96,2.28-3.91,3.13-5.38.88-1.46,1.46-2.43,1.46-2.43.01-.02,0-.04-.01-.05-.01,0-.03,0-.04,0Z"/>
      <path class="cls-1" d="M132.31,112.54c-3.12,1.3-6.23,2.97-8.55,5.67l.07-.05c-1.69.66-3.36,1.36-5.01,2.13-1.64.79-3.3,1.54-4.78,2.72l.06-.03c-1.83.75-3.66,1.51-5.47,2.31l-2.71,1.23c-.9.43-1.79.85-2.65,1.4l.06-.02c-2.23,0-4.45.07-6.67.25-2.22.17-4.45.35-6.61,1h.07c-2.47-1.15-4.93-2.31-7.42-3.42-2.51-1.04-4.99-2.17-7.57-3.01-.03,0-.06,0-.07.04,0,.03,0,.06.03.07,2.5,1.06,4.99,2.14,7.47,3.27l7.47,3.27s.05.01.07,0c2.11-.68,4.34-.94,6.55-1.11,2.22-.14,4.44-.16,6.66-.12.02,0,.05,0,.06-.02.84-.51,1.75-.91,2.64-1.32l2.72-1.17c1.82-.76,3.66-1.49,5.5-2.2l.05-.03h.01c1.43-1.08,3.06-1.9,4.68-2.69,1.63-.78,3.28-1.51,4.95-2.19.03-.01.05-.03.07-.05,1.09-1.33,2.45-2.41,3.86-3.35,1.42-.95,2.91-1.79,4.46-2.49.02,0,.03-.03.02-.05,0-.02-.03-.03-.05-.02Z"/>
      <path class="cls-1" d="M137.21,115.87c-1.52,1.46-2.82,3.18-3.96,5-1.14,1.82-2.19,3.7-3.1,5.68l.14-.13c-2.08.69-4.14,1.42-6.18,2.23-2.03.81-4.05,1.69-5.96,2.79h0c-4.27,1.44-8.61,2.68-12.78,4.43-.03.01-.04.05-.03.08.01.03.04.04.07.04,4.34-1.21,8.53-2.93,12.78-4.44h0c1.91-1.09,3.96-1.86,6.01-2.62,2.05-.74,4.13-1.42,6.21-2.04.06-.02.12-.07.14-.13.87-1.95,1.86-3.86,2.96-5.69,1.12-1.81,2.32-3.57,3.73-5.15.01-.01.01-.04,0-.05-.01-.01-.03-.01-.05,0Z"/>
      <path class="cls-1" d="M91.25,126.53c-1.02-.79-2.18-1.34-3.32-1.9-1.15-.55-2.31-1.04-3.49-1.51-2.35-.93-4.72-1.81-7.1-2.63l.09.06c-1.25-1.55-2.54-3.05-3.88-4.52-.67-.73-1.35-1.45-2.08-2.12-.74-.66-1.46-1.34-2.39-1.8l.12.13c-.34-.96-.68-1.91-1.05-2.86-.38-.94-.71-1.89-1.27-2.8-.01-.02-.03-.04-.05-.05l-5-2.92-2.52-1.41c-.85-.45-1.69-.93-2.59-1.29l.05.08c.17-1.87.3-3.75.42-5.63.09-1.88.16-3.77-.03-5.66v.04c.58-3.02,1.06-6.06,1.18-9.16v.06c1-3.34,2.07-6.66,3.01-10.03,0-.03,0-.06-.04-.07-.03,0-.06,0-.07.04-1.16,3.29-2.18,6.62-3.27,9.94v.06c-.07,3.06-.5,6.11-1.02,9.12v.04c.22,1.86.18,3.75.12,5.62-.06,1.88-.22,3.75-.43,5.62,0,.04.02.07.05.08.87.37,1.71.86,2.55,1.33l2.5,1.46,4.95,3.01-.05-.05c.48.82.83,1.8,1.18,2.73.35.95.68,1.9,1,2.86.02.06.06.1.1.12h.01c.8.42,1.53,1.1,2.24,1.76.7.68,1.39,1.38,2.06,2.1,1.34,1.44,2.65,2.92,3.91,4.44.02.03.06.05.09.06,2.39.79,4.76,1.63,7.11,2.53,1.17.46,2.35.92,3.51,1.41,1.15.51,2.31,1.01,3.36,1.76.02.01.04,0,.05,0,.01-.02,0-.04,0-.05Z"/>
      <path class="cls-1" d="M127,108.95c-2.22,1.62-4.16,3.62-6,5.7l.05-.04-4.36,1.7-2.18.87-1.08.45c-.34.15-.75.3-1.11.54l-4.34,1.54c-1.47.52-2.94,1.02-4.4,1.63h.12s-4.76-.98-4.76-.98c-1.59-.3-3.17-.63-4.81-.78l.07.02-10.81-4.83.07.06c-.91-1.24-1.86-2.44-2.85-3.61-.5-.58-1.01-1.15-1.55-1.7-.54-.53-1.1-1.07-1.79-1.44l.07.09-1.22-4.51s-.02-.05-.04-.06l-6.18-4.5.03.06c.03-1.4,0-2.79-.08-4.19-.1-1.39-.17-2.81-.68-4.13v.06s2.19-6.45,2.19-6.45v-.02c.32-2.71.6-5.42.53-8.18l-.03.1c1.83-2.83,3.66-5.66,5.45-8.52l-.04.05c3.05-2.28,6.12-4.54,9.14-6.88.02-.02.03-.06.01-.08-.02-.03-.05-.03-.08-.02-3.12,2.19-6.19,4.45-9.27,6.69-.02.01-.03.03-.04.05-1.84,2.82-3.63,5.67-5.42,8.53-.02.03-.03.07-.03.1.1,2.71-.15,5.43-.43,8.13v-.02s-2.11,6.47-2.11,6.47c0,.02,0,.04,0,.06.51,1.27.6,2.7.71,4.08.1,1.39.09,2.79.05,4.18,0,.02.01.04.03.06l6.13,4.57-.04-.06,1.18,4.52s.04.07.07.09c.62.35,1.17.88,1.7,1.41.52.54,1.02,1.11,1.51,1.7.97,1.17,1.91,2.38,2.8,3.62.02.03.04.05.07.06l10.77,4.94s.04.02.06.02h.01c1.57.18,3.18.49,4.76.77l4.76.93s.08,0,.12-.01c1.42-.61,2.9-1.12,4.36-1.66l2.2-.79,1.1-.4c.39-.15.68-.23,1.15-.47.3-.18.62-.31,1-.48l1.08-.45,2.17-.89,4.34-1.74s.04-.02.05-.04c1.78-2.11,3.68-4.15,5.85-5.81.02-.01.02-.03,0-.05-.01-.02-.03-.02-.05,0Z"/>
      <path class="cls-1" d="M132.18,72.83c-2.19-3.39-4.83-6.42-7.63-9.24l.03.03c-1.84-2.56-3.65-5.16-6.02-7.26-.59-.54-1.34-.88-2.01-1.19l-2.05-1.01c-1.37-.67-2.76-1.31-4.17-1.88-1.41-.56-2.85-1.07-4.34-1.36-1.49-.27-3-.29-4.5-.17-1.49.15-2.99.4-4.41.95l-4.23,1.57h-.03c-1.34.81-2.65,1.66-3.97,2.5-1.32.84-2.63,1.68-3.93,2.56-.03.02-.03.05-.02.08.02.03.05.03.07.02,1.36-.76,2.69-1.57,4.03-2.38,1.33-.81,2.68-1.6,3.98-2.46h-.03s4.2-1.67,4.2-1.67c1.38-.57,2.87-.86,4.34-1.04,1.48-.18,2.99-.14,4.46.18,1.47.32,2.88.86,4.28,1.45,1.39.6,2.76,1.27,4.11,1.96l2.03,1.05c.7.36,1.35.65,1.9,1.18,1.13,1.02,2.12,2.23,3.12,3.42.99,1.21,1.94,2.46,2.85,3.72l.03.03c1.42,1.37,2.78,2.82,4.09,4.32,1.3,1.51,2.58,3.03,3.74,4.67.01.02.03.02.05,0,.01-.01.02-.03,0-.05Z"/>
      <path class="cls-1" d="M134.08,71.34s-.41-.93-1.42-2.36c-.99-1.44-2.54-3.4-4.63-5.51-.53-.52-1.08-1.06-1.71-1.56-.68-.49-1.25-.95-1.8-1.61-1.11-1.27-2.13-2.76-3.31-4.21-.6-.72-1.22-1.44-1.97-2.07-.75-.69-1.73-.88-2.55-1.3-1.72-.8-3.46-1.62-5.21-2.44-1.75-.8-3.51-1.61-5.31-2.18-.9-.3-1.86-.34-2.77-.31-.92.02-1.82.1-2.7.21-1.77.22-3.46.58-5.05.96-.8.18-1.57.34-2.32.47-.74.19-1.5.1-2.2.44-1.34.68-2.33,1.56-3.26,2.29-.92.75-1.7,1.43-2.33,1.99-1.27,1.13-1.96,1.82-1.96,1.82-.02.02-.02.06,0,.08.02.02.05.03.08,0,0,0,.74-.62,2.05-1.7.65-.54,1.44-1.2,2.37-1.93.92-.71,2-1.54,3.2-2.22.59-.32,1.38-.26,2.13-.47.75-.15,1.53-.33,2.32-.53,1.58-.42,3.25-.81,5.01-1.07,1.74-.23,3.62-.5,5.41.1,1.78.6,3.52,1.45,5.25,2.28,1.73.85,3.46,1.7,5.17,2.54.86.46,1.79.65,2.44,1.29.69.6,1.29,1.33,1.87,2.05,1.16,1.44,2.22,2.9,3.37,4.18.55.65,1.27,1.21,1.87,1.63.61.48,1.17,1,1.7,1.51,2.1,2.06,3.66,3.99,4.71,5.36,1.05,1.38,1.5,2.29,1.5,2.29,0,.02.03.03.05.02.02,0,.02-.03.01-.05Z"/>
      <path class="cls-1" d="M124.52,107.3s-.52,1.39-2.16,3.26c-.41.47-.88.97-1.42,1.47-.55.48-1.12,1.1-1.9,1.33-1.58.53-3.46.83-5.47,1.37-.5.15-1.02.29-1.53.53-.51.29-.94.55-1.46.76-1.03.42-2.12.79-3.26,1.12-1.13.32-2.33.68-3.5.8-1.18-.06-2.47-.34-3.74-.52-1.28-.19-2.59-.4-3.93-.49-.31-.04-.73,0-1.01,0-.35,0-.57-.13-.91-.24-.62-.24-1.24-.54-1.85-.85-1.23-.62-2.44-1.3-3.66-1.99l-1.82-1.06-.97-.57c-.08-.18-.45-.48-.67-.72l-3.02-3.04-1.47-1.54c-.5-.48-.75-1.19-1.09-1.82-.62-1.29-1.24-2.61-2.17-3.66-.82-1.11-1.84-2.1-2.39-3.32-.65-2.64-1.11-5.34-1.71-7.74-.07-1.24.09-2.47.24-3.64.09-.58.18-1.16.26-1.72.12-.54.28-1.08.43-1.61.59-2.06,1.17-4.15,1.36-5.76.79-1.56,1.59-2.87,2.23-3.95,1.28-2.17,2.01-3.41,2.01-3.41.02-.03,0-.06-.02-.08-.02-.02-.06,0-.08.02,0,0-.8,1.19-2.14,3.33-.65,1.08-1.47,2.36-2.3,3.94-.27,1.79-.86,3.68-1.41,5.81-.14.53-.29,1.06-.41,1.65-.08.57-.16,1.15-.24,1.74-.14,1.18-.28,2.42-.19,3.71.65,2.48,1.13,5.07,1.82,7.77.6,1.28,1.62,2.21,2.45,3.33.91,1.06,1.5,2.36,2.11,3.67.33.63.57,1.35,1.09,1.87l1.46,1.57,2.98,3.09c.29.27.41.48.85.81.16.16.56.36.83.54l1.81,1.09c1.21.71,2.42,1.41,3.65,2.05.62.32,1.23.63,1.88.89.29.12.71.28,1.04.28.38,0,.64-.03.99,0,1.31.11,2.61.33,3.89.54,1.29.19,2.51.44,3.82.5,1.3-.15,2.44-.52,3.6-.86,1.14-.35,2.24-.73,3.28-1.17.52-.21,1.05-.52,1.47-.78.47-.23.98-.38,1.47-.52,1.98-.56,3.86-.88,5.48-1.44.86-.26,1.42-.92,1.96-1.42.53-.53.99-1.05,1.39-1.53,1.61-1.94,2.1-3.36,2.1-3.36,0-.02,0-.04-.01-.05-.02,0-.04,0-.05.02Z"/>
      <path class="cls-1" d="M89.06,65.69s-.59.36-1.56,1.11c-.98.74-2.28,1.93-3.7,3.5-.69.8-1.5,1.63-2.13,2.73-.62,1.07-1.25,2.2-1.89,3.38-.61,1.22-1.28,2.37-1.92,3.7-.45,1.36-.86,2.75-1.23,4.16-.45,1.4-.44,2.91-.5,4.33-.03.72-.07,1.43-.1,2.13-.01.35-.11.69-.11,1.04,0,.36.05.7.1,1.04.2,1.36.49,2.66.74,3.88.06.31.13.61.19.91.08.29.04.58.27.91.33.5.69.93,1.03,1.35.68.83,1.36,1.54,1.94,2.18l.11.12.05.06s.04.17.01-.11c.07-.05,0,.1.03.21.02.13.03.13.04.2.06.2.11.4.16.58.11.37.21.71.3,1.02.38,1.22.6,1.91.6,1.91,0,.03.04.05.07.04.03,0,.04-.04.04-.07,0,0-.17-.71-.46-1.95-.07-.31-.16-.65-.25-1.03-.04-.19-.09-.38-.13-.58,0-.03-.03-.14-.03-.11-.01,0-.06.05-.04-.1-.05-.33-.07-.17-.08-.24l-.05-.06-.11-.12c-.58-.65-1.23-1.38-1.94-2.18-.35-.4-.72-.82-1.04-1.28-.16-.14-.17-.49-.25-.79-.07-.3-.14-.6-.21-.9-.29-1.22-.6-2.5-.84-3.85-.05-.33-.11-.68-.12-1.01,0-.34.08-.69.09-1.04.05-.7.11-1.41.16-2.13.1-1.44.12-2.89.6-4.26.41-1.38.85-2.77,1.32-4.1.6-1.18,1.35-2.43,1.98-3.59.63-1.18,1.25-2.32,1.83-3.4.57-1.05,1.36-1.91,2.03-2.71,2.78-3.18,5.06-4.8,5.06-4.8.02-.01.02-.03,0-.05-.01-.02-.03-.02-.05-.01Z"/>
      <path class="cls-1" d="M83.4,105.08c1.52,1.81,3.05,3.61,4.61,5.37l.03.03,4.22,2.75,2.14,1.33c.36.21.73.41,1.11.61l.3.14c.11.04.28.09.36.09l.6.07,4.87.71c.82.09,1.61.28,2.47.26.84-.21,1.58-.52,2.36-.81,1.54-.59,3.05-1.24,4.6-1.81.77-.17,1.61-.27,2.41-.42l2.42-.48c.8-.18,1.6-.36,2.4-.65.2-.09.39-.13.61-.35l.4-.48.83-.95c1.11-1.27,2.21-2.62,2.91-4.21.01-.03,0-.07-.03-.08-.03-.01-.06,0-.07.02-.83,1.49-1.96,2.75-3.07,4.01l-.85.95-.4.5c-.07.09-.29.19-.46.26-.74.3-1.54.51-2.33.71-.79.2-1.59.38-2.39.55-.8.18-1.6.29-2.42.5-1.52.64-3.06,1.22-4.61,1.77-.77.27-1.56.56-2.32.73-.77,0-1.61-.21-2.41-.32l-4.86-.84-.62-.09c-.18-.02-.29-.1-.5-.2l-1.07-.62-2.15-1.28-4.26-2.66.03.03c-1.57-1.75-3.18-3.47-4.8-5.18-.01-.01-.04-.01-.05,0-.01.01-.01.04,0,.05Z"/>
      <path class="cls-1" d="M120.31,91.94c0,4.48.47,8.95,1.1,13.39l.05-.16c-1.26,1.22-2.52,2.44-3.75,3.71-.33.28-.58.75-.89.87-.35.16-.77.3-1.17.43-.81.26-1.63.49-2.46.72-.83.24-1.65.44-2.48.72-.79.31-1.61.55-2.43.8l-2.46.71-1.24.31c-.21.04-.41.1-.57.07l-.63-.11-5.07-.91c-.41-.09-.87-.12-1.24-.25-.38-.15-.78-.34-1.17-.53l-2.31-1.2-2.29-1.25-1.15-.63c-.33-.12-.29-.23-.5-.39l-.48-.46c-1.27-1.23-2.55-2.47-3.79-3.73l.02.03-.42-1.79c-.16-.6-.25-1.19-.46-1.8-.49-1.14-1.1-2.18-1.71-3.24l.02.05-.31-3.69c-.04-.62-.14-1.22-.12-1.85v-1.86c0-.62,0-1.24.06-1.83.02-.15.04-.29.08-.39.06-.13.12-.31.17-.45l.28-.89,1-3.56-.02.04c1.11-1.84,2.22-3.7,3.29-5.57.02-.03,0-.06-.02-.08-.03-.02-.06,0-.07.02-1.18,1.8-2.32,3.63-3.45,5.46l-.02.04-1.05,3.53-.29.87c-.05.15-.09.26-.16.41-.08.19-.09.36-.11.52-.06.64-.05,1.26-.04,1.88l.03,1.86c0,.6.1,1.24.15,1.85l.37,3.72s0,.04.02.05c.62,1.04,1.25,2.08,1.74,3.18.2.55.31,1.18.48,1.76l.45,1.79.02.03,3.78,3.75.47.47c.11.14.45.38.53.42l1.14.65,2.28,1.29,2.3,1.24c.39.2.78.39,1.2.56.45.16.85.19,1.28.28l5.06.98.63.12c.27.04.49-.03.7-.07l1.26-.3,2.48-.68c.82-.24,1.65-.46,2.46-.77l2.45-.73c.82-.24,1.65-.48,2.46-.76.41-.14.81-.27,1.24-.48.26-.1.4-.31.53-.47l.44-.48c1.21-1.27,2.46-2.51,3.7-3.74.04-.04.06-.1.05-.16-.64-4.42-1.2-8.86-1.36-13.34,0-.02-.02-.04-.04-.04-.02,0-.03.02-.03.04Z"/>
      <path class="cls-1" d="M119.07,96.89l.56,7.21.04-.12-3.85,4.01.06-.04-5.82,2.12h.02s-2.97.67-2.97.67l-1.49.31c-.48.09-1.02.2-1.45.22-.97-.09-1.98-.33-2.97-.53l-2.98-.66.05.02-6.26-3.55h.01s-4.93-3.41-4.93-3.41l.04.05c-.37-1.03-.76-2.05-1.11-3.08l-.95-3.15h0c-.11-1.42-.18-2.85-.24-4.29v-.27c-.03-.06.05-.08-.08-.06.1-.06.06-.11.1-.18l.08-.55.14-1.07.26-2.13v.02s1.32-4.23,1.32-4.23v.02s2.43-5.31,2.43-5.31l-.04.05c1.4-1.42,2.77-2.9,4.23-4.24.35-.37.73-.57,1.21-.76l1.34-.6,2.66-1.25s.04-.05.03-.08c-.01-.03-.05-.04-.07-.03l-2.72,1.12-1.35.58c-.23.1-.44.18-.68.3-.24.15-.41.31-.61.48-1.49,1.35-2.9,2.76-4.29,4.21-.01.02-.03.04-.04.05l-2.35,5.36v.02s-1.26,4.25-1.26,4.25v.02s-.24,2.13-.24,2.13l-.12,1.07-.07.51s-.03.06.04.08c-.13.11-.06.18-.08.21v.27s.28,4.3.28,4.3h0s.9,3.18.9,3.18c.33,1.05.71,2.07,1.07,3.11,0,.02.02.04.04.05l4.88,3.49h.01s6.21,3.65,6.21,3.65l.05.02,2.98.71c1,.22,1.98.47,3.03.58.58-.03,1.04-.15,1.56-.24l1.49-.33,2.97-.71h.02s5.8-2.2,5.8-2.2c.02,0,.05-.02.06-.04l3.81-4.06s.04-.08.04-.12l-.76-7.19s-.02-.04-.04-.03c-.02,0-.03.02-.03.04Z"/>
      <path class="cls-1" d="M129.86,74.66c-.72-1.75-1.83-3.31-2.98-4.76-1.16-1.46-2.37-2.87-3.67-4.19l.02.02c-1.19-1.49-2.4-2.96-3.63-4.41-.62-.72-1.24-1.44-1.89-2.13-.33-.35-.65-.69-1.02-.99-.39-.29-.81-.46-1.22-.7-1.65-.86-3.31-1.67-4.97-2.49-1.67-.81-3.35-1.57-5.11-2.16-.03,0-.06,0-.07.04,0,.03,0,.06.03.07h0c1.65.82,3.31,1.65,5.01,2.37,1.69.74,3.38,1.49,5.05,2.28.41.2.85.38,1.2.68.34.31.66.66.97,1.02.62.71,1.22,1.45,1.81,2.2,1.18,1.49,2.34,3,3.49,4.52l.02.02c1.27,1.32,2.55,2.65,3.72,4.08,1.16,1.44,2.31,2.89,3.18,4.56,0,.02.03.02.05.01.02,0,.02-.03.01-.05Z"/>
      <path class="cls-1" d="M85.65,60.02c.97-.62,2-1.11,3.03-1.62l3.1-1.47c1.02-.5,2.1-.94,3.09-1.53,1.01-.55,2-1.13,2.99-1.73h0s-.03,0-.03,0c1.24.27,2.49.5,3.75.69,1.25.21,2.51.37,3.78.42.03,0,.06-.02.06-.06,0-.03-.02-.05-.04-.06-1.24-.32-2.49-.52-3.75-.67-1.26-.18-2.52-.31-3.78-.41h-.03s0,0,0,0c-1.05.47-2.09.95-3.12,1.45-.52.23-1.03.54-1.54.74l-1.57.7c-2.06,1.01-4.16,1.99-5.97,3.49-.02.01-.02.04,0,.05.01.02.03.02.05,0Z"/>
      <path class="cls-1" d="M128.63,75.62s-1.19-1.57-3.1-3.82c-1.89-2.27-4.41-5.29-6.99-8.26-.65-.74-1.3-1.47-1.98-2.17-.32-.34-.7-.71-1.15-.84-.42-.2-.83-.4-1.23-.6-1.61-.79-3.12-1.52-4.41-2.15-2.59-1.25-4.39-1.89-4.39-1.89-.03-.01-.06,0-.07.03-.01.03,0,.06.03.08,0,0,1.67.96,4.29,2.12,1.32.57,2.85,1.24,4.5,1.96.8.4,1.75.59,2.33,1.41.65.71,1.27,1.48,1.89,2.24,1.23,1.54,2.45,3.08,3.6,4.53,1.22,1.38,2.36,2.67,3.33,3.78,1.93,2.23,3.3,3.64,3.3,3.64.01.02.03.02.05,0,.01-.01.01-.04,0-.05Z"/>
      <path class="cls-1" d="M125.43,78.14c-.78-1.28-1.66-2.49-2.55-3.69-.45-.59-.91-1.18-1.39-1.75-.48-.57-.94-1.15-1.52-1.66-.67-.37-1.2-.8-1.81-1.23l-1.75-1.32-1.76-1.31c-.3-.2-.59-.46-.97-.59l-1-.4-4.04-1.51-2.02-.75c-.66-.23-1.35-.58-2.09-.61-1.43-.15-2.85-.2-4.26-.3-.36,0-.69-.11-1.08-.05-.36.04-.71.11-1.06.19-.7.16-1.38.36-2.07.57h-.01c-2.06,1.15-4.18,2.17-6.26,3.25l-.02.02-5.48,5.27c-.44.46-.9.88-1.33,1.37l-1.27,1.42c-.85.94-1.69,1.91-2.51,2.88-.02.02-.02.06,0,.08.02.02.05.02.08,0,.89-.9,1.78-1.82,2.64-2.75l1.3-1.39c.42-.45.9-.88,1.35-1.32l5.36-5.4-.02.02c2.08-1.1,4.13-2.27,6.23-3.32h-.01c.68-.19,1.37-.37,2.07-.51.71-.17,1.36-.22,2.09-.09,1.42.13,2.84.22,4.25.39.7.04,1.32.38,2,.63l2.01.79,4.01,1.58,1.01.38c.31.09.58.33.89.52l1.77,1.28,1.77,1.29c.58.41,1.21.89,1.82,1.2.52.45,1.01,1.03,1.49,1.59l1.41,1.72c.93,1.15,1.85,2.32,2.69,3.56.01.02.03.02.05,0,.01-.01.02-.03,0-.05Z"/>
      <path class="cls-1" d="M87.83,63.49c1.76-.96,3.63-1.68,5.47-2.47l1.39-.58c.09-.05.26-.09.42-.27,0,.11.12,0,.24-.01l.72-.19,2.9-.71h-.08c2.13.41,4.28.69,6.41,1.04h-.03c2.83,1.06,5.67,2.1,8.46,3.3.34.16.7.31.99.54l.82.83,1.63,1.67,3.26,3.34-.04-.05c1.12,2.09,2.28,4.16,3.52,6.18.02.03.05.04.08.02.02-.02.03-.05.02-.08-1.04-2.14-2.16-4.24-3.32-6.3l-.04-.05-3.35-3.23-1.67-1.62-.84-.81c-.33-.25-.68-.36-1.02-.54-2.76-1.28-5.57-2.41-8.39-3.55,0,0-.03,0-.03,0-2.13-.38-4.26-.82-6.4-1.14-.03,0-.06,0-.08,0l-2.89.77-.72.21c-.11.06-.23.02-.47.23-.04-.02-.1.03-.24.09l-1.37.61c-1.83.8-3.67,1.63-5.38,2.72-.02.01-.02.03-.01.05,0,.02.03.02.05.01Z"/>
      <path class="cls-1" d="M123.71,79.49c-1.29-2.53-3.1-4.7-4.99-6.74,0,0-.03-.02-.03-.02-1.86-1.31-3.72-2.61-5.62-3.84,0,0-.03-.02-.03-.02l-7.73-3.15h-.02c-1.75-.06-3.49-.25-5.24-.38h0c-.83,0-1.67,0-2.5.06-.21.01-.42.03-.63.06-.11.02-.21.03-.36.11-.19.31-.17.22-.24.24l-.51.29-.55.29c-1.48.78-2.99,1.51-4.46,2.33-.03.01-.04.05-.02.08.01.03.04.04.07.03,1.56-.61,3.08-1.31,4.58-2.08l.55-.31c.19-.12.34-.2.57-.37.12-.08.28-.34.19-.22.03-.02.15-.05.24-.07.19-.04.4-.06.6-.08.82-.08,1.65-.12,2.48-.15h0c1.75.1,3.5.14,5.24.31h-.02s7.64,3.39,7.64,3.39l-.03-.02c1.85,1.33,3.73,2.58,5.63,3.83l-.03-.02c.96.98,1.89,2.02,2.76,3.09.86,1.09,1.72,2.18,2.44,3.39.01.02.03.02.05.01.02-.01.02-.03.01-.05Z"/>
      <path class="cls-1" d="M121.13,81.53c-.22-.59-.55-1.14-.86-1.68l-.98-1.6c-.66-1.06-1.35-2.1-2.06-3.12l-.04-.04-4.84-3.47-.03-.02-6.98-2.97-.06-.02c-2.66-.29-5.33-.54-7.99-.76-.03,0-.07,0-.1.02l-5.18,3.03h0c-2.39,1.24-4.52,2.9-6.63,4.56l-.02.02c-1.02,2.14-2.11,4.24-3.16,6.36h0s-1.88,5.13-1.88,5.13c0,.02-.01.05,0,.07.27,3.49.6,6.98.97,10.46v.05c.56,1.29,1.14,2.56,1.71,3.83.01.03.05.04.07.03.03-.01.04-.05.03-.08-.51-1.31-1.01-2.61-1.55-3.9v.05c-.26-3.49-.57-6.98-.95-10.46v.07s1.78-5.16,1.78-5.16h0c1.03-2.12,2.03-4.28,3.09-6.39l-.02.02c2.13-1.62,4.3-3.24,6.67-4.42h0s5.23-2.95,5.23-2.95l-.1.02,7.98.88-.06-.02,7.01,2.88-.03-.02,4.88,3.41-.04-.04,2.13,3.06,1.03,1.56c.33.53.66,1.05.9,1.63,0,.02.03.03.05.02.02,0,.02-.03.02-.05Z"/>
      <path class="cls-1" d="M88.05,78.01c.74-.99,1.6-1.86,2.42-2.76l2.51-2.67-.06.04c1.69-.73,3.39-1.44,5.08-2.18l-.07.02,2.92-.21h-.06c1.82.51,3.68.92,5.48,1.51,1.81.59,3.63,1.12,5.42,1.78h-.01s4.67,2.92,4.67,2.92l-.07-.1c.67,2.42,1.43,4.81,2.27,7.18.01.03.04.05.07.04.03-.01.04-.04.03-.07-.61-2.44-1.29-4.86-2.08-7.25-.01-.04-.04-.08-.07-.1l-4.76-2.76h-.01c-1.82-.56-3.6-1.24-5.4-1.86-1.8-.66-3.63-1.12-5.45-1.68h-.06s-2.93.12-2.93.12c-.03,0-.05,0-.07.02-1.69.74-3.36,1.52-5.04,2.28-.02,0-.04.02-.06.04-1.65,1.81-3.34,3.61-4.74,5.67-.01.02,0,.04,0,.05.02.01.04,0,.05,0Z"/>
      <path class="cls-1" d="M117.19,84.64c-.38-2.3-.99-4.54-1.64-6.77-.01-.04-.03-.07-.06-.09l-2.32-1.77-1.19-.84c-.21-.13-.41-.27-.65-.38-.07-.03-.11-.06-.27-.07-.08.02-.16.03-.21.15-.01.03-.02.06-.03.09v.04c-.02.1.02-.12.01-.1h0s0,.02,0,.02c-.03-.05.18-.15.1-.11-.06,0-.18-.02-.29-.05-.88-.24-1.79-.58-2.68-.89l-2.67-1.01s-.04-.01-.06-.01l-3.89-.14h-.04s-2.38.83-2.38.83h-.02c-1.37.77-2.72,1.59-4.12,2.31h-.02s-4.21,4.54-4.21,4.54l-.02.02c-.95,1.46-1.86,2.93-2.75,4.43l.02-.03c-.76.79-1.51,1.59-2.24,2.41-.02.02-.02.06,0,.08.02.02.05.02.07,0,.81-.73,1.6-1.48,2.39-2.24l.02-.03c.94-1.46,1.85-2.95,2.73-4.45l-.02.02,4.08-4.66h-.02c1.36-.78,2.77-1.48,4.15-2.23h-.01s2.41-.74,2.41-.74h-.04s3.89.26,3.89.26h-.06c1.78.7,3.51,1.51,5.39,2,.13.02.24.05.41.05-.02.04.26-.08.26-.17v-.02s0,0,0,0c0,.02.03-.2.02-.1v.03s0,.05-.02.07c-.06.08-.08.1-.14.1-.04,0,.03,0,.07.03.19.09.4.22.6.34l1.19.81,2.34,1.71-.06-.09c.66,2.22,1.36,4.43,1.88,6.68,0,.02.02.03.04.03.02,0,.03-.02.03-.04Z"/>
      <path class="cls-1" d="M118.87,103.46c-1.25,1.19-2.68,2.16-4.03,3.22l.04-.02-5.48,1.75h.04c-1.85.14-3.7.29-5.54.51h.06s-4.83-.94-4.83-.94l.05.02-5.27-3.21h0c-1.75-.77-3.46-1.64-5.18-2.47l.04.04-1.49-2.55.02.05-.63-3.11v.02c-.12-1.46-.26-2.92-.43-4.37v-.04c-.35-.86-.72-1.72-1.08-2.57-.01-.03-.05-.04-.07-.03-.03.01-.04.04-.03.07.29.88.58,1.77.9,2.65v-.04c.09,1.46.22,2.92.36,4.38v.03s.72,3.09.72,3.09l.02.05,1.56,2.5s.03.03.04.04c1.74.8,3.49,1.56,5.2,2.42h0s5.19,3.35,5.19,3.35l.05.02,4.81,1.06h.06c1.85-.13,3.69-.32,5.54-.52h.04s5.45-1.87,5.45-1.87l.04-.02c1.36-1.06,2.7-2.16,3.91-3.42.01-.01.01-.04,0-.05-.01-.01-.04-.01-.05,0Z"/>
      <path class="cls-1" d="M114.94,86.41l-.83-6.29s-.02-.07-.05-.09l-3.5-2.82-.05-.03-5.25-1.84h-.04s-3.46-.35-3.46-.35c-.03,0-.05,0-.08,0l-2.13.68h-.03s-3.72,1.95-3.72,1.95l-.05.03-4.03,3.79-.03.04-2.3,3.68c-.76,1.24-1.48,2.49-2.23,3.74-.02.03-.02.06-.02.09l.35,3.53v-.02s-.21,4.12-.21,4.12c0,.02,0,.03,0,.05l1.4,2.83v.02s2.02,1.86,2.02,1.86h.01s4.61,2.1,4.61,2.1h0s4.6,2.69,4.6,2.69h.03s4.42,1.07,4.42,1.07h.05c1.53-.13,3.07-.24,4.6-.41h.03s4.83-1.31,4.83-1.31c.02,0,.04-.02.06-.03,1.08-1.05,2.13-2.13,3.19-3.21.02-.02.02-.06,0-.08-.02-.02-.05-.02-.08,0-1.1,1.02-2.21,2.04-3.29,3.08l.06-.03-4.85,1.22h.03c-1.53.11-3.06.29-4.59.44h.05s-4.44-.98-4.44-.98h.03s-4.64-2.6-4.64-2.6h0s-4.64-2.02-4.64-2.02h.01s-1.98-1.88-1.98-1.88v.02s-1.34-2.85-1.34-2.85v.05s.28-4.11.28-4.11v-.02s-.3-3.54-.3-3.54l-.02.09c.76-1.23,1.5-2.48,2.27-3.7l2.35-3.65-.03.04,4.08-3.73-.05.03,3.7-1.97h-.03s2.13-.69,2.13-.69h-.08s3.46.31,3.46.31h-.04s5.27,1.77,5.27,1.77l-.05-.02,3.53,2.78-.05-.09,1.01,6.26s.02.03.04.03c.02,0,.03-.02.03-.04Z"/>
      <path class="cls-1" d="M113.91,100.11l-2.46,2.24.03-.02-3.43,1.32h.04s-3.54.3-3.54.3h.04s-3.43-.74-3.43-.74h.03s-3.96-1.7-3.96-1.7h.01s-3.48-1.83-3.48-1.83l.05.04-1.57-1.5.07.12-.6-2.33v.04s-.31-3.32-.31-3.32v.03s.13-2.57.13-2.57l-.02.07.69-1.64c.22-.54.48-1.1.66-1.66l1.17-3.37-.06.08,3.65-2.79h-.02s3.07-1.51,3.07-1.51h.01s1.61-1.22,1.61-1.22h-.03s0,0,0,0l2.92.27h-.02s4.53,1.33,4.53,1.33l-.06-.04,2.57,3.01-.04-.08.82,5.17.04-.16c-1.04,1.42-1.64,3.11-2.06,4.82-.42,1.71-.64,3.47-.69,5.23,0,.03.02.06.05.06.03,0,.05-.02.06-.06.15-1.74.43-3.48.85-5.16.44-1.67,1.06-3.31,2.07-4.65.03-.04.05-.11.04-.16l-.88-5.16s-.02-.06-.04-.09l-2.61-2.98s-.04-.04-.06-.04l-4.55-1.25h-.02s-2.93-.18-2.93-.18h0s-.02,0-.03,0l-1.64,1.16h.01s-3.11,1.41-3.11,1.41h-.02s-3.69,2.75-3.69,2.75c-.03.02-.05.05-.06.08l-1.2,3.35c-.19.57-.44,1.08-.67,1.63l-.7,1.63s-.02.05-.02.07l-.15,2.57v.03s.29,3.32.29,3.32v.04s.59,2.33.59,2.33c.01.05.04.09.07.12l1.58,1.49.05.04,3.5,1.79h.01s3.98,1.67,3.98,1.67h.03s3.44.71,3.44.71h.05s3.53-.35,3.53-.35h.04s3.4-1.43,3.4-1.43l.03-.02,2.39-2.33s.01-.04,0-.05c-.01-.01-.03-.02-.05,0Z"/>
      <path class="cls-1" d="M109.15,96.89c.44-2.36.91-4.7,1.31-7.07h0s.56-5.57.56-5.57c0-.05-.01-.11-.04-.15l-1.62-2.11s-.04-.04-.07-.06l-4.02-2.11s-.08-.03-.12-.02l-2.53.25h-.04c-1.42.41-2.85.78-4.22,1.43-.09.06-.17.08-.28.21-.01,0-.08.07-.06.22,0,.03.01.06.02.08-.05-.15-.01-.03-.03-.06v.04c0,.05-.04.02-.04.04-.07.12-.19.29-.29.44-.22.3-.46.59-.71.88l-1.49,1.71s-.02.03-.02.03l-1.63,3.02v.04c-.17.83-.26,1.71-.37,2.5-.04.08.03.24-.1.26l-.06.3-.11.59-.23,1.18v-.03c.04.84.1,1.67.2,2.5.03.43.22.82.33,1.21l.38,1.19v.02s1,1.47,1,1.47c0,.01.02.02.03.03l3.18,1.55h.04s3.96.39,3.96.39h-.03s2.57.79,2.57.79h.03s2.95.37,2.95.37c.04,0,.08,0,.1-.03l2.43-1.74s.04-.03.04-.05l.96-2.38s0-.07-.03-.08c-.03-.01-.06,0-.07.03l-1.09,2.32.04-.05-2.46,1.68.1-.03-2.94-.43h.03s-2.58-.74-2.58-.74c0,0-.03,0-.03,0l-3.96-.29h.04s-3.21-1.47-3.21-1.47l.03.03-1.02-1.45v.02s-.39-1.18-.39-1.18c-.12-.4-.31-.78-.34-1.19-.09-.83-.13-1.66-.17-2.5v-.03s.24-1.19.24-1.19l.12-.6.06-.3c-.08-.18.01-.22.01-.34.18-.8.37-1.51.51-2.27v.04s1.67-2.99,1.67-2.99l-.02.03c.52-.55,1.03-1.11,1.53-1.69.25-.29.5-.58.73-.89.12-.16.23-.29.35-.51.03-.07.07-.18.07-.23v-.04s.03.07-.02-.1c0,0,.02.02.02.04,0,.1-.04.12,0,.1,0-.01.11-.08.18-.11,1.31-.59,2.76-.94,4.17-1.32h-.03s2.53-.22,2.53-.22l-.12-.02,4.04,2.05-.07-.06,1.65,2.08-.04-.15-.49,5.56h0c-.4,2.35-.73,4.73-1.09,7.1,0,.02,0,.04.03.04.02,0,.04,0,.04-.03Z"/>
      <path class="cls-1" d="M99.39,99.56c-.9-.32-1.73-.84-2.52-1.38l.07.09-.5-1.3v.03s-.38-1.59-.38-1.59v.07c.05-.72.04-1.43.06-2.15l-.03.1.79-1.6h0s.02-.08.01-.11l-.46-2.26v.06c.47-.73.95-1.46,1.47-2.17h0c.51-1.15,1.06-2.27,1.54-3.42l-.09.1c.78-.43,1.55-.85,2.29-1.37.03-.02.03-.06.02-.08-.01-.02-.04-.03-.07-.02-.83.31-1.62.72-2.4,1.12-.04.02-.07.06-.09.1-.47,1.15-.88,2.34-1.31,3.52h0c-.48.72-.99,1.43-1.5,2.14-.01.02-.02.04-.01.06l.3,2.29.02-.11-.89,1.53s-.03.07-.03.11c-.03.72-.07,1.43-.08,2.15,0,.02,0,.05,0,.07l.43,1.58v.03s.57,1.28.57,1.28h0s.04.07.06.09c.85.52,1.74.94,2.69,1.13.02,0,.04,0,.04-.03,0-.02,0-.04-.02-.04Z"/>
      <path class="cls-1" d="M107.84,95.63l.85-3.94c.24-1.33.45-2.66.68-3.98,0-.03,0-.06,0-.09l-.89-3.21c-.01-.05-.05-.09-.08-.12-1.04-.74-2.05-1.51-3.1-2.23-.07-.05-.17-.05-.24,0l-1.94,1.23.08-.03-1.28.14s-.07.02-.1.04l-1.84,1.67s-.03.03-.04.05l-1.39,2.83s-.01.03-.01.03l-.47,2.38h0s-.51,1.57-.51,1.57v.02c-.08,1.12-.22,2.22-.37,3.33v.03s.58,2.47.58,2.47c0,.03.03.06.06.07l2.17,1.2h.03s2.36.59,2.36.59c.37.09.77.23,1.16.34l1.17.34s.04,0,.06,0l2.13-.24s.05-.01.06-.03l1.61-1.3s.03-.06.01-.08c-.02-.03-.05-.03-.07-.01l-1.7,1.16.06-.02-2.14.16h.06c-.78-.22-1.54-.49-2.35-.68l-2.38-.5h.03s-2.2-1.11-2.2-1.11l.06.07-.64-2.45v.03s.34-3.33.34-3.33h0s.55-1.55.55-1.55h0s.53-2.37.53-2.37v.03s1.45-2.79,1.45-2.79l-.04.05,1.87-1.62-.1.04,1.28-.1s.06-.01.08-.03l1.97-1.18h-.24c1.03.75,2.08,1.45,3.12,2.18l-.08-.12.95,3.19v-.09c-.38,2.67-.82,5.31-1.26,7.98,0,.02,0,.04.03.04.02,0,.04,0,.04-.03Z"/>
      <path class="cls-1" d="M107.64,97.45l-1.14,1.4.1-.03c-.57-.19-1.13-.38-1.7-.56h-.03s-3.92-.36-3.92-.36l.1.04-1.46-1.15.08.12-.52-1.82v.06s-.08-1.59-.08-1.59v.06s.19-.89.19-.89v-.05s.01-1.76.01-1.76l-.03.1.97-1.53v-.02s1.06-2.22,1.06-2.22v.02s1.32-1.6,1.32-1.6l-.03.02c.86-.32,1.73-.61,2.61-.88h-.06s2.27,2.02,2.27,2.02l-.04-.08.49,2.83v-.08c-.45,1.89-.85,3.79-1.16,5.71,0,.03.02.06.05.07.03,0,.05-.01.06-.04.54-1.86.99-3.75,1.39-5.65,0-.02,0-.06,0-.08l-.59-2.81s-.02-.06-.04-.08l-2.34-1.94s-.04-.02-.07-.01c-.86.32-1.73.62-2.61.88-.01,0-.02.01-.03.02l-1.38,1.55-.02.02-1.12,2.18v-.02s-1,1.5-1,1.5c-.02.03-.03.07-.03.1l-.06,1.76v-.05s-.21.88-.21.88v.07s.04,1.59.04,1.59v.06s.56,1.81.56,1.81c.01.05.05.09.08.12l1.48,1.11s.07.04.1.04l3.93.25h-.03c.57.16,1.15.31,1.73.46.04.01.08,0,.1-.03l1.04-1.48s0-.04,0-.05c-.01-.01-.04,0-.05,0Z"/>
      <path class="cls-1" d="M60.02,100.53l.1-7.3c.02-1.21.02-2.44.06-3.64l.24-3.63c.1-1.21.21-2.42.4-3.6.05-.29.11-.59.2-.84.1-.15.33-.49.43-.78.23-.57.42-1.14.61-1.71.74-2.3,1.39-4.62,2.03-6.95l-.03.06,6.76-10.31-.05.05,11.06-9.07h.01s8.36-8.55,8.36-8.55l-.06.03,6.06-.6h-.01s9.23.54,9.23.54h-.02s13.81,5.81,13.81,5.81l-.05-.04c2.61,3.2,5.18,6.44,7.82,9.62l.04.04c4.06,2.56,8.1,5.17,12.19,7.67.03.02.06,0,.08-.02.01-.03,0-.06-.02-.08-3.99-2.68-8.04-5.26-12.07-7.89l.04.04c-2.6-3.21-5.26-6.37-7.88-9.56-.01-.02-.03-.03-.05-.04l-13.86-5.66h-.02s-9.23-.59-9.23-.59h-.01s-6.07.54-6.07.54c-.03,0-.05.01-.07.03l-8.44,8.45h.01s-11.14,8.95-11.14,8.95l-.05.05-6.71,10.35s-.02.04-.03.06c-.62,2.33-1.26,4.66-1.98,6.95-.19.57-.37,1.14-.59,1.69-.1.28-.19.43-.42.78-.12.32-.17.62-.22.92-.19,1.21-.29,2.42-.38,3.64l-.22,3.64c-.04,1.23,0,2.44,0,3.66l.04,7.3s.02.04.03.04c.02,0,.03-.02.03-.04Z"/>
      <path class="cls-1" d="M141.79,65.24c-4.59-2.43-9.23-4.75-13.86-7.1l.07.06c-1.46-2.04-2.91-4.1-4.4-6.12l-2.25-3.02c-.38-.5-.75-1-1.16-1.5l-.04-.05s-.17-.15-.29,0c-.02.02-.03.04-.04.05.19-.21.05-.06.09-.11h-.01s-.11-.04-.11-.04c-.08-.02-.11-.08-.16-.11-.1-.08-.16-.1-.31-.18l-.82-.4-13.02-6.63h-.02s-9.88-.16-9.88-.16c0,0-.03,0-.03,0l-6.22,1.52s-.09.04-.11.09c-1.61,2.79-3.27,5.53-4.82,8.36-.02.03,0,.06.02.08.03.02.06,0,.07-.02,1.74-2.69,3.36-5.47,5.04-8.21l-.11.09,6.19-1.64h-.03s9.88,0,9.88,0h-.02s12.92,6.86,12.92,6.86l.82.42c.11.06.33.16.51.22l.26.08.11.04h.01s-.09.11.1-.1c0,.02,0,.04-.03.06-.11.16-.3,0-.25.03l.03.04c.38.47.75.99,1.12,1.49l2.21,3.05,4.45,6.07s.05.05.07.06c4.66,2.28,9.3,4.59,13.99,6.79.02,0,.04,0,.05-.02,0-.02,0-.04-.02-.05Z"/>
      <path class="cls-1" d="M79.56,48.81c-1.97,1.63-3.84,3.38-5.72,5.12-1.87,1.75-3.62,3.64-5.47,5.42l-.02.03c-.41,1.66-.94,3.27-1.46,4.9-.49,1.63-.94,3.28-1.26,4.96,0,.03.01.06.04.07.03,0,.05,0,.06-.04.59-1.6,1.05-3.24,1.46-4.9.39-1.66.77-3.33,1.26-4.96l-.02.03c1.88-1.74,3.85-3.37,5.7-5.14,1.85-1.78,3.7-3.55,5.45-5.44.01-.01.01-.04,0-.05-.01-.01-.03-.01-.05,0Z"/>
      <path class="cls-1" d="M82.53,54.09l-8.84,10.3-.02.04-4.7,10.3-.02.05-1.56,8.49v-.04s-2.4,7.16-2.4,7.16c-.01.03-.01.07-.01.1l.89,9.19s.02.08.05.11l5.45,5.46-.03-.04,2.21,4.81s.04.05.06.05l7.37,1.86-.04-.06-.45,5.53s.02.06.04.07l12.14,5.7h.05c3.61.22,7.21.44,10.82.59.02,0,.05,0,.07-.01,3.16-1.34,6.33-2.67,9.47-4.07.03-.01.04-.05.03-.08-.01-.03-.04-.04-.07-.03-3.2,1.24-6.37,2.56-9.55,3.86h.07c-3.61-.24-7.22-.39-10.83-.55h.05s-12.2-5.54-12.2-5.54l.04.07.41-5.53s-.02-.05-.04-.06l-7.35-1.95.06.05-2.16-4.84-.03-.04-5.4-5.52.05.11-.8-9.2v.1s2.45-7.14,2.45-7.14v-.04s1.51-8.5,1.51-8.5l-.02.05,4.62-10.34-.02.04,8.66-10.47s.01-.04,0-.05c-.01-.01-.04-.01-.05,0Z"/>
      <path class="cls-1" d="M47.16,102.34c-.34-4.56-.71-9.11-1.12-13.66v.05s1.77-11.15,1.77-11.15v.02c.62-2.42,1.18-4.85,1.74-7.29l.79-3.67c.12-.6.25-1.27.3-1.84.08-.33.28-.49.43-.72l.6-.67c1.66-1.74,3.45-3.36,5.18-5.05.86-.85,1.72-1.7,2.54-2.6.41-.44.81-.91,1.18-1.4.34-.5.76-.99.83-1.68l-.02.05c2.17-2.18,4.4-4.3,6.59-6.45l6.61-6.42-.06.04c2.19-.67,4.36-1.41,6.54-2.13,2.18-.72,4.35-1.44,6.51-2.22.03-.01.04-.04.03-.08,0-.03-.04-.05-.07-.04-2.2.64-4.39,1.33-6.57,2.02-2.19.69-4.38,1.36-6.55,2.1-.02,0-.05.02-.06.04l-6.52,6.53c-2.18,2.17-4.33,4.37-6.54,6.51-.01,0-.02.02-.02.04h0c-.07.6-.48,1.11-.82,1.59-.37.48-.77.94-1.18,1.37-.82.89-1.69,1.72-2.56,2.55-1.74,1.67-3.55,3.25-5.25,4.99l-.62.68c-.2.27-.44.56-.51.85-.08.67-.2,1.23-.33,1.86l-.83,3.65-1.78,7.27v.02s-1.66,11.17-1.66,11.17v.05c.43,4.55.89,9.09,1.39,13.63,0,.02.02.04.04.03.02,0,.03-.02.03-.04Z"/>
      <path class="cls-1" d="M72.29,35.88c-2.24,2.4-4.43,4.85-6.62,7.31-2.18,2.46-4.41,4.88-6.53,7.4l.05-.04-8.25,5.02c-2.74,1.7-5.5,3.35-8.3,4.93-.03.02-.04.05-.05.08l-1.04,7.47c-.27,2.5-.62,4.99-.82,7.51,0,.03.02.06.05.06.03,0,.05-.02.06-.05.43-2.48.72-4.98,1.09-7.46l.87-7.5-.05.08c2.74-1.7,5.51-3.33,8.31-4.92l8.35-4.83s.04-.03.05-.04c2.22-2.43,4.33-4.95,6.49-7.44,2.16-2.49,4.31-4.98,6.41-7.52.01-.02.01-.04,0-.05-.01-.01-.03-.01-.05,0Z"/>
      <path class="cls-1" d="M68.03,28.32c-2.46,2.79-4.8,5.68-7.2,8.54-2.4,2.84-4.66,5.82-7,8.72l.03-.03-4.37,2.94c-1.47.96-2.96,1.88-4.44,2.82-2.97,1.86-5.95,3.71-8.79,5.8-.03.02-.03.06-.01.08.02.03.05.03.07.02,3.04-1.74,5.94-3.72,8.85-5.69,1.46-.98,2.91-1.97,4.38-2.93l4.45-2.81.03-.03c2.37-2.87,4.82-5.67,7.13-8.6,2.32-2.92,4.68-5.8,6.93-8.78.01-.02,0-.04,0-.05-.01-.01-.03-.01-.05,0Z"/>
      <path class="cls-1" d="M32.57,73.18s-2.4,3.15-4.24,6.7c-.48.88-.96,1.74-1.47,2.52-.51.78-1.04,1.46-1.43,2.09-.81,1.24-1.2,2.18-1.2,2.18-.01.03,0,.07.03.08.02.01.05,0,.06-.01,0,0,.65-.75,1.4-2.04.39-.63.76-1.43,1.23-2.23.46-.81,1.02-1.63,1.58-2.44,2.33-3.2,4.09-6.81,4.09-6.81,0-.02,0-.04-.01-.05-.01,0-.03,0-.04,0Z"/>
      <path class="cls-1" d="M41.6,103.12s-.23-3.86-1.13-7.62c-.21-.94-.4-1.88-.51-2.78-.12-.89-.16-1.74-.27-2.45-.19-1.43-.5-2.35-.5-2.35-.01-.03-.04-.05-.07-.04-.02,0-.04.03-.04.06,0,0,0,.98.26,2.4.11.71.34,1.53.51,2.41.17.89.28,1.84.38,2.8.32,3.85,1.31,7.59,1.31,7.59,0,.02.02.03.04.03.02,0,.03-.02.03-.04Z"/>
      <path class="cls-1" d="M120.53,44.97c-4.93-3.56-9.94-7-14.92-10.48l-.05-.03c-3.82-1.27-7.66-2.47-11.51-3.65-.03-.01-.07-.01-.1,0l-7.23,1.89h.04s-8.3-.31-8.3-.31c-2.77-.08-5.53-.27-8.29-.41-.03,0-.07.02-.08.05l-5.51,9.28c-1.78,3.13-3.61,6.23-5.33,9.4-.02.03,0,.06.02.08.03.02.06,0,.07-.02,1.91-3.04,3.7-6.17,5.55-9.26l5.36-9.38-.08.05c2.77.11,5.53.17,8.3.35l8.29.45h.04s7.26-1.78,7.26-1.78h-.1c3.82,1.26,7.65,2.5,11.5,3.68l-.05-.03c5.03,3.4,10.03,6.85,15.1,10.17.02.01.04,0,.05-.01,0-.02,0-.04-.01-.05Z"/>
      <path class="cls-1" d="M121.9,39.92c-2.69-1.53-5.44-2.95-8.17-4.4-2.72-1.48-5.5-2.8-8.26-4.18h-.02s-6.01-1.72-6.01-1.72c-1.99-.61-3.97-1.26-5.96-1.9-.03,0-.06,0-.08,0-2.55.85-5.08,1.76-7.56,2.83-.03.01-.04.05-.03.08.01.03.04.04.07.04,2.58-.76,5.11-1.68,7.62-2.66h-.08c2,.57,4.01,1.13,6.01,1.72l5.96,1.91h-.02c2.73,1.43,5.44,2.93,8.22,4.28,2.76,1.37,5.51,2.78,8.31,4.07.02,0,.04,0,.05-.02,0-.02,0-.04-.02-.05Z"/>
      <path class="cls-1" d="M50.85,42.74s3.87-4.66,7.2-9.77c.85-1.26,1.71-2.52,2.57-3.65.85-1.14,1.71-2.15,2.38-3.07,1.37-1.82,2.13-3.15,2.13-3.15.02-.03,0-.06-.02-.08-.02-.02-.05-.01-.07,0,0,0-1.02,1.12-2.33,2.99-.67.92-1.37,2.06-2.19,3.23-.81,1.17-1.74,2.37-2.67,3.57-3.8,4.72-7.06,9.89-7.06,9.89-.01.02,0,.04,0,.05.01.01.03,0,.05,0Z"/>
      <path class="cls-1" d="M76.21,42.84s-3.26,1.45-6.19,3.53c-.74.5-1.49.99-2.22,1.39-.73.4-1.45.71-2.03,1.05-1.17.64-1.86,1.25-1.86,1.25-.02.02-.03.06,0,.09.02.02.04.03.06.02,0,0,.85-.3,1.98-1.01.58-.34,1.2-.83,1.91-1.27.71-.45,1.5-.86,2.29-1.27,3.22-1.53,6.1-3.7,6.1-3.7.02-.01.02-.03,0-.05,0-.01-.03-.02-.04-.01Z"/>
      <path class="cls-1" d="M55,67.21s1.04-2.33,1.44-4.88c.12-.63.25-1.26.43-1.82.18-.57.42-1.07.55-1.53.29-.91.3-1.57.3-1.57,0-.03-.02-.06-.06-.06-.02,0-.04.01-.05.03,0,0-.32.56-.54,1.5-.13.46-.18,1.03-.32,1.61-.13.58-.34,1.18-.56,1.78-.96,2.36-1.27,4.94-1.27,4.94,0,.02.01.04.03.04.02,0,.03,0,.04-.02Z"/>
    </g>
  </g>
</svg>