<?xml version="1.0" encoding="UTF-8"?>
<svg id="Layer_2" data-name="Layer 2" xmlns="http://www.w3.org/2000/svg" viewBox="0 0 130.92 105.72">
  <defs>
    <style>
      .cls-1 {
        fill: #fff;
      }
    </style>
  </defs>
  <g id="Layer_1-2" data-name="Layer 1">
    <g>
      <g>
        <path class="cls-1" d="M22.74,0s1.47.61,4.12,1.5c2.65.85,6.45,2.09,11.09,3.23,2.31.63,4.85,1.13,7.53,1.71,2.69.51,5.53,1.03,8.49,1.47,2.96.41,6.01.91,9.14,1.15,1.56.15,3.14.29,4.72.44,1.59.07,3.18.14,4.77.22,3.18.22,6.37.12,9.51.1,3.14.07,6.22-.32,9.2-.51,2.99-.15,5.83-.72,8.55-1.06,1.35-.21,2.68-.34,3.94-.6,1.26-.27,2.48-.52,3.65-.77,2.33-.53,4.51-.84,6.38-1.35,1.88-.51,3.51-.95,4.86-1.31,2.7-.7,4.25-1.1,4.25-1.1.03-.01.06,0,.08.04.01.03,0,.06-.04.08,0,0-1.53.45-4.21,1.25-1.34.38-2.98.85-4.85,1.38-1.88.52-4.04.9-6.39,1.38-1.18.23-2.4.47-3.67.72-1.27.24-2.6.36-3.96.55-2.73.3-5.58.84-8.58.95-1.49.1-3.01.2-4.55.3-1.53.15-3.09.21-4.66.22-3.14.05-6.34.2-9.53.02-1.6-.05-3.19-.11-4.78-.16-1.59-.13-3.17-.26-4.73-.39-3.14-.2-6.2-.67-9.18-1.05-2.96-.44-5.81-1.01-8.5-1.54-2.68-.61-5.22-1.14-7.53-1.78-2.32-.58-4.43-1.22-6.29-1.78-1.86-.57-3.46-1.15-4.78-1.61C24.17.72,22.71.07,22.71.07c-.02,0-.03-.03-.02-.05,0-.02.03-.03.05-.02Z"/>
        <path class="cls-1" d="M116.76,5.02c-.75.71-1.42,1.49-1.85,2.42-.49.9-.81,1.88-1.08,2.87-.52,1.98-.8,4.02-.95,6.07-.29,4.1-.1,8.23.26,12.32.76,8.19,1.99,16.36,3.73,24.41,0,.04,0,.08-.02.11-2.26,3.11-4.25,6.43-6.12,9.79-1.83,3.4-3.5,6.87-5.03,10.41-.74,1.78-1.51,3.55-2.18,5.35-.71,1.79-1.35,3.61-2,5.42-.68,1.8-1.25,3.64-1.86,5.47-.32.91-.55,1.85-.85,2.76l-.86,2.76s-.04.05-.07.04c-.03,0-.05-.04-.04-.07.5-1.86.96-3.74,1.53-5.58.59-1.84,1.12-3.69,1.78-5.51.61-1.83,1.32-3.63,2.04-5.42.7-1.8,1.5-3.56,2.26-5.33,1.58-3.52,3.31-6.97,5.17-10.36,1.83-3.4,3.77-6.74,6.01-9.9l-.02.11c-.93-4.02-1.71-8.07-2.39-12.15-.68-4.07-1.24-8.17-1.54-12.29-.31-4.12-.47-8.26-.13-12.39.18-2.06.44-4.12,1.04-6.11.3-.99.66-1.97,1.18-2.87.46-.93,1.18-1.73,1.94-2.4.01-.01.04-.01.05,0,.01.01.01.04,0,.05Z"/>
        <path class="cls-1" d="M27.91,1.95c.65,3.07.59,6.29-.04,9.38-.63,3.09-1.72,6.07-3.09,8.9-1.36,2.84-3,5.54-4.8,8.12-1.8,2.58-3.78,5.04-5.97,7.31l.05-.23c1.45,4.52,2.26,9.2,2.66,13.9.11,1.17.16,2.35.21,3.53.01,1.18.09,2.36.07,3.54.02,1.18-.04,2.36-.09,3.54-.05,1.18-.19,2.35-.28,3.53l-.08-.15c2.59,1.3,5.03,2.85,7.35,4.57,2.32,1.72,4.49,3.65,6.42,5.81,1.93,2.15,3.61,4.54,4.85,7.16.29.66.6,1.32.83,2,.27.67.44,1.38.64,2.07.35,1.41.53,2.84.61,4.28,0,.03-.02.06-.06.06-.03,0-.06-.02-.06-.06-.11-1.43-.33-2.85-.71-4.23-.4-1.37-.89-2.72-1.51-4.01-1.25-2.57-2.94-4.92-4.86-7.04-3.89-4.19-8.55-7.7-13.63-10.35-.06-.03-.09-.09-.08-.15.11-1.17.28-2.33.35-3.51.07-1.17.16-2.35.16-3.52.08-2.35-.07-4.71-.3-7.05-.49-4.67-1.39-9.33-2.89-13.76-.03-.08,0-.17.05-.23,2.13-2.27,4.08-4.74,5.91-7.27,1.8-2.55,3.46-5.21,4.84-8.02,1.38-2.8,2.49-5.74,3.14-8.8.3-1.53.55-3.08.6-4.64.04-1.56-.06-3.12-.34-4.67,0-.02,0-.04.03-.04.02,0,.04.01.04.03Z"/>
        <path class="cls-1" d="M14.88,94.01s1.62-.62,4.54-1.47c1.46-.4,3.24-.92,5.3-1.36,2.06-.46,4.4-.95,6.97-1.35,2.56-.5,5.37-.74,8.33-1.15,1.49-.12,3.01-.24,4.58-.36,1.56-.13,3.16-.26,4.79-.25,1.63-.02,3.28-.05,4.96-.07,1.67,0,3.37.12,5.07.17,3.42.06,6.87.46,10.32.82l2.59.27,2.56.43c1.7.29,3.4.58,5.08.86,1.69.23,3.32.7,4.95,1.08,1.63.38,3.24.75,4.82,1.11,3.17.72,6.13,1.81,8.99,2.63,2.88.78,5.46,1.94,7.9,2.86,1.21.48,2.37.94,3.47,1.37,1.11.43,2.14.87,3.07,1.37,1.89.94,3.54,1.77,4.9,2.44,2.7,1.38,4.24,2.17,4.24,2.17.03.01.04.05.03.08-.01.03-.05.04-.08.02,0,0-1.57-.74-4.31-2.03-1.36-.66-3.02-1.46-4.92-2.38-1.87-.99-4.16-1.68-6.54-2.71-2.42-.95-4.98-2.13-7.84-2.95-2.85-.86-5.79-1.98-8.95-2.74-3.16-.73-6.4-1.65-9.77-2.18-1.68-.27-3.38-.53-5.08-.8l-2.56-.4-2.58-.24c-3.45-.32-6.89-.69-10.3-.71-1.7-.04-3.39-.15-5.06-.12-1.67.04-3.32.08-4.94.12-3.24.02-6.37.37-9.33.54-2.95.38-5.76.6-8.31,1.07-2.57.38-4.9.84-6.96,1.29-2.06.44-3.85.88-5.32,1.25-2.93.77-4.56,1.35-4.56,1.35-.02,0-.04,0-.05-.02,0-.02,0-.04.02-.05Z"/>
        <path class="cls-1" d="M4.4,31.9c5.14,1.99,10.34,3.79,15.56,5.57,5.22,1.76,10.48,3.39,15.79,4.83,2.65.76,5.33,1.39,8,2.05l4.03.91c1.34.33,2.7.54,4.05.81,1.35.27,2.7.51,4.07.69,1.36.17,2.72.45,4.09.54,1.37.11,2.74.26,4.11.33l4.12.04c.08,0,.15.06.16.14,0,.06-.04.13-.1.15-5.57,1.92-11.17,3.75-16.79,5.53-5.62,1.76-11.24,3.55-16.89,5.2-2.83.84-5.66,1.64-8.5,2.41-1.42.4-2.85.75-4.27,1.13-1.43.37-2.85.75-4.29,1.06-2.87.68-5.76,1.24-8.66,1.8l-4.37.68-4.41.41s-.06-.02-.06-.05c0-.03.02-.06.06-.06l4.38-.54,4.35-.72c2.88-.58,5.77-1.17,8.63-1.88,5.73-1.34,11.44-2.81,17.1-4.43,5.66-1.63,11.32-3.27,16.91-5.12,5.6-1.83,11.18-3.71,16.73-5.68l.06.29h-4.15c-1.38-.07-2.75-.21-4.13-.31-1.38-.08-2.74-.34-4.11-.5-1.37-.16-2.73-.4-4.09-.66-1.35-.26-2.72-.46-4.06-.78l-4.04-.89c-2.67-.68-5.35-1.34-8-2.11-5.31-1.49-10.57-3.15-15.78-4.95-5.22-1.78-10.38-3.72-15.48-5.8-.02,0-.03-.03-.02-.05,0-.02.03-.03.05-.02Z"/>
        <path class="cls-1" d="M38.24,4.99c.79,2.06,1.64,4.11,2.56,6.11.93,2,1.88,4,2.91,5.95,1.03,1.95,2.09,3.89,3.23,5.78,1.11,1.91,2.31,3.77,3.53,5.6,1.23,1.83,2.48,3.65,3.79,5.43,1.32,1.77,2.69,3.5,4.13,5.17.74.81,1.46,1.66,2.23,2.45.79.77,1.52,1.6,2.36,2.31.81.74,1.64,1.48,2.53,2.12.85.71,1.82,1.24,2.74,1.83l-.13.11c-.88-3.13-1.62-6.3-2.37-9.46-.71-3.17-1.36-6.36-1.85-9.57-.25-1.61-.48-3.22-.66-4.84-.2-1.62-.31-3.24-.37-4.87-.06-.81-.03-1.63-.04-2.44,0-.81-.01-1.63.05-2.44.06-.81.05-1.63.17-2.44l.34-2.42s.03-.05.07-.05c.03,0,.05.04.05.07-.17,1.62-.32,3.22-.35,4.85-.05.81-.03,1.62-.01,2.43.02.81,0,1.62.08,2.43.09,1.62.22,3.23.37,4.85.15,1.61.35,3.22.58,4.83.44,3.22,1.05,6.41,1.71,9.59.66,3.18,1.47,6.33,2.39,9.44.02.05,0,.1-.05.11-.02,0-.06,0-.08,0-.94-.59-1.93-1.11-2.79-1.81-.91-.64-1.75-1.36-2.58-2.1-.86-.7-1.6-1.53-2.41-2.29-.78-.78-1.51-1.62-2.27-2.43-1.46-1.67-2.86-3.38-4.21-5.15-1.33-1.77-2.64-3.56-3.84-5.43-1.21-1.86-2.39-3.73-3.48-5.66-1.13-1.91-2.17-3.86-3.18-5.83-1.01-1.97-1.96-3.97-2.85-6-.87-2.04-1.66-4.11-2.39-6.19,0-.02,0-.04.02-.05.02,0,.04,0,.05.02Z"/>
        <path class="cls-1" d="M81.05,10c-.11.83-.13,1.66-.32,2.48-.16.82-.31,1.65-.52,2.45-.37,1.63-.86,3.23-1.33,4.83-.98,3.19-2.07,6.35-3.19,9.49-1.13,3.14-2.28,6.27-3.53,9.37-1.24,3.1-2.5,6.19-3.8,9.26l-.27-.18c2.72-2.83,5.3-5.79,7.8-8.83,2.51-3.03,4.82-6.21,7.05-9.44,1.12-1.61,2.19-3.26,3.24-4.92.54-.82,1.02-1.68,1.54-2.51.51-.84,1.02-1.68,1.49-2.54,1-1.69,1.97-3.4,2.87-5.14.95-1.72,1.74-3.52,2.65-5.26.01-.03.05-.04.08-.03.03.01.04.05.03.08-.81,1.79-1.55,3.62-2.49,5.35-.88,1.76-1.82,3.49-2.8,5.2-.48.86-1.01,1.69-1.53,2.52-.53.83-1.03,1.68-1.58,2.49-1.08,1.64-2.18,3.28-3.32,4.88-2.27,3.21-4.67,6.33-7.1,9.42-2.45,3.08-4.99,6.08-7.69,8.96-.06.07-.17.07-.23,0-.05-.05-.06-.12-.04-.19,2.52-6.17,4.88-12.41,7.23-18.65,1.15-3.13,2.27-6.27,3.29-9.44.49-1.59.99-3.18,1.42-4.79.24-.8.41-1.61.59-2.42.22-.8.27-1.64.4-2.47,0-.02.02-.04.04-.03.02,0,.03.02.03.04Z"/>
        <path class="cls-1" d="M113.46,11.35c-3.11,3.8-6.38,7.47-9.77,11.02-1.7,1.77-3.42,3.53-5.18,5.24-1.75,1.72-3.54,3.41-5.37,5.05l-2.76,2.45-2.87,2.32c-.94.79-1.96,1.49-2.94,2.23-.99.73-1.97,1.47-3.02,2.12-1.04.65-2.04,1.39-3.12,1.97l-3.24,1.77-3.4,1.44c-1.18.35-2.38.65-3.57.97l-.03-.21c3.97-.37,7.94-.87,11.87-1.56,3.93-.69,7.84-1.53,11.69-2.55.96-.27,1.93-.49,2.88-.8l2.86-.88c1.88-.67,3.77-1.29,5.6-2.07.92-.37,1.85-.73,2.73-1.2.88-.46,1.81-.83,2.65-1.36l2.54-1.56,2.36-1.82s.06-.02.08,0c.02.02.02.06,0,.09l-2.31,1.93c-.82.58-1.69,1.08-2.53,1.62-.85.54-1.77.93-2.66,1.4-.88.48-1.81.85-2.74,1.24-.92.38-1.84.8-2.79,1.1l-2.84.96-2.88.84c-.95.3-1.93.51-2.9.76-3.88.97-7.8,1.77-11.74,2.41-3.94.64-7.89,1.26-11.87,1.65-.06,0-.11-.04-.12-.1,0-.05.03-.1.08-.11h.01c1.17-.34,2.36-.64,3.52-1.01l3.36-1.47,3.2-1.79c1.07-.59,2.05-1.33,3.08-1.99,1.03-.66,2.01-1.4,2.98-2.14.97-.75,1.97-1.45,2.9-2.25,1.9-1.55,3.77-3.13,5.6-4.76,1.84-1.62,3.63-3.29,5.4-4.99,1.77-1.7,3.5-3.44,5.21-5.19,3.4-3.54,6.75-7.12,9.96-10.83.01-.02.04-.02.05,0,.02.01.02.04,0,.05Z"/>
        <path class="cls-1" d="M130.89,52.35c-5.25.56-10.53.89-15.81,1.07-2.64.1-5.28.14-7.92.16-2.64-.01-5.29,0-7.93-.11-2.64-.04-5.28-.29-7.92-.46-2.63-.29-5.27-.51-7.87-.96-1.31-.2-2.62-.38-3.91-.68-1.29-.3-2.6-.5-3.87-.87l-3.81-1.12-3.69-1.48.09-.14c5.79,4.86,11.84,9.41,18.01,13.78,1.54,1.1,3.11,2.15,4.67,3.21,1.59,1.02,3.14,2.1,4.75,3.09,1.58,1.03,3.21,1.98,4.85,2.92l2.49,1.35,2.55,1.23s.05.05.03.08c-.01.03-.05.04-.08.03l-2.6-1.14-2.53-1.3c-1.65-.92-3.3-1.86-4.9-2.87-3.24-1.97-6.33-4.16-9.4-6.37-3.06-2.22-6.09-4.5-9.07-6.83-2.97-2.34-5.95-4.67-8.88-7.06-.04-.03-.04-.08-.01-.12.02-.03.07-.04.1-.02l3.68,1.42,3.8,1.07c1.27.35,2.58.54,3.86.82,1.29.29,2.59.46,3.9.64,2.6.42,5.23.61,7.86.87l3.95.24c1.31.09,2.63.11,3.95.18,2.63.13,5.27.14,7.91.18,2.64,0,5.28-.02,7.91-.1,5.27-.16,10.55-.39,15.81-.8.02,0,.04.01.04.03,0,.02-.01.04-.03.04Z"/>
        <path class="cls-1" d="M110.65,100.05c-4.09-3.88-8.07-7.87-11.96-11.95-1.94-2.04-3.87-4.1-5.77-6.18-1.9-2.08-3.79-4.17-5.64-6.3-1.86-2.12-3.64-4.31-5.41-6.5-.9-1.08-1.74-2.22-2.6-3.33-.86-1.12-1.73-2.23-2.53-3.39-.81-1.15-1.66-2.28-2.44-3.46l-2.3-3.55-2.09-3.68c-.63-1.26-1.18-2.56-1.78-3.84l.15-.05c.8,3.77,1.77,7.5,2.82,11.2,1.05,3.71,2.15,7.4,3.39,11.04.61,1.82,1.25,3.64,1.92,5.44.68,1.8,1.35,3.6,2.08,5.38.73,1.78,1.48,3.55,2.33,5.28.82,1.74,1.72,3.44,2.66,5.12.02.03,0,.06-.02.08-.03.02-.06,0-.08-.02l-1.47-2.49c-.49-.83-.89-1.71-1.34-2.57-.87-1.72-1.65-3.49-2.4-5.27-.75-1.78-1.47-3.57-2.1-5.39-.65-1.82-1.27-3.64-1.86-5.48-1.19-3.67-2.25-7.37-3.26-11.09-.99-3.73-1.94-7.46-2.81-11.21,0-.04.02-.09.06-.1.04,0,.08.02.09.05.61,1.27,1.17,2.56,1.81,3.81l2.12,3.65,2.34,3.51c.78,1.17,1.65,2.28,2.47,3.42.81,1.15,1.69,2.25,2.56,3.36.87,1.1,1.72,2.23,2.63,3.3,1.78,2.18,3.61,4.32,5.44,6.45,1.83,2.14,3.69,4.25,5.58,6.34,1.88,2.09,3.79,4.16,5.72,6.22,3.87,4.09,7.77,8.16,11.75,12.14.01.01.01.04,0,.05-.01.01-.04.01-.05,0Z"/>
        <path class="cls-1" d="M53.18,88.19l1.51-2.25c.5-.75.9-1.56,1.36-2.34.46-.77.85-1.59,1.25-2.39.4-.81.82-1.6,1.17-2.44.75-1.64,1.44-3.3,2.09-4.99.65-1.68,1.26-3.38,1.83-5.09,2.26-6.85,4.23-13.81,5.69-20.88.01-.07.08-.12.16-.1.07.01.11.07.11.14-.22,3.43-.18,6.89-.13,10.34.1,3.45.28,6.9.45,10.35l.61,10.34c.16,3.45.39,6.89.51,10.34,0,.03-.02.06-.06.06-.03,0-.06-.02-.06-.05-.34-3.44-.54-6.89-.78-10.33-.2-3.45-.33-6.9-.47-10.35l-.32-10.35c-.1-3.45-.2-6.9-.03-10.36l.26.03c-.67,3.56-1.5,7.08-2.41,10.58-.91,3.5-1.9,6.99-3.12,10.4-.59,1.71-1.22,3.41-1.89,5.09-.67,1.68-1.38,3.35-2.15,4.99-.36.83-.79,1.63-1.2,2.43-.41.81-.82,1.62-1.31,2.38-.48.77-.91,1.57-1.44,2.31l-1.58,2.21s-.03.02-.05,0c-.02-.01-.02-.03,0-.05Z"/>
        <path class="cls-1" d="M36.4,84.38c3.1-2.63,6.07-5.4,9.02-8.2,2.92-2.82,5.78-5.71,8.49-8.73,2.69-3.04,5.34-6.12,7.76-9.37.62-.8,1.17-1.65,1.76-2.48.6-.82,1.15-1.67,1.67-2.54.52-.87,1.11-1.7,1.56-2.61l1.42-2.69.21.16c-3.05,2.48-6.22,4.79-9.47,7-1.63,1.1-3.24,2.21-4.89,3.27-1.65,1.06-3.3,2.12-5,3.11-1.68,1.02-3.39,1.97-5.11,2.92-.85.48-1.74.91-2.61,1.37-.87.45-1.74.91-2.64,1.3-1.78.84-3.57,1.63-5.4,2.36-1.8.8-3.68,1.37-5.53,2.03-.03.01-.06,0-.08-.04-.01-.03,0-.06.04-.08,1.81-.75,3.66-1.39,5.45-2.2,1.81-.75,3.59-1.57,5.35-2.43,3.53-1.7,7.02-3.48,10.4-5.46,6.8-3.9,13.29-8.36,19.31-13.38.05-.05.14-.05.19,0,.04.04.04.1.02.15l-1.4,2.72c-.44.92-1.03,1.76-1.54,2.64-.51.88-1.06,1.74-1.65,2.57-.58.84-1.13,1.7-1.74,2.51-1.21,1.64-2.44,3.27-3.74,4.83-.63.8-1.3,1.57-1.98,2.32-.68.76-1.34,1.54-2.04,2.27-2.75,3-5.64,5.87-8.6,8.67-2.96,2.8-6.02,5.47-9.2,8.02-.02.01-.04.01-.05,0-.01-.02,0-.04,0-.05Z"/>
        <path class="cls-1" d="M16.12,45.06c2.08.72,4.2,1.27,6.34,1.78,2.14.47,4.29.94,6.45,1.29,1.08.17,2.16.37,3.25.49,1.09.13,2.17.31,3.27.4l3.28.3,3.28.18c1.09.08,2.19.06,3.29.08,1.1,0,2.19.05,3.29,0,2.19-.03,4.38-.07,6.57-.25,1.09-.08,2.19-.11,3.28-.26l3.27-.37c1.09-.1,2.17-.31,3.25-.48l3.25-.53-.03.26c-3.97-1.83-7.83-3.86-11.63-6.01-3.8-2.14-7.55-4.37-11.2-6.78-1.81-1.22-3.62-2.44-5.37-3.75-.89-.63-1.77-1.28-2.62-1.97-.85-.68-1.73-1.33-2.56-2.05l-2.46-2.17c-.84-.7-1.59-1.5-2.38-2.25-.78-.77-1.58-1.5-2.29-2.34l-2.18-2.45s-.02-.06,0-.08c.02-.02.06-.02.08,0,1.53,1.56,2.98,3.18,4.59,4.65.8.74,1.55,1.52,2.4,2.21l2.48,2.13c1.71,1.35,3.35,2.78,5.12,4.05,1.73,1.33,3.52,2.57,5.31,3.81,3.62,2.43,7.31,4.75,11.12,6.87,3.82,2.1,7.71,4.09,11.68,5.86.07.03.1.11.07.18-.02.04-.06.07-.1.08l-3.25.57c-1.08.18-2.16.41-3.26.52l-3.28.41c-1.09.16-2.19.2-3.29.3-2.19.21-4.39.27-6.6.33-1.1.05-2.2-.01-3.3-.03-1.1-.03-2.2-.02-3.3-.11l-3.3-.21-3.28-.33c-1.1-.1-2.18-.29-3.27-.43-1.09-.13-2.17-.34-3.26-.53-4.33-.76-8.62-1.81-12.76-3.32-.02,0-.03-.03-.02-.05,0-.02.03-.03.05-.02Z"/>
      </g>
      <path class="cls-1" d="M90.06,18.63c.3.46.55.97.88,1.38.32.43.65.86,1.04,1.24.76.78,1.64,1.45,2.6,1.98,1.9,1.09,4.09,1.68,6.28,1.79h0c.45,2.45.99,4.88,1.64,7.28.33,1.2.68,2.39,1.12,3.55.22.58.45,1.16.74,1.7.27.55.62,1.07,1.08,1.44h0s.03.05.04.07c.29,2.41.62,4.81,1,7.2l.62,3.58c.11.59.23,1.19.38,1.77.14.58.31,1.17.56,1.67h0c.03.06.02.12,0,.17-.38.73-.78,1.44-1.19,2.15-.4.71-.76,1.45-1.2,2.14-.46.68-1.04,1.28-1.43,2-.36.75-.87,1.4-1.38,2.03l-1.61,1.86c-.53.62-1.07,1.24-1.66,1.82-.58.59-1.25,1.09-1.94,1.55l-1.12.56-1.2.37.1-.08c-.84,1.69-1.74,3.36-2.78,4.94-.53.79-1.13,1.53-1.77,2.24-.32.36-.67.68-1.03,1-.38.31-.78.58-1.22.8h-.01c-1.83.67-3.69,1.21-5.61,1.54-1.9.34-3.92.43-5.82-.11h.08c-1.34.33-2.68.59-4.03.85-1.35.21-2.71.48-4.09.38h.01c-1.79.34-3.59.62-5.41.75-1.81.09-3.7.14-5.48-.55h.05c-2.11-.35-4.19-.82-6.24-1.41-1.03-.29-2.04-.64-3.03-1.04-.98-.42-1.98-.85-2.83-1.53h.01c-1.75-1.1-3.44-2.29-5.06-3.6-.81-.65-1.59-1.35-2.32-2.09-.37-.37-.71-.77-1.04-1.18-.31-.43-.58-.89-.8-1.4l.11.12c-1.76-.96-3.48-1.99-5.15-3.1-.84-.54-1.64-1.15-2.45-1.74-.8-.6-1.59-1.23-2.26-2.01l-.02-.04c-.88-2.13-1.63-4.3-2.22-6.53-.56-2.23-.97-4.51-1.17-6.8v-.03c.11-1.38.18-2.77.22-4.16.02-1.39.06-2.79-.15-4.15,0-.03,0-.07.02-.09,1.75-2.06,3.34-4.28,4.77-6.58.72-1.15,1.39-2.33,1.97-3.55.3-.6.55-1.23.79-1.86.23-.63.4-1.28.53-1.93.01-.06.06-.11.11-.13,2.16-.93,4.29-1.99,6.28-3.25,1-.63,1.95-1.33,2.81-2.14.22-.19.44-.4.63-.62.19-.22.42-.42.58-.67.38-.46.66-.98.92-1.51,0,0,.02-.02.03-.02,3.31.28,6.64.18,9.93-.16,1.65-.17,3.28-.42,4.9-.75.8-.19,1.61-.37,2.4-.61.8-.19,1.57-.47,2.36-.73.06-.02.14-.01.19.02,1.23.65,2.62,1.09,4,1.42,1.39.33,2.82.51,4.25.6,1.43.03,2.87-.01,4.29-.2,1.43-.16,2.83-.47,4.22-.81.07-.02.13,0,.18.04h0c1.36,1.09,2.95,1.92,4.6,2.46,1.66.56,3.43.74,5.16.57.09-.01.19.04.24.11ZM89.73,19.03c-3.58.32-7.22-.91-9.95-3.22l.19.05c-1.42.31-2.84.58-4.28.72-1.44.17-2.89.17-4.34.14-1.45-.06-2.89-.21-4.31-.51-1.42-.3-2.82-.71-4.15-1.39h.19c-1.57.62-3.19,1.05-4.83,1.34-1.65.28-3.3.47-4.96.59-3.32.19-6.65.15-9.96-.04l.02-.02c-.99,2.19-2.89,3.81-4.84,5.14-1.96,1.36-4.09,2.46-6.31,3.35l.11-.13c-.15.68-.33,1.34-.57,1.98-.25.64-.51,1.27-.82,1.88-.6,1.23-1.29,2.4-2.03,3.55-1.47,2.3-3.12,4.46-4.81,6.59l.02-.09c.24,1.4.22,2.8.23,4.19-.01,1.4-.06,2.79-.15,4.19v-.03c.23,2.27.68,4.51,1.27,6.71.56,2.21,1.21,4.41,2.03,6.53l-.02-.04c1.26,1.51,2.93,2.68,4.61,3.72,1.69,1.05,3.44,2.02,5.22,2.92.05.02.08.06.1.11h0c.4.9,1.08,1.69,1.76,2.43.7.74,1.45,1.44,2.24,2.1,1.57,1.32,3.23,2.55,4.95,3.69h.02c.4.34.84.62,1.31.87.47.24.95.45,1.45.64.99.38,2,.7,3.02.96,2.05.54,4.13.97,6.22,1.3l.05.02c.8.33,1.7.42,2.59.5.89.08,1.79.09,2.7.07,1.81-.03,3.62-.18,5.41-.44h.01c1.36.13,2.73-.08,4.07-.35,1.34-.26,2.66-.65,3.96-1.06.02,0,.05,0,.07,0h.01c1.86.39,3.78.2,5.66-.08,1.88-.31,3.76-.77,5.56-1.4h-.01c.4-.21.77-.47,1.12-.77.34-.32.67-.63.97-.99.61-.7,1.16-1.45,1.69-2.22,1.08-1.52,2.07-3.13,2.92-4.8.02-.04.05-.06.08-.07h.02c.37-.14.75-.26,1.12-.42l1.03-.61c.64-.48,1.28-.96,1.88-1.5.61-.52,1.2-1.08,1.74-1.69.55-.6,1.03-1.26,1.49-1.93.46-.67.93-1.33,1.48-1.94.54-.62.84-1.4,1.26-2.09l1.32-2.05c.4-.71.8-1.42,1.17-2.14v.17c-.29-.58-.45-1.17-.6-1.76-.15-.59-.28-1.19-.39-1.79-.24-1.19-.42-2.39-.59-3.6-.34-2.4-.62-4.81-.87-7.23l.05.07c-.51-.43-.85-.97-1.12-1.54-.29-.56-.51-1.14-.72-1.73-.43-1.17-.76-2.37-1.08-3.58-.62-2.41-1.12-4.85-1.55-7.3h0c-2.2-.07-4.38-.67-6.34-1.69-.99-.5-1.9-1.14-2.72-1.9-.43-.36-.8-.77-1.17-1.2-.35-.38-.61-.81-.9-1.21Z"/>
      <path class="cls-1" d="M35.48,27.69c-.69,1.07-1.48,2.11-2.24,3.12-.77,1.01-1.56,2.02-2.37,3-1.58,2-3.23,3.94-4.94,5.84l.02-.08c.36,1.36.58,2.74.66,4.15.08,1.4-.02,2.85-.58,4.18v-.13c.35,1.01.58,2.04,1.01,3.02.24.48.27,1.03.39,1.55.07.26.21.49.33.73.11.24.17.5.25.76.2,1.05.56,2.05.96,3.04.38.99.53,2.06.88,3.06l-.04-.06c.68.66,1.42,1.26,2.15,1.87.7.64,1.42,1.26,2.17,1.85.75.58,1.55,1.09,2.38,1.55.83.44,1.66.89,2.54,1.18h.02s.07.05.1.08c.55.82,1.12,1.64,1.74,2.41.63.77,1.32,1.49,2.06,2.15.74.66,1.55,1.25,2.39,1.74.42.26.85.47,1.29.66l.68.22.68.11h.05s.04.02.04.02c1.84.74,3.7,1.46,5.6,2.02.95.29,1.93.48,2.9.65.97.15,1.97.27,2.93.2h.03s.02,0,.02,0l4.69.42c1.56.11,3.17.13,4.66-.32.02,0,.05,0,.06,0,1.25.14,2.52.17,3.77.12,1.25-.04,2.51-.2,3.61-.75.02-.01.06-.02.09-.02,1.66-.06,3.32-.22,4.96-.51,1.63-.28,3.28-.74,4.64-1.67h-.01c1.19-1.19,2.34-2.44,3.43-3.74,1.07-1.31,2.15-2.61,3.08-4.02l.02-.03c2.27-1.76,4.37-3.76,6.25-5.93.95-1.08,1.88-2.17,2.76-3.3.46-.55.87-1.13,1.3-1.7.42-.58.79-1.18,1.12-1.81v.12s-1.65-6.3-1.65-6.3c-.26-1.06-.5-2.12-.66-3.2-.17-1.08-.32-2.17-.23-3.3.01-.14.13-.24.27-.23.13.01.23.12.23.26v.02c-.07,2.09.42,4.25.79,6.36.43,2.12.9,4.24,1.57,6.3.01.04,0,.09,0,.12-1.25,2.65-3.2,4.86-5.28,6.85-2.1,1.99-4.22,3.92-6.32,5.9l.02-.03c-.83,1.5-1.85,2.88-2.98,4.15-1.13,1.28-2.3,2.51-3.53,3.69h-.01c-1.44.95-3.11,1.33-4.74,1.71-1.64.35-3.31.56-4.99.67l.08-.02c-1.18.63-2.49.83-3.78.9-1.29.04-2.58-.1-3.84-.35h.06c-1.58.36-3.16.35-4.75.4-1.59.03-3.17-.1-4.74-.33h.04c-2.06.05-4.01-.51-5.93-1.02-1.93-.51-3.85-1.1-5.72-1.82l.08.02c-.54-.04-1.05-.16-1.53-.37-.46-.23-.91-.47-1.32-.77-.81-.6-1.55-1.28-2.24-2-.7-.71-1.38-1.44-2.06-2.16-.69-.72-1.37-1.45-2.01-2.23l.11.08c-1.93-.48-3.5-1.7-5.03-2.83-.78-.56-1.54-1.15-2.27-1.77-.71-.65-1.37-1.34-2.04-2.03-.02-.02-.03-.04-.04-.06-.29-1.02-.78-1.98-1.04-3.01-.24-1.04-.52-2.06-.96-3.03-.08-.25-.18-.5-.23-.76-.03-.27-.06-.54-.15-.79-.2-.49-.48-.96-.57-1.49-.22-1.04-.62-2.03-.92-3.05-.01-.04,0-.09,0-.13.49-1.26.61-2.65.6-4.03-.03-1.38-.21-2.76-.52-4.11,0-.03,0-.06.02-.08,1.75-1.85,3.45-3.75,5.07-5.72,1.57-2,3.11-4.06,4.18-6.37.06-.13.21-.18.33-.12.13.06.18.21.12.33,0,.01-.02.03-.02.04Z"/>
      <path class="cls-1" d="M97.9,27.97c-1.91-.48-3.79-1.09-5.61-1.87-.91-.39-1.79-.85-2.63-1.39-.42-.26-.82-.57-1.2-.89-.38-.33-.72-.7-1.03-1.11l.13.08c-1.58-.13-3.15-.34-4.71-.67-.78-.17-1.55-.38-2.3-.65-.74-.29-1.52-.62-2.09-1.3l.22.09c-2.58.41-5.17.69-7.77.88-1.3.08-2.6.16-3.91.15-.65,0-1.31-.01-1.96-.09-.65-.05-1.31-.17-1.96-.42h.11c-2.72.66-5.47,1.18-8.25,1.55-2.77.36-5.57.58-8.37.35l.06-.02c-2.89,2.52-5.92,4.93-9.36,6.7l.08-.08c-1.03,2.12-2.21,4.16-3.56,6.1-1.34,1.93-2.81,3.83-4.73,5.23-.03.02-.06.01-.08-.01-.02-.03-.01-.06.01-.08,1.79-1.5,3.22-3.39,4.52-5.32,1.28-1.95,2.45-3.99,3.53-6.06.02-.03.05-.06.08-.08,3.42-1.69,6.49-4.04,9.41-6.51.02-.01.04-.02.06-.02,2.77.32,5.58,0,8.33-.39,2.76-.41,5.49-.98,8.19-1.67.03,0,.06,0,.09,0h.01c.58.21,1.21.33,1.85.36.64.06,1.29.06,1.93.06,1.29,0,2.59-.11,3.88-.21,2.58-.23,5.16-.55,7.73-.9.08-.01.17.03.22.09.45.54,1.17.9,1.88,1.17.72.27,1.48.48,2.24.66,1.53.34,3.09.57,4.65.72.05,0,.1.04.13.08.28.38.6.74.96,1.06.37.31.75.62,1.16.88.81.54,1.68.99,2.57,1.41,1.77.84,3.63,1.51,5.52,2.05.02,0,.03.03.03.04,0,.02-.03.03-.04.03Z"/>
      <path class="cls-1" d="M30.69,41.21c-.55,2.39-.77,4.8-.97,7.23h0c.37,1.77.89,3.52,1.51,5.22.3.85.6,1.71.97,2.53.16.43.56.73.58,1.22.05.23.23.39.4.55.14.18.24.37.34.58.17.4.49.78.83,1.06.34.29.65.6.94.96.58.71,1.44,1.09,2.17,1.6.74.52,1.48,1.05,2.31,1.42.83.36,1.64.77,2.44,1.19l.03.02.03.03c.71.97,1.57,1.84,2.56,2.53,1,.69,1.99,1.35,2.99,2,.99.65,2.04,1.26,3.22,1.51,1.17.27,2.38.55,3.51.98,1.13.4,2.22.89,3.41,1.1,1.18.23,2.4.16,3.6.22l3.61.22c1.19.05,2.43.13,3.59-.07h.01s.03,0,.04,0c1.08.33,2.22.51,3.35.55,1.12.05,2.26-.05,3.23-.57h.02s.04-.02.04-.02c1.52-.05,3.03-.21,4.52-.52l2.21-.52c.73-.18,1.47-.35,2.17-.56l-.1.07c1.08-1.15,2.1-2.34,3.05-3.6.95-1.25,1.92-2.49,2.94-3.68.09-.1.25-.12.35-.03.1.09.12.24.03.34-.98,1.23-2.01,2.42-3.06,3.59-1.06,1.17-2.03,2.4-2.95,3.67-.02.03-.05.05-.09.07h-.01c-1.48.56-3.01.63-4.52.78-1.52.13-3.01.36-4.51.63l.06-.02c-.99.72-2.25.81-3.4.72-1.16-.1-2.28-.4-3.38-.74h.05c-1.23.18-2.43.16-3.64.21-1.21.03-2.42.02-3.63-.04-1.21-.07-2.41-.34-3.61-.51-1.2-.17-2.43-.38-3.55-.85-1.13-.44-2.21-.93-3.39-1.2-.59-.15-1.18-.33-1.75-.55-.57-.23-1.12-.49-1.66-.79-1.07-.6-2.01-1.4-2.85-2.27-.85-.87-1.76-1.65-2.7-2.44l.06.04c-.89-.27-1.73-.65-2.51-1.14-.78-.49-1.61-.89-2.39-1.37-.79-.49-1.38-1.23-2.16-1.73-.39-.26-.73-.59-.99-.98-.26-.39-.53-.73-.86-1.09-.15-.18-.31-.35-.4-.57-.06-.24-.1-.48-.28-.64-.39-.31-.42-.82-.62-1.23-.39-.83-.72-1.69-1.01-2.56-.54-1.75-.93-3.54-1.26-5.34h0c.31-2.42.6-4.84.57-7.28,0-.14.11-.25.25-.26.14,0,.25.11.26.25,0,.02,0,.04,0,.06Z"/>
      <path class="cls-1" d="M87.37,62.5c1.61-1.4,3.16-2.87,4.62-4.43,1.45-1.55,2.89-3.16,3.86-5.03l-.02.08-.06-10.53.04.13c-.94-1.31-1.88-2.63-2.77-3.98l-1.29-2.06c-.41-.7-.83-1.39-1.14-2.18l.1.12c-1.36-.73-2.7-1.49-4.02-2.28-.66-.4-1.32-.8-1.96-1.22-.64-.43-1.29-.86-1.86-1.42l.07.04-6.9-2.06h.04s-6.04.57-6.04.57l-3.03.23c-1.01.06-2.02.15-3.05.06h.05c-1.69.97-3.43,1.87-5.2,2.7-.89.41-1.79.79-2.72,1.12-.93.32-1.88.62-2.91.62l.1-.03c-1.79,1.3-3.57,2.6-5.39,3.86l.03-.03c-2.06,2.46-4.1,4.95-6.21,7.37-.02.02-.06.03-.08,0-.02-.02-.03-.06,0-.08,1.96-2.54,4.01-5.02,6.02-7.53l.04-.03c1.78-1.31,3.6-2.57,5.41-3.84.03-.02.07-.03.11-.03.93.01,1.88-.26,2.8-.56.92-.31,1.82-.68,2.71-1.07,1.78-.8,3.52-1.68,5.22-2.62.02,0,.04-.01.05,0,.98.1,2.01.03,3.01-.02,1.01-.05,2.02-.15,3.02-.24l6.03-.66h.04s6.92,1.96,6.92,1.96c.02,0,.05.03.07.04.53.51,1.18.93,1.82,1.35.64.41,1.3.8,1.97,1.19,1.33.77,2.68,1.51,4.03,2.22.05.02.08.06.1.11h0c.29.72.71,1.42,1.13,2.1l1.31,2.02c.89,1.34,1.79,2.68,2.72,3.99.03.04.04.09.04.13l-.05,10.53s0,.06-.02.08c-1.03,1.93-2.48,3.53-3.98,5.06-1.51,1.52-3.11,2.95-4.76,4.3-.02.01-.04.01-.05,0-.01-.02-.01-.04,0-.05Z"/>
      <path class="cls-1" d="M39.66,49.6c-.12.62.01,1.21.19,1.79.19.58.43,1.14.71,1.68.57,1.08,1.22,2.12,1.94,3.1v-.02s5.56,5.47,5.56,5.47l-.03-.03c1.14.73,2.33,1.42,3.53,2.05,1.21.61,2.43,1.24,3.71,1.6.31.09.65.14,1,.24.36.11.66.25.98.38.63.27,1.25.54,1.89.78,1.26.45,2.63.79,3.92.47.03,0,.06,0,.08,0,1.68.47,3.41.79,5.16.9,1.74.1,3.53.02,5.15-.66h0c3.37-1.89,6.76-3.74,10.18-5.54.86-.46,1.7-.89,2.53-1.4l2.53-1.42c1.69-.95,3.37-1.9,5.08-2.79.03-.02.06,0,.08.03.01.03,0,.06-.02.08-1.64,1.03-3.31,2-4.97,2.98-1.66.98-3.32,1.99-5.07,2.82-3.46,1.72-6.89,3.5-10.29,5.33h0c-1.64.71-3.45.84-5.21.77-1.77-.08-3.51-.37-5.23-.81h.08c-1.39.37-2.83.03-4.12-.41-.65-.22-1.29-.49-1.92-.75-.31-.12-.64-.26-.93-.35-.31-.09-.65-.14-1-.23-2.7-.78-5.05-2.25-7.36-3.73l-.03-.03-5.5-5.55-.02-.02c-.72-1.01-1.37-2.06-1.89-3.19-.27-.56-.49-1.14-.65-1.74-.16-.59-.27-1.24-.12-1.84,0-.02.02-.04.04-.03.02,0,.03.02.03.04Z"/>
      <path class="cls-1" d="M90.39,52.72l-.19-8.61v.02c-.22-1.24-.57-2.48-1.08-3.64-.51-1.15-1.2-2.27-2.27-2.88-2.22-1.25-4.58-2.28-6.92-3.29-1.17-.45-2.41-.82-3.63-1.15-.61-.15-1.24-.3-1.84-.35-.58-.01-1.21.16-1.83.28-1.25.26-2.5.55-3.77.79-.63.12-1.27.22-1.91.3-.65.06-1.29.14-1.99,0h.13c-2.2.95-4.41,1.89-6.66,2.73-1.11.45-2.31.73-3.46,1-1.15.32-2.28.71-3.39,1.15l.04-.03-4.27,5.14-1.05,1.3c-.32.44-.6.93-.88,1.41-.55.97-1.06,1.96-1.55,2.95v-.07c.33,1.07.66,2.14,1.01,3.21.18.53.36,1.06.57,1.57.09.21.24.61.34.57.37.13.54.28.81.43,1.9,1.21,3.69,2.58,5.57,3.76,1.93,1.08,3.99,2,6.03,2.91.49.23,1.04.39,1.56.59l1.58.57,3.15,1.18s.05.05.03.08c-.01.03-.04.05-.07.04l-3.2-1.05-1.59-.55c-.53-.19-1.06-.34-1.59-.57l-3.08-1.35c-1.02-.48-2.05-.92-3.02-1.52-1.9-1.24-3.65-2.62-5.52-3.85-.22-.14-.51-.32-.66-.39-.02,0-.1,0-.08-.03-.1,0-.22-.1-.21-.12-.04-.07-.09-.14-.12-.2-.06-.13-.12-.26-.17-.4-.21-.53-.38-1.06-.55-1.6-.34-1.07-.66-2.15-.96-3.23,0-.02,0-.05,0-.07.51-.99,1.04-1.97,1.6-2.94.28-.48.57-.96.91-1.41l1.07-1.29,4.2-5.19s.02-.02.04-.03c1.11-.46,2.24-.87,3.4-1.21,1.18-.3,2.31-.58,3.42-1.04,2.23-.87,4.42-1.83,6.6-2.81.04-.02.08-.02.11-.01h.01c.57.12,1.22.05,1.84-.02.63-.09,1.26-.19,1.88-.32,1.25-.25,2.49-.55,3.75-.83.63-.13,1.25-.31,1.96-.31.68.04,1.31.2,1.94.37,1.25.35,2.46.72,3.69,1.21,2.35,1.04,4.69,2.09,6.93,3.38,1.18.69,1.88,1.89,2.39,3.07.51,1.2.84,2.45,1.06,3.73v.02s-.03,8.61-.03,8.61c0,.02-.02.04-.04.04-.02,0-.04-.02-.04-.04Z"/>
      <path class="cls-1" d="M54.08,40.51c-2.18,1.3-3.94,3.22-5.41,5.25l.02-.05-.73,3.92v-.05s.65,4.79.65,4.79l-.09-.13,5.68,3.59h-.01s5.62,2.97,5.62,2.97l-.04-.02,4.86,1.55h-.03s3.74.67,3.74.67h-.07s3.69-.63,3.69-.63h-.03s3.93-1.48,3.93-1.48l-.03.02,4.78-3.34h0s5.67-5.22,5.67-5.22l-.02.04-.05-7.34v.05s-2.53-5.02-2.53-5.02l.06.06-6.09-3.3h.03s-4.49-1.53-4.49-1.53h.07c-2.64.35-5.27.69-7.92.98-.03,0-.06-.02-.07-.05,0-.03.02-.06.05-.06,2.62-.43,5.26-.81,7.89-1.18.03,0,.05,0,.08,0l4.51,1.48h.03s6.04,3.41,6.04,3.41c.03.01.05.04.06.06l2.46,5.06s.01.03.01.05l-.05,7.34s0,.03-.02.04l-5.61,5.3h-.01s-4.74,3.42-4.74,3.42l-.03.02-3.91,1.54s-.03,0-.03,0l-3.69.68s-.05,0-.07,0l-3.74-.63h-.03s-4.88-1.49-4.88-1.49l-.04-.02-5.59-3.02h-.02s-5.65-3.66-5.65-3.66c-.05-.03-.08-.08-.09-.13l-.6-4.79v-.05s.77-3.91.77-3.91c0-.02.01-.04.02-.06,1.55-2.03,3.37-3.9,5.61-5.15.02-.01.04,0,.05.01.01.02,0,.04-.01.05Z"/>
      <path class="cls-1" d="M56.01,41.61c-1.62,1.59-3.28,3.15-4.95,4.68l.05-.09-.94,3.68v-.12c.35,1.25.68,2.51.98,3.77l-.1-.13,5,3.26h-.02c1.82.71,3.63,1.45,5.46,2.15h0s3.57,1.69,3.57,1.69h-.05c2.15-.04,4.3-.12,6.44-.08h-.06c1.11-.38,2.23-.75,3.36-1.1.03,0,.06,0,.07.04,0,.03,0,.06-.03.07-1.08.47-2.18.92-3.28,1.34-.02,0-.04.01-.06.01-2.15.05-4.3-.04-6.44-.06-.02,0-.04,0-.05-.01l-3.52-1.8h0c-1.83-.69-3.68-1.34-5.51-2.02h-.02s-5.09-3.13-5.09-3.13c-.05-.03-.08-.08-.1-.13-.35-1.25-.69-2.5-.99-3.77-.01-.04,0-.08,0-.12l1.03-3.66s.03-.07.05-.09c1.69-1.51,3.4-3.01,5.15-4.46.02-.01.04-.01.05,0,.01.01.01.04,0,.05Z"/>
      <path class="cls-1" d="M60.3,41.38c.88-.54,1.83-.95,2.76-1.39l2.83-1.23h.05s5.87-.05,5.87-.05c.03,0,.06,0,.09.02.6.32,1.22.62,1.85.87.31.12.63.24.94.31.14.04.31.02.5.06.21.05.38.13.54.2,1.27.63,2.39,1.41,3.53,2.2.02.01.04.04.05.05l2.39,3.38s.04.09.04.14l-.04,5.82c0,.05-.02.11-.06.14l-3.71,3.63-.04.03-3.44,1.74c-1.15.6-2.33,1.08-3.5,1.63h-.04s-5.3-.04-5.3-.04h-.02s-3.24-1.23-3.24-1.23h0s-4.33-2.21-4.33-2.21h-.01s-4.02-2.77-4.02-2.77c-.03-.02-.05-.05-.06-.08l-.88-2.55s-.01-.07,0-.11c.27-1.11.56-2.22.86-3.32,0-.03.02-.06.04-.08l3.77-4.08.04-.03,2.56-1.12v.02ZM60.34,41.47l-2.51,1.22.04-.03-3.67,4.17.04-.08c-.27,1.11-.55,2.22-.85,3.32v-.1s.83,2.57.83,2.57l-.06-.08,3.97,2.84h-.01s4.29,2.27,4.29,2.27h0s3.23,1.26,3.23,1.26h-.02s5.3-.05,5.3-.05h-.04c1.15-.55,2.35-1.06,3.46-1.67l3.41-1.8-.04.03,3.65-3.69-.06.14-.04-5.82.04.14-2.37-3.4.05.05c-1.11-.79-2.24-1.6-3.43-2.21-.15-.07-.3-.13-.42-.17-.15-.04-.33-.03-.52-.07-.36-.08-.69-.21-1.01-.34-.64-.27-1.26-.58-1.87-.91l.09.02-5.87-.04h.05s-2.86,1.12-2.86,1.12c-.94.4-1.9.78-2.79,1.28v.02Z"/>
      <path class="cls-1" d="M61.47,42.58l-4.22,4.65.02-.05-.64,4.63-.07-.15,3.53,2.26h-.02s3.73,1.47,3.73,1.47h0s2.12,1.61,2.12,1.61l-2.16-1.54h0s-3.77-1.37-3.77-1.37h-.02s-3.59-2.17-3.59-2.17c-.05-.03-.08-.09-.07-.15l.76-4.61s.01-.03.02-.05l4.34-4.54Z"/>
      <path class="cls-1" d="M72.69,56.25c.84-.95,1.71-1.86,2.59-2.78h.02c1.13-.86,2.27-1.69,3.45-2.47l-.05.09.09-4.66v.02s-2.55-2.38-2.55-2.38c-.87-.78-1.68-1.61-2.48-2.47-.01-.01-.01-.04,0-.05.01-.01.03-.01.05,0,.89.76,1.75,1.54,2.57,2.37l2.46,2.48v.02s.1,4.66.1,4.66c0,.04-.02.07-.05.09-1.12.85-2.28,1.66-3.45,2.46h.02c-.9.88-1.79,1.77-2.72,2.63,0,0-.02,0-.03,0,0,0,0-.02,0-.03Z"/>
      <path class="cls-1" d="M67.07,42.58c-1.51.88-3.04,1.73-4.58,2.56l.03-.02-2.1,2.33.03-.04c-.22.6-.46,1.2-.7,1.8v-.05s0,1.6,0,1.6l-.04-.09,1.83,1.63-.03-.02c1.18.41,2.35.85,3.52,1.29-1.2-.36-2.39-.72-3.58-1.12l-.03-.02-1.86-1.59s-.04-.06-.04-.09l-.02-1.6v-.05c.23-.6.45-1.21.7-1.8,0-.02.02-.03.03-.05l2.15-2.29.03-.02c1.55-.81,3.1-1.61,4.68-2.37Z"/>
      <path class="cls-1" d="M69.73,54.16c1.01-.65,2.04-1.28,3.08-1.88l-.03.02,1.89-2.24-.04.09c0-1.08.03-2.16.04-3.24l.02.07c-.83-1.05-1.66-2.11-2.44-3.2.9,1,1.76,2.03,2.61,3.07.02.02.02.05.02.07.01,1.08.04,2.16.04,3.24,0,.04-.01.07-.04.1l-1.96,2.19-.03.02c-1.05.59-2.1,1.16-3.18,1.7Z"/>
      <path class="cls-1" d="M63.56,25.05c-.37.43-.79.81-1.26,1.15-.48.31-.96.62-1.49.86-1.03.48-2.1.89-3.19,1.23-2.18.66-4.39,1.23-6.65,1.51l.1-.04-6.62,4.72.02-.02c-2.1,2.89-3.96,5.93-5.93,8.91l.03-.07c-.38,1.97-.81,3.93-1.34,5.87,0,.03-.04.05-.07.04-.03,0-.05-.04-.04-.07.28-1.99.66-3.96,1.09-5.92,0-.02.02-.05.03-.07,2.03-2.93,4.17-5.79,6.07-8.81l.02-.02,6.47-4.93s.06-.03.09-.04h.01c2.21-.41,4.44-.79,6.61-1.43,1.08-.3,2.15-.68,3.18-1.13.52-.22,1.01-.48,1.51-.75.47-.29.92-.63,1.31-1.04.01-.01.04-.02.05,0,.01.01.01.04,0,.05Z"/>
      <path class="cls-1" d="M84.39,27.54c.29.33.62.61.96.85.36.24.72.46,1.1.66.75.41,1.54.76,2.34,1.06,1.59.65,3.25,1.12,4.9,1.58h.01c.07.02.13.07.15.14,1.39,3.36,2.59,6.81,4.14,10.1,0,.02,0,.04,0,.06-.53,2.63-1.09,5.25-1.93,7.81-.01.03-.04.05-.08.04-.03,0-.04-.04-.04-.07.43-2.66,1.13-5.24,1.87-7.82v.06c-1.29-3.4-2.94-6.66-4.4-9.99l.16.14c-1.7-.4-3.34-.98-4.96-1.64-.8-.35-1.58-.75-2.33-1.2-.38-.22-.72-.5-1.06-.77-.34-.29-.64-.61-.9-.96-.01-.02-.01-.04,0-.05.01-.01.04,0,.05,0Z"/>
      <path class="cls-1" d="M77.71,22.85c2.82.57,5.6,1.29,8.39,1.95h.02s.01,0,.01,0c1.78.64,3.5,1.43,5.25,2.14l5.22,2.2s.04.03.04.05c.47,2.04,1.05,4.06,1.58,6.09.56,2.02,1.04,4.06,1.39,6.13,0,.03-.02.06-.05.07-.03,0-.06-.01-.07-.04-.64-2-1.15-4.03-1.58-6.08-.46-2.04-.87-4.1-1.4-6.13l.04.05-5.31-1.99c-1.76-.69-3.55-1.29-5.28-2.04h.03c-2.77-.76-5.55-1.46-8.3-2.32-.02,0-.03-.03-.02-.05,0-.02.02-.03.04-.03Z"/>
      <path class="cls-1" d="M54.93,35.1c3.13-1.37,6.27-2.69,9.43-3.99h.05c3.55-.35,7.09-.75,10.64-1.05.03,0,.06,0,.08,0l6.21,1.69.05.02,7.27,4.4s.03.02.03.04c1.22,2.46,2.48,4.9,3.78,7.32,0,.01.01.03.01.04l.1,8.78s-.01.08-.03.11c-.85,1.3-1.75,2.55-2.63,3.83-.88,1.28-1.76,2.55-2.68,3.79-.02.03-.06.03-.08.01-.02-.02-.03-.05-.02-.08.81-1.32,1.66-2.62,2.52-3.9.86-1.29,1.69-2.6,2.58-3.87l-.03.11.1-8.78v.04c-1.21-2.46-2.46-4.91-3.77-7.33l.03.04-7.36-4.26.04.02-6.24-1.58h.08c-3.55.36-7.1.62-10.65.94h.05c-3.17,1.26-6.35,2.5-9.54,3.7-.02,0-.04,0-.05-.02,0-.02,0-.04.02-.05Z"/>
      <path class="cls-1" d="M88.64,63.41c-2.3,1.9-4.67,3.7-7.02,5.54-.01.01-.04.02-.05.03-2.22.93-4.47,1.77-6.72,2.61-.02,0-.05.01-.07.01l-6.19-.1h-.02c-1.28-.28-2.58-.55-3.87-.76-1.28-.23-2.59-.47-3.9-.62-2.61-.33-5.22-.73-7.81-1.29-.03,0-.06-.03-.06-.06,0-.03.04-.05.06-.05,2.62.24,5.22.64,7.82,1.11,1.3.2,2.58.48,3.89.76,1.29.29,2.59.53,3.89.75h-.02s6.19-.1,6.19-.1h-.07c2.22-.9,4.44-1.83,6.7-2.66l-.05.03c2.4-1.76,4.78-3.56,7.24-5.25.02-.01.04,0,.05,0,.01.02,0,.04,0,.05Z"/>
      <path class="cls-1" d="M101,71.2c.79-3.94,1.82-7.82,3.08-11.64,0-.02.02-.04.03-.05,1.31-1,2.6-2.04,3.81-3.16,1.23-1.1,2.51-2.15,3.9-3.06.03-.02.06-.01.08.02.02.02.01.06,0,.07-1.17,1.17-2.46,2.2-3.79,3.18-1.35.96-2.63,2-3.88,3.08l.03-.05c-.83,3.93-1.89,7.81-3.18,11.62,0,.02-.03.03-.05.02-.02,0-.03-.02-.02-.04Z"/>
      <path class="cls-1" d="M94.78,83.69s-1.57.28-3.93.58c-2.36.29-5.52.67-8.7.79-.8,0-1.58.15-2.39.02-.75-.05-1.54-.05-2.27-.04-1.49.03-2.87.14-4.06.16-2.38.07-3.97-.08-3.97-.08-.03,0-.06-.03-.05-.06,0-.03.02-.05.05-.05,0,0,1.58-.2,3.97-.19,1.19-.01,2.58.08,4.07.1.75,0,1.52.02,2.31.03.74.11,1.55-.08,2.33-.15,3.14-.44,6.3-.73,8.68-.92,2.37-.19,3.96-.25,3.96-.25.02,0,.04.02.04.04,0,.02-.01.03-.03.04Z"/>
      <path class="cls-1" d="M28.56,21.44s2.78-2.85,6.03-5.14c.8-.59,1.59-1.19,2.28-1.81.7-.61,1.3-1.25,1.87-1.72,1.12-.98,1.99-1.48,1.99-1.48.03-.02.07,0,.08.02.01.02,0,.05,0,.07,0,0-.65.76-1.82,1.69-.57.48-1.3.95-2.03,1.53-.73.57-1.47,1.24-2.19,1.92-2.85,2.77-6.15,5-6.15,5-.02.01-.04,0-.05-.01,0-.01,0-.03,0-.05Z"/>
      <path class="cls-1" d="M45.1,19.99c2.97-.48,5.95-.76,8.93-1.14,2.99-.27,5.98-.51,8.97-.76h.02c1.95.46,3.94.74,5.9,1.11,1.98.33,3.94.73,5.87,1.28.03,0,.05.04.04.07,0,.03-.04.05-.06.04-1.99-.25-3.96-.63-5.91-1.09-1.96-.42-3.9-.93-5.87-1.26h.02c-2.98.37-5.96.76-8.94,1.1-2.99.24-5.97.59-8.98.73-.02,0-.04-.01-.04-.04,0-.02.01-.04.03-.04Z"/>
      <path class="cls-1" d="M63.98,28.42c2.14-.83,4.34-1.51,6.52-2.19,2.19-.67,4.44-1.15,6.64-1.81,0,0,.03,0,.03,0,2.65.67,5.39.98,7.98,1.93.03.01.05.05.04.08,0,.03-.04.04-.06.04-2.73-.34-5.31-1.32-7.98-1.94h.03c-2.19.67-4.33,1.52-6.53,2.18-2.2.64-4.4,1.29-6.65,1.79-.02,0-.04,0-.04-.03,0-.02,0-.04.02-.04Z"/>
      <path class="cls-1" d="M92.49,21.86c2.58-.85,5.18-1.64,7.79-2.42,2.61-.77,5.2-1.6,7.82-2.31.12-.04.25.03.28.15v.07s.03,10.09.03,10.09c.01,1.68-.03,3.36.03,5.04l.14,5.04v.03c-.57,3.45-1.15,6.89-1.96,10.29,0,.03-.04.05-.07.04-.03,0-.05-.04-.04-.07.45-3.47,1.12-6.89,1.82-10.32v.03s0-5.04,0-5.04c.01-1.68-.08-3.36-.11-5.04l-.27-10.09.29.22c-2.6.81-5.23,1.48-7.84,2.23-2.62.74-5.24,1.46-7.87,2.13-.02,0-.04,0-.04-.03,0-.02,0-.04.02-.04Z"/>
    </g>
  </g>
</svg>